<svg width="16" height="16" viewBox="0 0 16 16" fill="none" xmlns="http://www.w3.org/2000/svg">
<path d="M8.00108 1.6665C7.69441 1.6665 7.38108 1.69317 7.06774 1.75984C5.22774 2.11317 3.76108 3.59984 3.41441 5.43984C3.09441 7.17984 3.73441 8.77984 4.89441 9.81317C5.18108 10.0665 5.33441 10.4198 5.33441 10.7932V12.3332C5.33441 13.0665 5.93441 13.6665 6.66774 13.6665H6.85441C7.08774 14.0665 7.50774 14.3332 8.00108 14.3332C8.49441 14.3332 8.92108 14.0665 9.14774 13.6665H9.33441C10.0677 13.6665 10.6677 13.0665 10.6677 12.3332V10.7932C10.6677 10.4265 10.8144 10.0665 11.0944 9.81984C12.0611 8.9665 12.6677 7.71984 12.6677 6.33317C12.6677 3.75317 10.5811 1.6665 8.00108 1.6665ZM8.33441 8.99984H7.66774V7.27317L6.44774 6.05984L6.92108 5.5865L8.00108 6.6665L9.08108 5.5865L9.55441 6.05984L8.33441 7.27984V8.99984ZM9.00108 12.3332C8.99441 12.3332 8.98774 12.3265 8.98108 12.3265V12.3332H7.02108V12.3265C7.01441 12.3265 7.00774 12.3332 7.00108 12.3332C6.81441 12.3332 6.66774 12.1865 6.66774 11.9998C6.66774 11.8132 6.81441 11.6665 7.00108 11.6665C7.00774 11.6665 7.01441 11.6732 7.02108 11.6732V11.6665H8.98108V11.6732C8.98774 11.6732 8.99441 11.6665 9.00108 11.6665C9.18774 11.6665 9.33441 11.8132 9.33441 11.9998C9.33441 12.1865 9.18774 12.3332 9.00108 12.3332ZM9.00108 10.9998H7.00108C6.81441 10.9998 6.66774 10.8532 6.66774 10.6665C6.66774 10.4798 6.81441 10.3332 7.00108 10.3332H9.00108C9.18774 10.3332 9.33441 10.4798 9.33441 10.6665C9.33441 10.8532 9.18774 10.9998 9.00108 10.9998Z" fill="white"/>
</svg>
