<svg width="16" height="16" viewBox="0 0 16 16" fill="none" xmlns="http://www.w3.org/2000/svg">
<path d="M7.99331 1.33337C4.31331 1.33337 1.33331 4.32004 1.33331 8.00004C1.33331 11.68 4.31331 14.6667 7.99331 14.6667C11.68 14.6667 14.6666 11.68 14.6666 8.00004C14.6666 4.32004 11.68 1.33337 7.99331 1.33337ZM5.66665 5.33337C6.21998 5.33337 6.66665 5.78004 6.66665 6.33337C6.66665 6.88671 6.21998 7.33337 5.66665 7.33337C5.11331 7.33337 4.66665 6.88671 4.66665 6.33337C4.66665 5.78004 5.11331 5.33337 5.66665 5.33337ZM11.14 9.81337C10.5333 11.1134 9.35998 12 7.99998 12C6.63998 12 5.46665 11.1134 4.85998 9.81337C4.75331 9.59337 4.91331 9.33337 5.15998 9.33337H10.84C11.0866 9.33337 11.2466 9.59337 11.14 9.81337ZM10.3333 7.33337C9.77998 7.33337 9.33331 6.88671 9.33331 6.33337C9.33331 5.78004 9.77998 5.33337 10.3333 5.33337C10.8866 5.33337 11.3333 5.78004 11.3333 6.33337C11.3333 6.88671 10.8866 7.33337 10.3333 7.33337Z" fill="#4E4F51"/>
</svg>
