<svg width="16" height="16" viewBox="0 0 16 16" fill="none" xmlns="http://www.w3.org/2000/svg">
<path d="M7.99998 7.26659C7.59331 7.26659 7.26665 7.59325 7.26665 7.99992C7.26665 8.40659 7.59331 8.73325 7.99998 8.73325C8.40665 8.73325 8.73331 8.40659 8.73331 7.99992C8.73331 7.59325 8.40665 7.26659 7.99998 7.26659ZM7.99998 1.33325C4.31998 1.33325 1.33331 4.31992 1.33331 7.99992C1.33331 11.6799 4.31998 14.6666 7.99998 14.6666C11.68 14.6666 14.6666 11.6799 14.6666 7.99992C14.6666 4.31992 11.68 1.33325 7.99998 1.33325ZM9.45998 9.45992L3.99998 11.9999L6.53998 6.53992L12 3.99992L9.45998 9.45992Z" fill="black"/>
</svg>
