<svg width="16" height="16" viewBox="0 0 16 16" fill="none" xmlns="http://www.w3.org/2000/svg">
<path d="M4.44582 8.8335C2.97249 8.8335 1.77915 10.0268 1.77915 11.5002C1.77915 12.9735 2.97249 14.1668 4.44582 14.1668C5.91915 14.1668 7.11249 12.9735 7.11249 11.5002C7.11249 10.0268 5.91915 8.8335 4.44582 8.8335ZM8.43249 9.50016V13.5002C8.43249 13.8668 8.73249 14.1668 9.09915 14.1668H13.0992C13.4658 14.1668 13.7658 13.8668 13.7658 13.5002V9.50016C13.7658 9.1335 13.4658 8.8335 13.0992 8.8335H9.09915C8.73249 8.8335 8.43249 9.1335 8.43249 9.50016ZM3.85249 2.54683L1.65249 6.50683C1.40582 6.9535 1.72582 7.50016 2.23249 7.50016H6.63249C7.13915 7.50016 7.45915 6.9535 7.21249 6.50683L5.01249 2.54683C4.75915 2.0935 4.10582 2.0935 3.85249 2.54683ZM12.5992 1.8335C11.8925 1.8335 11.3925 2.20683 11.0992 2.6135C10.8058 2.20683 10.3058 1.8335 9.59915 1.8335C8.55915 1.8335 7.76582 2.68683 7.76582 3.66683C7.76582 4.88683 9.11915 5.78016 10.6658 7.12016C10.9125 7.3335 11.2792 7.3335 11.5325 7.12016C13.0792 5.78016 14.4325 4.88683 14.4325 3.66683C14.4325 2.68683 13.6392 1.8335 12.5992 1.8335Z" fill="white"/>
</svg>
