<svg width="80" height="80" viewBox="0 0 80 80" fill="none" xmlns="http://www.w3.org/2000/svg">
<path d="M66.0252 32.5981L64.9114 28.8394L66.1643 27.2037C70.793 21.1133 62.1969 11.5775 55.3756 15.2318C54.6448 15.6146 53.7748 15.6494 52.522 15.3362C50.225 14.7445 42.7077 13.4917 41.1764 13.3176C36.0953 12.6912 37.4873 15.1621 39.6798 15.371C44.6217 15.893 44.5173 15.6146 43.1949 17.0067C41.1415 19.1992 42.9165 27.7606 46.1879 31.4844C49.1461 34.8602 56.3153 36.6699 58.5427 34.5818C62.9626 30.4055 61.7445 49.7556 57.1854 55.6719C42.9861 74.1519 13.0561 56.3332 18.4504 32.5981L19.077 29.8139L21.6523 31.5192C26.1418 34.5122 27.9862 33.0157 24.5408 29.1875C18.9029 22.9579 20.8171 15.0229 26.7335 20.0693C28.7172 21.7746 31.1534 22.0182 32.1626 20.6609C35.1556 16.5542 36.9304 18.0159 36.8956 22.401C36.8956 24.7676 35.782 26.3685 31.2229 30.6143C27.2207 34.3382 27.0466 35.5911 30.5269 35.5911C32.8586 35.5911 40.4106 26.6469 41.0719 23.1319C42.0115 18.1899 35.3295 14.1529 31.3621 17.2503C30.4572 17.9811 29.9005 18.1203 29.5525 17.7723C29.2045 17.4243 29.274 16.7978 30.3877 16.1714C31.5014 15.545 33.2067 15.0578 32.8239 14.0137C32.3018 12.6216 28.4387 14.4313 27.9167 14.7445C27.3947 15.0229 25.5153 16.241 23.9144 16.241C18.4157 16.241 16.3276 17.9115 16.78 21.9138C17.0236 24.1411 16.8845 24.7676 15.6316 26.9949C5.85215 44.3264 19.0769 66.217 39.5755 66.6347C60.422 67.1219 71.8719 52.3309 66.0252 32.5981ZM58.995 28.9786C55.2364 33.1549 54.6796 33.3289 51.5822 31.5192C49.1113 30.0575 47.0927 26.2641 46.6751 22.2618C46.2575 18.0507 48.4152 16.9371 52.1043 19.4428L53.914 20.6957L55.7237 19.5124C60.9092 16.067 67.7304 19.3036 58.995 28.9786Z" fill="black"/>
<path d="M22.8358 40.3589C23.0794 41.0898 23.6014 43.526 24.019 45.7881C27.1164 62.6672 54.1926 62.354 55.5847 45.4401C55.7587 43.3519 56.1415 41.5074 56.4199 41.3334C58.8561 39.7673 52.3481 37.6792 47.7542 38.584C46.3273 38.8625 40.8634 38.9321 34.3553 38.7581C22.3138 38.41 22.2441 38.41 22.8358 40.3589ZM52.3482 41.5074V44.0828C52.3482 53.6534 35.2601 58.9085 29.5874 51.0432C27.6384 48.3635 27.6733 46.7278 27.3949 41.6814C43.4039 41.1594 43.7868 41.229 52.3482 41.5074Z" fill="black"/>
</svg>
