<svg width="16" height="16" viewBox="0 0 16 16" fill="none" xmlns="http://www.w3.org/2000/svg">
<path d="M14.6667 8.00016C14.6667 4.32016 11.68 1.3335 8.00001 1.3335C4.32001 1.3335 1.33334 4.32016 1.33334 8.00016C1.33334 11.6802 4.32001 14.6668 8.00001 14.6668C11.68 14.6668 14.6667 11.6802 14.6667 8.00016ZM8.00001 9.86016V8.66683H6.00001C5.63334 8.66683 5.33334 8.36683 5.33334 8.00016C5.33334 7.6335 5.63334 7.3335 6.00001 7.3335H8.00001V6.14016C8.00001 5.84016 8.36001 5.6935 8.56668 5.90683L10.4267 7.76683C10.56 7.90016 10.56 8.10683 10.4267 8.24016L8.56668 10.1002C8.36001 10.3068 8.00001 10.1602 8.00001 9.86016Z" fill="white"/>
</svg>
