<svg width="81" height="20" viewBox="0 0 81 20" fill="none" xmlns="http://www.w3.org/2000/svg">
<g clip-path="url(#clip0_2101_16239)">
<path d="M11.0899 5.04306V14.9129C11.0899 15.4626 11.1982 16.007 11.4086 16.5148C11.6189 17.0226 11.9273 17.4841 12.316 17.8728C12.7046 18.2615 13.1661 18.5698 13.6739 18.7802C14.1818 18.9906 14.7261 19.0988 15.2759 19.0988C15.8255 19.0988 16.3698 18.9906 16.8777 18.7802C17.3856 18.5698 17.847 18.2615 18.2357 17.8728C18.6244 17.4841 18.9327 17.0226 19.1431 16.5148C19.3535 16.007 19.4617 15.4626 19.4617 14.9129V5.04306C19.4617 3.9329 19.0207 2.8682 18.2357 2.0832C17.4507 1.29819 16.386 0.857178 15.2759 0.857178C14.1656 0.857178 13.101 1.29819 12.316 2.0832C11.5309 2.8682 11.0899 3.9329 11.0899 5.04306ZM14.0862 14.9129V5.04306C14.0838 4.89345 14.1112 4.74488 14.1669 4.60598C14.2225 4.46709 14.3053 4.34066 14.4102 4.23403C14.5152 4.12742 14.6403 4.04276 14.7784 3.98496C14.9164 3.92718 15.0645 3.89743 15.2141 3.89745H15.3199C15.4658 3.89275 15.611 3.91683 15.7475 3.96833C15.8841 4.01983 16.0091 4.09772 16.1155 4.19757C16.2219 4.29742 16.3075 4.41726 16.3676 4.55024C16.4277 4.68321 16.461 4.82672 16.4655 4.97256V14.9129C16.461 15.2154 16.3388 15.5041 16.125 15.718C15.9111 15.9318 15.6223 16.054 15.3199 16.0585C15.1637 16.0645 15.0078 16.0394 14.8611 15.985C14.7146 15.9306 14.5801 15.8479 14.4655 15.7415C14.351 15.6351 14.2584 15.5071 14.1933 15.365C14.1282 15.2228 14.0919 15.0692 14.0862 14.9129ZM43.6076 1.07749H35.1477V4.0737H37.8796V18.7904H40.8758V4.0737H43.6076V1.07749ZM52.4201 1.07749V14.9129C52.4201 15.2168 52.2994 15.5081 52.0845 15.723C51.8697 15.9378 51.5783 16.0585 51.2745 16.0585C50.9705 16.0585 50.6792 15.9378 50.4643 15.723C50.2495 15.5081 50.1288 15.2168 50.1288 14.9129V1.07749H47.0444V14.9129C47.0444 16.0348 47.4901 17.1107 48.2834 17.9039C49.0767 18.6973 50.1525 19.1429 51.2745 19.1429C52.3963 19.1429 53.4722 18.6973 54.2654 17.9039C55.0587 17.1107 55.5044 16.0348 55.5044 14.9129V1.07749H52.4201ZM79.8266 4.0737V1.07749H72.4242V18.7904H79.8266V15.7941H75.4204V11.2117H78.2403V8.21552H75.4204V4.0737H79.8266ZM32.3278 18.7904H29.1553L26.9522 10.4186C27.5019 10.3099 27.9964 10.0126 28.3503 9.57827C28.7042 9.14388 28.8955 8.59958 28.8909 8.03927V5.30743C28.8945 5.14888 28.8667 4.99118 28.8093 4.84336C28.7518 4.69555 28.6658 4.56049 28.5561 4.44592C28.4465 4.33135 28.3153 4.2395 28.1701 4.17564C28.025 4.11178 27.8687 4.07713 27.7101 4.0737H26.5116V18.7904H23.5154V1.07749H27.6572C28.7511 1.06991 29.8049 1.4891 30.5948 2.24601C31.3846 3.00292 31.8482 4.03793 31.8871 5.13119V7.95115C31.9267 8.68289 31.7962 9.41385 31.5056 10.0866C31.2151 10.7593 30.7726 11.3556 30.2128 11.8286L32.3278 18.7904ZM65.7267 1.07749V10.7711L62.6424 1.07749H59.5581V18.7904H62.6424V10.1543L65.4623 18.7904H68.8111V1.07749H65.7267ZM0.955698 1.34186V19.0547H4.12816V11.4761H7.03625V8.47989H4.12816V4.33807H8.7106V1.34186H0.955698Z" fill="#323334"/>
</g>
<defs>
<clipPath id="clip0_2101_16239">
<rect width="79.5428" height="19.2" fill="white" transform="translate(0.548584 0.400024)"/>
</clipPath>
</defs>
</svg>
