<svg width="91" height="30" viewBox="0 0 91 30" fill="none" xmlns="http://www.w3.org/2000/svg">
<g clip-path="url(#clip0_2101_16248)">
<path d="M4.03677 10.2252C4.03677 11.3137 4.33122 11.3941 5.5804 11.4387V11.8135H0.735348V11.4476C1.73469 11.4476 2.02915 11.2781 2.02915 10.2342V3.20301C2.02915 2.11443 1.73469 2.02521 0.771039 1.98951V1.6326H9.31011V3.89899H8.89967C8.56061 2.76579 8.14123 2.39104 6.13361 2.39104H4.58106C4.08138 2.39104 4.00108 2.47134 4.00108 2.9264V6.19213H5.78563C7.40957 6.19213 7.74863 5.89768 7.92709 4.85372H8.30185V8.4942H7.92709C7.71295 7.28071 7.08835 6.94165 5.78563 6.94165H4.00108V10.243L4.03677 10.2252ZM14.1641 10.2252C14.1641 11.3137 14.4496 11.3941 15.7078 11.4387V11.8135H10.6039V11.4476C11.8174 11.4476 12.1565 11.2781 12.1565 10.2342V3.20301C12.1565 2.11443 11.9066 2.02521 10.6039 1.98951V1.6326H15.7078V2.01628C14.4942 2.01628 14.1641 2.17689 14.1641 3.22978V10.2252ZM26.2901 3.41715C26.2901 2.40889 26.0403 1.98951 24.8714 1.86459V1.48984H28.5119V1.86459C27.3787 1.98951 27.0842 2.39996 27.0842 3.41715V11.983H26.5667L19.5446 3.86329V9.84154C19.5446 10.8498 19.7943 11.2603 20.9632 11.3941V11.7689H17.3049V11.3941C18.4381 11.2692 18.7326 10.8587 18.7326 9.84154V2.97102C18.6002 2.69196 18.4003 2.45034 18.1511 2.26804C17.9018 2.08575 17.6109 1.96854 17.3049 1.92706V1.5523H20.1067L26.2544 8.6905V3.41715H26.2901ZM31.7687 8.1016L33.3213 4.04174L34.8649 8.1016H31.7687ZM39.13 11.7777V11.4476C38.3269 11.4476 38.1752 11.1532 37.7916 10.1895L34.1511 1.31138H33.6514L29.886 10.4751C29.8018 10.7469 29.6359 10.9862 29.4107 11.1602C29.1855 11.3343 28.9121 11.4346 28.6279 11.4476V11.8224H31.9204V11.4476C31.2065 11.4476 30.8764 11.2781 30.8764 10.7784C31.0137 10.1379 31.2078 9.51078 31.4564 8.90465H35.1861C35.4553 9.50721 35.6646 10.1349 35.8107 10.7784C35.8107 11.2781 35.4359 11.4476 34.7221 11.4476V11.8224L39.13 11.7777ZM49.1413 3.41715C49.1413 2.40889 48.8915 1.98951 47.7225 1.86459V1.48984H51.363V1.86459C50.2299 1.98951 49.9354 2.39996 49.9354 3.41715V11.983H49.4001L42.3778 3.86329V9.84154C42.3778 10.8498 42.6277 11.2603 43.7966 11.3941V11.7689H40.1383V11.3941C41.2714 11.2692 41.557 10.8587 41.557 9.84154V2.97102C41.431 2.68915 41.234 2.44478 40.9854 2.2618C40.7367 2.07882 40.4448 1.96347 40.1383 1.92706V1.5523H42.94L49.0878 8.6905L49.1413 3.41715ZM62.1507 9.3954C61.7223 10.2374 61.06 10.9379 60.2433 11.4127C59.4266 11.8876 58.4902 12.1165 57.5465 12.0722C54.2005 12.0722 52.1929 9.89507 52.1929 6.59365C52.1928 5.88303 52.3342 5.1795 52.6088 4.52407C52.8834 3.86866 53.2857 3.27447 53.7923 2.77615C54.299 2.27783 54.8997 1.88537 55.5596 1.62162C56.2195 1.35789 56.9252 1.22816 57.6358 1.24C58.6024 1.35582 59.5557 1.56499 60.4821 1.86459C60.7677 1.86459 60.8569 1.69506 61.1513 1.24H61.6867L61.8919 4.66634H61.4726C60.8479 3.07809 59.804 1.90921 57.9927 1.90921C55.5656 1.90921 54.5128 4.58604 54.5128 6.50443C54.5128 9.27048 55.6817 11.1532 58.2782 11.1532C59.0024 11.1132 59.7059 10.8973 60.3278 10.5242C60.9497 10.1511 61.4713 9.63189 61.8473 9.01172L62.1507 9.3954ZM67.085 10.1984C67.085 11.287 67.3794 11.3673 68.6375 11.4119V11.7867H63.5337V11.4476C64.7472 11.403 65.0773 11.2781 65.0773 10.2342V3.21193C65.0773 2.12335 64.7829 2.03413 63.5337 1.99844V1.6326H68.6375V2.01628C67.424 2.01628 67.085 2.17689 67.085 3.22978V10.1984ZM72.858 8.11052L74.4105 4.05067L75.9542 8.11052H72.858ZM80.2193 11.7867V11.4476C79.4162 11.4476 79.2556 11.1532 78.8808 10.1895L75.2403 1.32031H74.7496L70.9753 10.4839C70.8896 10.7542 70.7229 10.9916 70.4979 11.1639C70.2729 11.3362 70.0004 11.4353 69.7171 11.4476V11.8224H73.0275V11.4476C72.3137 11.4476 71.9836 11.2781 71.9836 10.7784C72.1209 10.1379 72.3149 9.51078 72.5636 8.90465H76.2843C76.5564 9.50695 76.7686 10.1346 76.9179 10.7784C76.9179 11.2781 76.5431 11.4476 75.8292 11.4476V11.8224L80.2193 11.7867ZM81.1115 11.7867V11.4476C82.0752 11.403 82.3696 11.2781 82.3696 10.2342V3.20301C82.3696 2.11443 82.0752 2.03413 81.1115 1.98951V1.6326H85.8406V2.00736C84.7074 2.00736 84.4219 2.1769 84.4219 3.22085V10.4483C84.4219 11.0818 84.5825 11.287 85.7157 11.287C87.5537 11.287 88.6424 10.9569 89.5168 9.14557H89.9183L89.2045 11.9116H81.0491V11.8224L81.1115 11.7867ZM2.9125 28.0618C4.0903 28.0618 4.37584 27.9012 4.37584 26.8483V18.9427H3.11772C1.94885 18.9427 1.44917 19.4513 1.1101 20.8165H0.690735L0.940571 18.1397H9.9793L10.2292 20.8165H9.8098C9.47069 19.3978 9.00674 18.9427 7.80217 18.9427H6.54406V26.8483C6.54406 27.9369 6.83852 28.0261 8.00739 28.0618V28.4454H3.07311V28.0618H2.9125ZM14.7976 26.8483C14.7976 27.9369 15.0921 28.0261 16.3413 28.0618V28.4454H11.2375V28.0618C12.4509 28.0618 12.79 27.9012 12.79 26.8483V19.8261C12.79 18.7376 12.4955 18.6483 11.2375 18.6126V18.2289H16.3413V18.5859C15.1277 18.5859 14.7976 18.7554 14.7976 19.7993V26.8483ZM27.1378 18.1486H30.7069V18.5233C29.7432 18.5233 29.4577 18.6929 29.4577 19.7369V26.8126C29.4577 27.9012 29.7432 27.9815 30.7069 28.0261V28.4009H26.0314V28.0261C27.0396 28.0261 27.3251 27.8565 27.3251 26.8126V19.5852L23.8899 28.5793H23.3546L19.9638 19.5852V26.5271C19.9638 27.5264 20.2137 27.9458 21.3826 28.0708V28.4544H17.7064V28.0708C18.8396 27.9458 19.1252 27.5354 19.1252 26.5271V19.4781C19.1252 18.7732 18.8396 18.5145 17.7064 18.5145V18.1397H21.4273L24.1576 25.2779L27.1378 18.1486ZM32.1167 28.4009V28.0261C33.0804 28.0261 33.3659 27.8565 33.3659 26.8126V19.8261C33.3659 18.7376 33.0804 18.6483 32.1167 18.6126V18.2289H40.6825V20.4953H40.2632C39.933 19.3621 39.5136 18.9873 37.5061 18.9873H35.9535C35.4449 18.9873 35.3645 19.0677 35.3645 19.5227V22.7885H37.1491C38.7819 22.7885 39.1121 22.494 39.2906 21.4501H39.6653V25.0906H39.2906C39.0854 23.877 38.4519 23.5825 37.1491 23.5825H35.3645V27.1517C35.3645 27.7852 35.5341 27.9904 37.3722 27.9904C39.2103 27.9904 40.2988 27.6602 41.1822 25.849H41.557L40.8431 28.5882H32.0275V28.4009H32.1167ZM43.0025 25.1887H43.3772C43.7966 26.5271 45.1617 27.9904 46.643 27.9904C46.8766 28.0126 47.1124 27.9841 47.3342 27.9068C47.556 27.8296 47.7584 27.7054 47.9278 27.5428C48.0971 27.3801 48.2295 27.1829 48.3157 26.9646C48.402 26.7461 48.4401 26.5117 48.4275 26.2772C48.4275 23.8949 43.0739 23.4755 43.0739 20.5488C43.1154 19.8088 43.4449 19.1144 43.9918 18.6141C44.5387 18.1139 45.2596 17.8475 46.0005 17.872C47.5441 17.872 48.0884 18.4074 48.7576 18.4074C48.8996 18.4074 49.0358 18.351 49.1362 18.2506C49.2366 18.1501 49.293 18.014 49.293 17.872H49.6678V21.2626H49.293C49.1669 20.5723 48.8158 19.9431 48.2943 19.4734C47.7729 19.0036 47.1107 18.7198 46.4109 18.6662C46.2077 18.6445 46.0021 18.6665 45.808 18.7306C45.6139 18.7948 45.4357 18.8996 45.2854 19.0381C45.1351 19.1766 45.016 19.3456 44.9363 19.5338C44.8564 19.7221 44.8178 19.9251 44.8227 20.1295C44.8227 22.2263 50.1763 22.2709 50.1763 25.9025C50.1683 26.3033 50.0777 26.698 49.9102 27.0621C49.7428 27.4264 49.5022 27.7521 49.2033 28.0192C48.9044 28.2863 48.5537 28.4889 48.1731 28.6144C47.7925 28.7399 47.39 28.7857 46.9909 28.7489C45.2063 28.7489 44.7335 28.1242 44.0196 28.1242C43.7698 28.1242 43.6003 28.2938 43.4843 28.6597H42.9489L43.0025 25.1887Z" fill="#323334"/>
</g>
<defs>
<clipPath id="clip0_2101_16248">
<rect width="90.5142" height="28.3428" fill="white" transform="translate(0.280029 0.828552)"/>
</clipPath>
</defs>
</svg>
