<svg width="16" height="16" viewBox="0 0 16 16" fill="none" xmlns="http://www.w3.org/2000/svg">
<path d="M13 8.00004C13 7.84671 12.9934 7.70004 12.98 7.54671L14.22 6.60671C14.4867 6.40671 14.56 6.03337 14.3934 5.74004L13.1467 3.58671C12.98 3.29337 12.62 3.17337 12.3134 3.30671L10.88 3.91337C10.6334 3.74004 10.3734 3.58671 10.1 3.46004L9.90669 1.92004C9.86669 1.58671 9.58002 1.33337 9.24669 1.33337H6.76002C6.42002 1.33337 6.13335 1.58671 6.09335 1.92004L5.90002 3.46004C5.62669 3.58671 5.36669 3.74004 5.12002 3.91337L3.68669 3.30671C3.38002 3.17337 3.02002 3.29337 2.85335 3.58671L1.60669 5.74671C1.44002 6.04004 1.51335 6.40671 1.78002 6.61337L3.02002 7.55337C3.00669 7.70004 3.00002 7.84671 3.00002 8.00004C3.00002 8.15337 3.00669 8.30004 3.02002 8.45337L1.78002 9.39337C1.51335 9.59337 1.44002 9.96671 1.60669 10.26L2.85335 12.4134C3.02002 12.7067 3.38002 12.8267 3.68669 12.6934L5.12002 12.0867C5.36669 12.26 5.62669 12.4134 5.90002 12.54L6.09335 14.08C6.13335 14.4134 6.42002 14.6667 6.75335 14.6667H9.24002C9.57335 14.6667 9.86002 14.4134 9.90002 14.08L10.0934 12.54C10.3667 12.4134 10.6267 12.26 10.8734 12.0867L12.3067 12.6934C12.6134 12.8267 12.9734 12.7067 13.14 12.4134L14.3867 10.26C14.5534 9.96671 14.48 9.60004 14.2134 9.39337L12.9734 8.45337C12.9934 8.30004 13 8.15337 13 8.00004ZM8.02669 10.3334C6.74002 10.3334 5.69335 9.28671 5.69335 8.00004C5.69335 6.71337 6.74002 5.66671 8.02669 5.66671C9.31335 5.66671 10.36 6.71337 10.36 8.00004C10.36 9.28671 9.31335 10.3334 8.02669 10.3334Z" fill="white"/>
</svg>
