<svg width="80" height="80" viewBox="0 0 80 80" fill="none" xmlns="http://www.w3.org/2000/svg">
<path d="M71.0574 35.5245C68.8345 36.7453 68.5279 36.6639 65.9984 33.49C64.7337 31.903 62.741 29.9498 61.553 29.1359L59.4451 27.671L60.8246 26.2875C63.699 23.4798 61.1313 21.6894 57.4522 23.8867L55.3827 25.1075C52.8533 24.1309 48.4459 22.3811 45.7248 21.8928C43.2721 21.4452 43.4254 21.4859 43.4254 21.4452C43.4254 21.4859 43.4253 21.608 43.5786 18.5154C43.6553 17.2133 42.7355 16.1146 41.5475 16.0332C39.0564 15.8298 37.945 16.5215 38.4432 19.2072L38.7881 20.9569C38.7881 20.9569 31.0465 21.8521 29.2069 22.0963C25.6044 22.5846 25.3363 22.5032 25.3363 20.9569C25.3363 18.0271 18.1312 17.8236 20.239 22.0963C20.7372 23.1136 21.0438 24.0088 20.9672 24.1309C20.8905 24.2122 19.5875 24.9447 18.1312 25.7178C16.6749 26.491 14.2987 28.2407 12.919 29.5429L10.3514 31.9437L7.78357 30.6415C3.87447 28.6883 2.83982 30.1939 5.40756 34.1817C6.74892 36.2977 6.74888 36.2977 5.75245 37.844C3.22303 41.669 4.83255 45.5347 11.9609 52.8185C19.3192 60.3465 35.5305 66.4909 38.8264 62.9914C39.7079 62.0555 37.3701 58.9223 35.7988 58.9223C24.7614 58.9223 9.04828 47.8541 10.6579 41.2214C12.6125 33.1644 28.3255 22.666 45.5332 25.7992C55.3059 27.549 61.208 32.554 65.7303 42.849C66.5351 44.6802 67.2632 46.3485 67.3782 46.5113C68.298 48.2203 55.9959 54.6089 45.8015 57.7422C42.3523 58.8002 41.9307 59.085 41.9307 60.3058C41.9307 64.7005 51.0136 63.7646 57.4522 58.7188C64.9638 52.8592 74.2 49.3597 71.479 42.9711C70.9041 41.5876 70.674 40.4889 70.9806 40.3668C72.8969 39.6344 75.7712 37.437 75.9628 36.5825C76.3461 34.67 73.7017 34.0189 71.0574 35.5245Z" fill="black"/>
<path d="M52.9943 41.1062C52.8838 36.6184 51.079 32.4912 48.8321 31.1689C48.0586 30.7281 46.9535 31.2491 47.3587 32.5313C49.6056 39.9442 42.0914 40.7055 39.8445 39.1027C34.5036 35.216 37.0451 31.0888 40.3971 29.9267C42.2388 29.2856 41.5389 27.9232 37.082 28.0034C29.7888 28.1637 24.9634 34.8954 25.0002 40.7857C25.037 48.5192 30.5991 56.5331 40.176 55.9722C48.9058 55.5314 53.1785 50.0017 52.9943 41.1062Z" fill="black"/>
</svg>
