<svg width="16" height="16" viewBox="0 0 16 16" fill="none" xmlns="http://www.w3.org/2000/svg">
<path d="M13.3333 9.33337C14.0697 9.33337 14.6667 8.73642 14.6667 8.00004C14.6667 7.26366 14.0697 6.66671 13.3333 6.66671C12.597 6.66671 12 7.26366 12 8.00004C12 8.73642 12.597 9.33337 13.3333 9.33337Z" fill="white"/>
<path d="M2.66668 9.33337C3.40306 9.33337 4.00001 8.73642 4.00001 8.00004C4.00001 7.26366 3.40306 6.66671 2.66668 6.66671C1.9303 6.66671 1.33334 7.26366 1.33334 8.00004C1.33334 8.73642 1.9303 9.33337 2.66668 9.33337Z" fill="white"/>
<path d="M8.00001 14.6667C8.73639 14.6667 9.33334 14.0698 9.33334 13.3334C9.33334 12.597 8.73639 12 8.00001 12C7.26363 12 6.66668 12.597 6.66668 13.3334C6.66668 14.0698 7.26363 14.6667 8.00001 14.6667Z" fill="white"/>
<path d="M5.26001 9.76671L3.30001 11.72C3.04001 11.98 3.04001 12.4 3.30001 12.66C3.56001 12.92 3.98001 12.92 4.24001 12.66L6.20001 10.7067C6.46001 10.4534 6.46001 10.0267 6.20001 9.76671C5.94001 9.50671 5.52001 9.50671 5.26001 9.76671Z" fill="white"/>
<path d="M4.27334 3.29337C4.01334 3.03337 3.59334 3.03337 3.33334 3.29337C3.07334 3.55337 3.07334 3.97337 3.33334 4.23337L5.28668 6.19337C5.54668 6.45337 5.96668 6.45337 6.23334 6.19337C6.48668 5.93337 6.48668 5.51337 6.22668 5.25337L4.27334 3.29337Z" fill="white"/>
<path d="M10.7467 9.76671C10.4867 9.50671 10.0667 9.50671 9.80001 9.76671C9.54001 10.0267 9.54001 10.4467 9.80001 10.7067L11.76 12.6667C12.02 12.9267 12.44 12.9267 12.7 12.6667C12.96 12.4067 12.96 11.9867 12.7 11.7267L10.7467 9.76671Z" fill="white"/>
<path d="M10.7067 6.22004L12.7 4.23337C12.96 3.96671 12.96 3.54671 12.7 3.28671C12.44 3.02671 12.02 3.02671 11.76 3.28671L9.76668 5.27337C9.50668 5.53337 9.50668 5.95337 9.76668 6.22004C10.0267 6.48004 10.4467 6.48004 10.7067 6.22004Z" fill="white"/>
<path d="M8.00001 4.00004C8.73639 4.00004 9.33334 3.40309 9.33334 2.66671C9.33334 1.93033 8.73639 1.33337 8.00001 1.33337C7.26363 1.33337 6.66668 1.93033 6.66668 2.66671C6.66668 3.40309 7.26363 4.00004 8.00001 4.00004Z" fill="white"/>
</svg>
