<svg width="24" height="24" viewBox="0 0 24 24" fill="none" xmlns="http://www.w3.org/2000/svg">
<path d="M3.63 3.63503C3.24 4.02503 3.24 4.65503 3.63 5.04503L7.29 8.70503L7 9.00503H4C3.45 9.00503 3 9.45503 3 10.005V14.005C3 14.555 3.45 15.005 4 15.005H7L10.29 18.295C10.92 18.925 12 18.475 12 17.585V13.415L16.18 17.595C15.69 17.965 15.16 18.275 14.58 18.505C14.22 18.655 14 19.035 14 19.425C14 20.145 14.73 20.605 15.39 20.335C16.19 20.005 16.94 19.565 17.61 19.025L18.95 20.365C19.34 20.755 19.97 20.755 20.36 20.365C20.75 19.975 20.75 19.345 20.36 18.955L5.05 3.63503C4.66 3.24503 4.03 3.24503 3.63 3.63503ZM19 12.005C19 12.825 18.85 13.615 18.59 14.345L20.12 15.875C20.68 14.705 21 13.395 21 12.005C21 8.17503 18.6 4.89503 15.22 3.60503C14.63 3.37503 14 3.83503 14 4.46503V4.65503C14 5.03503 14.25 5.36503 14.61 5.50503C17.18 6.54503 19 9.06503 19 12.005ZM10.29 5.71503L10.12 5.88503L12 7.76503V6.41503C12 5.52503 10.92 5.08503 10.29 5.71503ZM16.5 12.005C16.5 10.235 15.48 8.71503 14 7.97503V9.76503L16.48 12.245C16.49 12.165 16.5 12.085 16.5 12.005Z" fill="black"/>
</svg>
