<svg width="16" height="16" viewBox="0 0 16 16" fill="none" xmlns="http://www.w3.org/2000/svg">
<path d="M11.3934 3.18377C10.9267 2.4971 10.3934 1.8571 9.79335 1.28377C9.56002 1.0571 9.16669 1.27044 9.23335 1.59044C9.36002 2.2171 9.49335 3.04377 9.49335 3.78377C9.49335 5.1571 8.59335 6.27044 7.22002 6.27044C6.19335 6.27044 5.35335 5.65044 4.98669 4.76377C4.92002 4.63044 4.89335 4.55044 4.85335 4.40377C4.78002 4.12377 4.41335 4.0371 4.25335 4.28377C4.13335 4.46377 4.02002 4.64377 3.91335 4.8371C3.12002 6.1971 2.66669 7.78377 2.66669 9.47711C2.66669 12.4238 5.05335 14.8104 8.00002 14.8104C10.9467 14.8104 13.3334 12.4238 13.3334 9.47711C13.3334 7.15044 12.6134 4.99044 11.3934 3.18377ZM7.80669 12.8104C6.62002 12.8104 5.66002 11.8771 5.66002 10.7171C5.66002 9.6371 6.36002 8.8771 7.53335 8.6371C8.51335 8.4371 9.52002 8.0171 10.22 7.3571C10.4067 7.18377 10.7134 7.26377 10.7667 7.51044C10.92 8.19044 11 8.8971 11 9.61044C11.0067 11.3771 9.57335 12.8104 7.80669 12.8104Z" fill="white"/>
</svg>
