<svg width="53" height="30" viewBox="0 0 53 30" fill="none" xmlns="http://www.w3.org/2000/svg">
<g clip-path="url(#clip0_2101_16246)">
<path d="M8.86787 1.37434V1.92227L9.37552 2.04314C10.1813 2.23652 10.278 2.71193 10.5922 4.20261L11.398 8.40874L9.13377 20.6807L6.02349 5.25817C5.66895 3.56604 5.55614 2.30904 6.82926 2.03507L7.41748 1.91421V1.37434H0.0527039V1.92227L0.802073 2.09954C1.55144 2.29293 1.86569 2.64746 2.37333 4.96809L7.36913 28.6175H8.65837L12.0024 10.7536L15.7089 28.6175H16.7322L21.5669 5.70134C22.1148 3.06647 22.3726 2.3171 23.2993 2.07536L24.0487 1.88197V1.37434H18.5855V1.92227L19.3912 2.08342C20.5677 2.31709 20.8497 3.06647 20.2937 6.11229L17.3527 20.6968L14.3713 5.27429C14.049 3.74331 13.8556 2.32516 15.1771 2.05119L16.0393 1.89004V1.34211L8.86787 1.37434ZM43.8707 1.44686V2.00284L44.8537 2.23652C45.7159 2.42991 46.0704 2.74415 46.0704 3.84807V22.9288C46.0704 25.056 46.0704 27.844 43.8707 27.844C42.6137 27.844 41.6307 26.7482 41.7032 25.9988C41.7837 24.7821 43.911 24.8546 44.0238 22.8885C44.0697 22.6419 44.0635 22.3886 44.0056 22.1446C43.9477 21.9006 43.8394 21.6714 43.6876 21.4718C43.5358 21.2722 43.344 21.1066 43.1242 20.9856C42.9046 20.8647 42.6621 20.791 42.4122 20.7693C41.1956 20.6082 39.6968 21.6315 39.6565 23.6782C39.6565 26.3131 41.3486 28.7143 44.2977 28.7143C47.5612 28.7143 49.6964 26.5064 49.6964 22.2681V3.88835C49.6964 2.78445 49.9704 2.42991 50.752 2.27681L51.6222 1.98672V1.4388L43.8707 1.44686ZM30.6157 1.29376C27.2717 1.29376 25.3862 4.0898 25.3862 7.73995C25.3862 14.5488 34.1611 17.1837 34.1611 23.3236C34.1611 26.2324 32.9364 27.844 31.1717 27.844C28.5368 27.844 26.6513 24.6612 26.1759 19.5848H25.5877V28.545H26.063C26.4579 27.2558 26.9655 27.1269 27.4006 27.1269C28.1501 27.1269 28.9316 28.6982 31.212 28.6982C34.7171 28.6982 36.9974 25.6765 36.9974 21.5026C36.9974 13.316 28.2548 11.3096 28.2548 5.45155C28.2548 4.11397 28.6497 2.14789 30.6157 2.14789C33.452 2.14789 34.6446 5.87862 35.1442 10.4071H35.7323V1.4388H35.2651C35.0635 2.30098 34.7091 2.69581 34.2014 2.69581C33.2909 2.69581 32.8316 1.28571 30.656 1.28571L30.6157 1.29376ZM36.9491 9.01308V9.10977V9.0292V9.01308Z" fill="#323334"/>
</g>
<defs>
<clipPath id="clip0_2101_16246">
<rect width="52.1142" height="28.3428" fill="white" transform="translate(0.0171509 0.828552)"/>
</clipPath>
</defs>
</svg>
