<svg width="200" height="270" viewBox="0 0 200 270" fill="none" xmlns="http://www.w3.org/2000/svg">
<path fill-rule="evenodd" clip-rule="evenodd" d="M127.401 129.125C123.042 125.071 124.441 121.16 122.984 116.219C120.167 110.107 114.356 104.086 107.628 102.782C104.268 100.814 99.876 101.93 97.5804 105.016C95.4243 105.588 95.353 108.57 94.6322 110.335C93.3 113.8 92.2815 117.331 91.4463 120.931C65.4928 126.336 45.5862 144.014 41.4361 170.827C40.7266 174.723 40.1459 178.646 39.6005 182.568C39.281 185.947 37.5891 191.31 41.067 193.496C41.1665 195.92 41.4574 198.368 42.3799 200.65C42.7341 202.924 43.0204 205.213 43.769 207.404C45.4193 211.2 45.6737 215.363 47.5271 219.146C48.8222 221.937 50.7234 224.177 53.0746 226.129C54.0679 227 55.4322 227.944 55.6408 229.307C55.5785 231.361 57.1361 234.329 59.5961 233.364C61.342 234.021 63.217 234.192 65.0665 234.179C96.4082 232.823 127.816 232.708 159.158 234.224C160.258 234.275 161.301 233.221 161.255 232.126C160.756 220.19 159.522 208.289 157.581 196.502C153.249 172.094 148.621 144.794 127.401 129.125V129.125Z" fill="white"/>
<path fill-rule="evenodd" clip-rule="evenodd" d="M93.8696 116.999L93.9868 116.676C94.6965 114.714 95.5661 114.567 95.1471 116.47L95.0837 116.756C94.7208 118.384 94.2866 120.066 93.3972 121.489C91.8638 123.945 87.846 124.855 85.1666 125.728C85.1752 125.79 85.1752 125.852 85.1682 125.91C86.8055 126.16 88.4868 126.949 89.8583 127.833C91.1136 128.645 92.2474 129.556 93.0925 130.766L97.2265 128.969C98.5909 128.377 99.9657 127.673 101.448 127.435C103.538 127.101 106.76 128.221 106.513 130.857C106.482 131.213 106.258 131.477 105.983 131.608C106.193 131.59 106.404 131.585 106.614 131.592C108.011 131.639 109.987 132.877 109.256 134.51C109.07 134.931 108.531 134.655 108.489 134.302C108.212 131.986 105.82 132.531 104.16 132.909C102.658 133.251 101.174 133.67 99.7212 134.182C98.1682 134.73 96.6664 135.428 95.2809 136.324C93.8515 137.25 92.5152 138.374 92.6032 140.224C92.6066 140.262 92.5451 140.282 92.5273 140.245C91.7897 138.67 93.2263 137.009 94.3937 136.102C96.0837 134.79 98.0627 133.846 100.063 133.11C101.091 132.732 102.151 132.435 103.215 132.172L103.461 132.111C104.086 131.96 104.733 131.786 105.385 131.68C105.144 131.621 104.934 131.446 104.84 131.13L104.828 131.086C103.888 127.361 98.8495 130.357 96.8092 131.257C95.3495 131.9 93.8724 132.516 92.4289 133.198L92.2429 133.287C91.1237 133.824 89.9574 134.459 89.2052 135.47C87.2756 138.059 89.008 141.555 89.6171 144.289C89.7914 145.072 89.9587 145.904 89.9692 146.709C89.9777 147.368 89.7758 147.989 89.6123 148.623L89.5169 148.996V148.996C89.6013 148.998 89.6875 149.086 89.6594 149.176C88.9747 151.413 87.8161 153.534 86.6875 155.573C85.5361 157.655 84.3513 159.726 83.0802 161.736C78.559 168.883 73.383 175.63 67.7052 181.895C64.9833 184.898 62.0397 187.7 59.383 190.763C58.1471 192.188 56.9905 193.681 56.0256 195.309C55.5044 196.187 55.0361 197.1 54.6418 198.046L54.5639 198.233C54.2406 199.006 53.9229 199.687 53.3214 200.305C53.0222 200.613 52.4235 200.483 52.3284 200.043C51.8865 197.972 53.3515 195.735 54.4148 194.044C55.5625 192.219 56.9041 190.518 58.3302 188.903C58.7333 188.445 59.1435 187.994 59.559 187.548C57.7 188.059 55.7421 188.195 53.8478 188.53C51.9076 188.871 49.9798 189.278 48.0997 189.87C46.3724 190.412 44.728 191.129 43.156 192.027C42.4023 192.459 41.6648 192.933 40.9747 193.463C40.9094 193.512 40.846 193.565 40.7826 193.616C41.9094 196.448 42.7756 199.386 43.6805 202.29C44.2983 204.276 44.9022 206.267 45.5021 208.259L46.8495 212.742C47.8215 215.973 48.6312 219.489 50.3444 222.429C51.0839 223.696 52.0837 224.843 53.228 225.762C53.7828 226.21 54.3867 226.55 55.0133 226.879C55.4076 227.087 55.7562 227.356 56.1224 227.603C56.3635 227.328 56.7291 227.157 57.1778 227.229L57.228 227.238C58.6453 227.517 60.1067 227.015 61.3671 226.395C62.6805 225.747 63.9888 224.986 65.0995 224.028C67.2844 222.141 69.096 219.79 70.862 217.522C77.1576 209.427 82.5187 200.561 86.8883 191.286C89.1083 186.569 91.1807 181.773 93.1277 176.937C94.1015 174.521 95.0608 172.099 95.9956 169.667L96.119 169.341C96.9566 167.109 97.6898 164.687 99.0361 162.718C99.0467 162.701 99.061 162.687 99.0766 162.676C99.0802 162.62 99.0979 162.567 99.1261 162.521C99.5434 161.854 100.342 161.658 101.035 161.348C101.814 160.997 102.592 160.649 103.371 160.3C103.983 160.025 104.881 159.793 105.341 159.272C105.862 158.685 106.036 157.641 106.29 156.915C106.864 155.275 107.485 153.655 108.107 152.033C108.652 150.608 109.124 149.079 109.89 147.751C110.544 146.619 111.478 146.021 112.558 145.369L112.792 145.227C113.244 144.952 113.725 144.622 113.904 144.107C114.196 143.265 113.547 142.46 112.857 142.059C111.323 141.169 109.487 142.196 108.142 142.98C106.79 143.769 105.471 144.717 104.026 145.328C103.994 145.34 103.971 145.293 103.994 145.271C105.156 144.207 106.576 143.329 107.91 142.464L108.242 142.247C109.128 141.668 110.137 141.103 111.203 140.946C110.982 140.872 111.05 140.585 111.261 140.558C113.36 140.303 115.491 140.631 117.568 140.141C119.422 139.704 121.04 138.656 122.335 137.277C123.557 135.977 124.526 134.473 125.429 132.941C125.954 132.05 126.466 131.151 126.997 130.264C127.077 130.13 127.156 129.982 127.237 129.823C126.286 129.603 125.318 128.895 124.672 128.346C123.668 127.493 122.936 126.341 122.425 125.14C121.228 122.321 121.323 119.096 122.219 116.211C122.274 116.035 122.535 116.026 122.586 116.211C123.274 118.682 123.335 121.361 124.416 123.717C124.85 124.661 125.454 125.51 126.196 126.232C126.573 126.597 126.953 126.903 127.415 127.157C127.909 127.43 128.438 127.52 128.83 127.953C128.853 127.978 128.874 128.002 128.894 128.029C129.124 127.998 129.322 128.031 129.48 128.13L129.513 128.152L129.52 128.142C128.811 127.657 128.098 127.178 127.342 126.755C127.142 126.643 127.288 126.373 127.489 126.408L127.986 126.496C129.646 126.792 131.337 127.129 132.853 127.867C134.535 128.687 136.14 129.635 137.672 130.708C140.689 132.817 143.436 135.31 145.839 138.098C150.272 143.242 153.406 149.428 155.344 155.913C157.767 164.016 158.703 172.529 159.726 180.9C160.215 184.907 160.654 188.921 161.044 192.941L161.149 194.037C161.344 196.105 161.555 198.169 161.754 200.231C162.107 200.784 162.131 201.441 161.923 202.012C162.077 203.683 162.214 205.357 162.323 207.035C162.601 211.366 162.781 215.711 162.858 220.052C162.936 224.456 162.776 228.852 162.725 233.255C162.704 235.108 159.897 235.101 159.853 233.255C159.741 228.39 159.392 223.524 159.144 218.663C158.901 213.918 158.675 209.175 158.385 204.434C158.357 203.983 158.33 203.53 158.306 203.079C157.896 203.235 157.389 203.3 156.959 203.385L156.853 203.407C155.988 203.591 155.122 203.723 154.243 203.804L153.958 203.828C153.161 203.883 149.075 203.97 146.659 203.53C146.851 206.632 147.045 209.733 147.258 212.833C147.501 216.368 147.547 219.908 147.725 223.446C147.814 225.215 147.922 226.971 148.147 228.728C148.25 229.528 148.355 230.33 148.481 231.127L148.545 231.525C148.658 232.21 148.798 232.797 148.508 233.408C148.761 234.192 148.367 235.18 147.329 235.101C140.67 234.602 133.996 234.391 127.32 234.361C115.794 234.306 104.274 234.768 92.7534 235.085L89.6398 235.17C78.8482 235.465 68.0033 235.78 57.2617 234.586C57.2386 235.962 54.6682 235.946 54.8055 234.412L54.8392 234.042C54.9939 232.373 55.1944 230.644 55.7122 229.037C55.2826 229.049 54.8513 229.031 54.4464 228.897C53.8708 228.709 53.3178 228.367 52.8178 228.029C51.7052 227.279 50.765 226.354 49.9536 225.287C48.3601 223.193 47.302 220.711 46.4657 218.233C45.5765 215.592 44.763 212.92 44.0029 210.239L43.1848 207.336C42.1463 203.643 41.1266 199.895 40.508 196.105C40.4412 196.193 40.3495 196.268 40.2282 196.323C36.9182 197.803 34.0872 194.768 33.5273 191.7C33.1977 189.89 33.275 188.039 33.3027 186.207L33.3055 186.011C33.3337 183.901 33.3425 181.791 33.45 179.683C33.8055 172.634 35.4481 165.804 38.0027 159.238C40.4094 153.058 43.3178 146.828 47.0645 141.339C48.8442 138.732 50.8971 136.227 53.3706 134.246C55.9798 132.159 58.9131 130.572 61.9853 129.279C65.1243 127.958 68.3794 126.914 71.6384 125.928C75.2335 124.839 78.8708 123.904 82.5698 123.247C82.839 123.199 83.103 123.279 83.2529 123.525C83.383 123.742 83.5044 123.964 83.6224 124.189C84.1277 123.872 84.9041 123.795 85.4095 123.64C86.9956 123.148 89.8495 122.854 91.1067 121.734C92.5401 120.458 93.2292 118.756 93.8696 116.999ZM40.2245 194.107C40.0011 194.312 39.7773 194.516 39.5469 194.708C39.8478 194.581 40.1206 194.666 40.3214 194.852C40.2863 194.604 40.2545 194.356 40.2245 194.107ZM112.992 146.475C112.651 146.686 112.313 146.897 112.004 147.151C110.898 148.066 110.524 149.561 110.062 150.865L110.033 150.948C109.466 152.526 108.894 154.108 108.293 155.673C108.105 156.165 107.929 156.691 107.74 157.222C110.279 159.662 112.874 162.077 115.591 164.319C120.563 168.421 125.98 171.984 131.737 174.887C134.697 176.38 137.753 177.74 140.897 178.795C142.033 179.176 143.189 179.51 144.364 179.758L144.366 179.741V179.741C144.371 179.699 144.439 179.679 144.447 179.73L144.454 179.778V179.778C144.957 179.882 145.464 179.97 145.973 180.039C146.938 180.167 147.913 180.225 148.886 180.217C149.49 180.211 150.089 180.137 150.684 180.167C148.049 177.791 145.399 175.433 142.742 173.085C137.707 168.633 132.644 164.215 127.571 159.805C125.319 157.847 123.042 155.912 120.8 153.94L118.64 152.032C116.732 150.343 114.835 148.628 113.182 146.698L112.992 146.475ZM90.4868 159.564C90.3337 159.376 90.5662 159.136 90.7546 159.296C91.8796 160.249 93.1506 160.667 94.5009 161.179C94.8161 161.299 94.7916 161.801 94.4183 161.796C92.8495 161.767 91.4358 160.753 90.4868 159.564ZM106.248 136.104L106.36 136.059C107.946 135.437 110.004 135.127 111.253 136.571C112.158 137.619 112.388 139.602 111.209 140.516C110.925 140.736 110.325 140.548 110.505 140.106C111.022 138.843 111.131 137.189 109.503 136.703C108.09 136.281 106.438 137.104 105.152 137.677L104.784 137.839C102.275 138.953 99.783 140.303 98.2458 142.663C98.2053 142.723 98.0977 142.684 98.1243 142.612C99.3512 139.213 103.108 137.383 106.248 136.104ZM87.6613 128.825L87.0514 128.594C85.5003 128.015 83.5689 127.427 82.6067 129.094C82.2462 129.718 81.9359 130.489 81.8018 131.207L81.7846 131.305C81.7476 131.526 81.6999 131.764 81.8585 131.935C82.103 132.203 82.8988 132.333 83.2192 132.449L85.2342 133.181V133.181L86.2404 133.549C86.6981 133.716 87.2897 133.883 87.6277 134.251C88.8108 132.698 90.6928 131.814 92.4692 131.037C90.8689 130.292 89.318 129.448 87.6613 128.825Z" fill="black"/>
<path fill-rule="evenodd" clip-rule="evenodd" d="M91.811 42.9513C118.496 41.6385 136.602 62.6912 137.381 71.0863C137.921 76.9139 137.554 84.6859 137.554 89.8933C137.554 92.5513 138.895 100.631 137.381 104.505C134.01 113.128 130.201 119.882 119.649 119.882C109.097 119.882 93.0101 114.411 87.4862 107.354C86.4777 106.065 73.9451 96.6338 73.9451 89.2203C73.9451 73.4033 72.7702 43.888 91.811 42.9513Z" fill="white"/>
<path fill-rule="evenodd" clip-rule="evenodd" d="M73.6067 25.8681C75.1274 25.3926 76.098 26.0772 76.7905 27.1378C76.9431 27.108 77.0908 27.11 77.2552 27.1496C77.2959 27.1595 77.3943 27.1966 77.4688 27.2259C77.5264 27.25 77.5783 27.2792 77.6283 27.3102L77.6581 27.2946V27.2946C77.7721 27.17 77.892 27.0564 78.0214 26.9648C78.3123 26.7591 78.6119 26.6992 78.8963 26.7415L79.028 26.6931V26.6931C80.1537 26.3007 81.3741 26.4828 82.1373 27.4529C82.285 27.6403 82.4044 27.849 82.5063 28.0692C82.7352 28.1442 82.95 28.2527 83.135 28.3862C83.2649 28.3251 83.4022 28.2736 83.5493 28.2358C84.3797 28.0227 85.2522 28.2238 85.929 28.7331C86.2586 28.981 86.501 29.2913 86.6848 29.6456C86.8941 29.6948 87.101 29.7832 87.2949 29.9019C87.4614 29.819 87.6306 29.7411 87.804 29.6877C88.438 29.4929 89.1181 29.4213 89.778 29.4704C91.1999 29.5759 92.575 31.2006 91.6247 32.5958L91.5952 32.638C91.4746 32.8062 91.3697 32.9801 91.2725 33.1567C91.6128 33.3048 91.9406 33.503 92.2434 33.7513C93.7246 34.9657 93.858 36.8379 93.5809 38.604L93.5691 38.6775H93.5727C94.3597 38.7523 95.0391 39.5745 94.5742 40.348L94.5515 40.3842C93.9221 41.3569 93.3827 42.4315 92.7815 43.4551C91.1176 44.0552 89.5132 44.7942 88.0024 45.6896C87.0614 46.5142 86.1655 47.386 85.3772 48.356C84.9838 48.8403 84.6223 49.353 84.2901 49.8846C84.5558 50.0122 84.8843 50.0057 85.1618 49.7486C87.6299 47.4605 90.6118 45.8548 93.7868 44.7787C94.0155 44.701 94.1655 44.5548 94.2496 44.3819C95.6591 43.9801 97.0934 43.6686 98.542 43.4481C98.9413 43.0674 99.3596 42.7036 99.7572 42.3246C100.265 41.8409 100.9 41.848 101.375 42.1518C101.611 42.0442 101.853 41.9492 102.098 41.8639L102.25 41.812C102.313 41.7912 102.374 41.7671 102.436 41.7481C104.136 41.2283 105.69 41.4213 107.362 41.8484L107.576 41.9041C108.356 42.111 108.846 42.0779 109.601 41.8875L109.686 41.8657C110.488 41.6565 111.346 41.5015 112.165 41.7219C113.023 41.9525 113.592 42.4653 114.176 43.0849L114.235 43.1472C114.507 43.439 114.665 43.4708 115.022 43.4637L115.404 43.4524C116.847 43.4128 118.259 43.4737 119.34 44.5899C119.739 45.0027 120.168 45.5869 120.425 46.1201L120.462 46.1997C120.474 46.2256 120.485 46.2472 120.495 46.2666C120.65 46.2416 120.891 46.1435 121.006 46.1211C122.578 45.8161 123.89 46.2861 124.899 47.5255C125.12 47.7968 125.454 48.3294 125.685 48.6221C125.766 48.6908 125.842 48.7644 125.915 48.8417C126.294 49.0839 126.831 49.0686 127.256 49.1535C128.414 49.3842 129.652 49.8248 130.241 50.9276C130.487 51.3878 130.578 51.8913 130.682 52.3943C131.071 52.6502 131.377 53.0191 131.614 53.4183C131.902 53.903 132.024 54.4967 132.356 54.9545C132.597 55.287 132.965 55.4646 133.315 55.6678L133.449 55.7464C134.486 56.3646 135.299 57.0506 135.641 58.2618L135.67 58.3695C135.726 58.555 135.92 59.0846 135.751 59.005C135.897 59.0855 136.145 59.1139 136.278 59.1579C136.997 59.3962 137.623 59.7812 138.007 60.4574C138.299 60.972 138.352 61.5084 138.435 62.0757L138.471 62.3048C138.48 62.3601 138.491 62.4245 138.502 62.4869L138.513 62.5483L138.515 62.5497C138.646 62.6061 138.774 62.6672 138.9 62.7331C139.496 63.0844 139.904 63.6944 139.904 64.4004C139.904 64.7432 139.797 65.0102 139.641 65.2485C139.767 65.4394 139.865 65.6428 139.939 65.8695C140.083 66.3121 140.093 66.7961 140.045 67.254C139.986 67.8035 139.845 68.3039 139.679 68.8288C139.615 69.0313 139.59 69.3143 139.493 69.5077C139.671 69.7344 139.777 70.0114 139.744 70.2848C139.697 70.6758 139.519 71.1328 139.165 71.3521C138.992 72.2063 138.619 73.0792 138.252 73.7775C138.21 73.8585 138.159 73.9308 138.103 73.9906C138.154 76.7787 137.949 79.5863 137.935 82.3707C137.92 85.4018 137.983 88.4348 138.089 91.4623C138.266 96.4801 138.902 101.669 137.421 106.562C136.21 110.567 133.784 114.005 130.53 116.611C127.199 119.278 123.184 120.821 118.92 121.062C116.75 121.183 114.545 120.937 112.446 120.375L112.222 120.314C110.191 119.756 107.84 118.904 106.346 117.411C105.557 116.622 106.354 114.951 107.511 115.41C108.657 115.866 109.686 116.541 110.823 117.016C111.839 117.441 112.899 117.767 113.972 118.006C116.125 118.49 118.409 118.596 120.597 118.295C128.499 117.214 134.655 110.65 135.87 102.866C136.206 100.711 136.2 98.5202 136.177 96.3422L136.152 93.9558C136.133 91.9594 136.126 89.9619 136.199 87.9664C136.293 85.3984 136.474 82.8321 136.717 80.275L136.844 78.9443C136.994 77.3874 137.163 75.8186 137.455 74.283C137.216 74.2955 135.331 71.0696 134.285 69.267C133.903 68.964 133.58 68.5876 133.456 68.1007C133.43 67.999 133.417 67.8965 133.409 67.7938C133.181 67.4368 132.942 67.089 132.689 66.7515L132.634 66.7269C132.591 66.7075 132.558 66.6913 132.539 66.6804C131.987 66.3674 131.527 65.8933 131.211 65.3438C131.105 65.1585 131.018 64.9651 130.947 64.7673C130.497 64.3258 130.027 63.9045 129.532 63.5094C129.484 63.4707 129.433 63.4344 129.384 63.3962C128.755 63.1612 128.203 62.8072 127.8 62.2973C127.631 62.1931 127.462 62.0909 127.291 61.9909C126.778 61.9861 126.26 61.8665 125.755 61.6592C124.833 61.2802 124.096 60.5311 123.169 60.184C122.189 59.8171 121.157 60.6509 120.115 60.5005C119.849 60.4621 119.586 60.3813 119.341 60.264C118.754 60.8853 118.132 61.4711 117.446 61.9838C116.45 62.7281 115.432 63.0682 114.277 63.4045C113.705 63.9475 113.065 64.4739 112.292 64.5512C110.505 65.9806 108.593 67.1864 106.581 68.3058C106.258 68.4858 105.936 68.567 105.631 68.5692C105 68.9654 104.311 69.2703 103.584 69.4813C103.356 69.5474 103.121 69.5613 102.889 69.5329L102.258 70.0474V70.0474C101.819 70.4053 101.35 70.5763 100.902 70.5874C100.629 70.7964 100.346 70.9942 100.055 71.1844C99.7431 71.3886 99.3387 71.4731 98.9324 71.4484C98.3118 72.0557 97.507 72.1195 96.8331 71.8398C96.7405 71.894 96.6452 71.9455 96.5382 71.996C96.3927 72.0649 96.241 72.123 96.0862 72.17C95.3834 72.9277 94.3547 73.3251 93.3239 73.2211C92.5542 73.6928 91.6582 73.9382 90.7824 73.883C90.6487 74.5544 90.5382 75.2283 90.4447 75.9044L90.4351 76.3997C90.4341 76.48 90.4339 76.5425 90.435 76.5838L90.4355 76.6001C90.5213 78.7716 90.5681 80.9441 90.6528 83.1159L90.6606 83.2873C90.7569 85.1847 91.2236 88.644 88.4357 88.5687C87.3968 88.5406 86.3661 87.7753 85.5571 87.1461L85.4431 87.0572C85.3811 87.0089 85.3176 86.9594 85.2537 86.9091C84.6491 86.8305 84.053 86.6835 83.4424 86.6611C82.6889 86.6347 81.8966 86.7122 81.1625 86.883C79.8667 87.1842 78.6132 87.7744 77.7681 88.8433C77.6941 88.9366 77.6255 89.0353 77.5603 89.1339C77.5005 89.3364 77.3984 89.5231 77.2628 89.6852C76.4635 91.4834 76.925 93.8595 77.8086 95.5043C78.8615 97.4637 80.5275 98.8182 82.6225 99.5005L82.7276 99.5341C84.1589 99.9814 84.7065 100.848 85.4846 102.053C86.2135 103.183 87.0498 104.237 87.9477 105.237C89.6853 107.173 92.1239 108.77 93.1343 111.22C93.3385 111.713 92.754 112.178 92.3015 112.051C90.5287 111.553 89.2857 110.29 87.997 109.034C87.1051 108.165 86.2473 107.26 85.4426 106.31C85.2737 106.388 85.088 106.44 84.8945 106.464C84.0406 106.568 83.16 106.525 82.4125 106.065C82.0679 106.096 81.7089 105.976 81.4424 105.732C81.1978 105.507 80.9869 105.264 80.8088 105.006C80.538 105.029 80.2721 105.037 80.0184 104.994C79.8961 104.983 79.7776 104.951 79.669 104.898C79.4672 104.818 79.2758 104.695 79.1001 104.507C78.7442 104.124 78.6077 103.584 78.6734 103.071C78.603 103.056 78.5331 103.038 78.464 103.015C77.9901 102.854 77.6253 102.536 77.3922 102.102C76.9751 101.868 76.5996 101.551 76.3153 101.214C75.969 100.803 75.7077 100.341 75.5542 99.8305C75.3956 99.7567 75.2415 99.6713 75.094 99.5712C74.0368 98.8556 73.4315 97.5122 73.8466 96.27L73.8607 96.2309C73.8818 96.175 73.92 96.0797 73.9667 95.9721C73.96 95.8846 73.953 95.7971 73.9482 95.7093L73.9336 95.4448V95.4448L73.7218 95.3548V95.3548C72.6655 94.9346 71.9514 94.3673 71.8244 93.1783C71.798 92.9324 71.8934 92.6816 72.044 92.472L72.0433 92.4061V92.4061C71.9746 92.3705 71.9093 92.3341 71.8517 92.2974C71.2758 91.9295 70.922 91.2701 70.9616 90.5882C70.998 89.9665 71.3422 89.471 71.7292 89.0127L71.8398 88.8842C71.8489 88.8737 71.8592 88.8621 71.8702 88.8496L71.6143 88.7691C71.4484 88.7162 71.2963 88.6636 71.1869 88.6023C70.7637 88.3651 70.4049 88.0444 70.1836 87.6368C70.1514 87.5863 70.1186 87.5366 70.089 87.4827C69.8033 86.9612 69.766 86.293 69.9503 85.7331C69.9721 85.667 70.0003 85.6049 70.0292 85.543C69.251 85.2686 68.6519 84.7015 68.5797 83.6564C68.5514 83.2453 68.6413 82.8358 68.8369 82.4852C68.7936 82.249 68.7846 82.0042 68.8126 81.762C68.5389 81.5033 68.3262 81.1915 68.2311 80.8113C68.0514 80.0928 68.3804 79.4093 68.8695 78.7825C68.6885 78.2869 68.6792 77.7277 68.8859 77.2287C68.8063 76.9797 68.7611 76.7164 68.7586 76.446C68.7531 75.8473 68.9375 75.3473 69.2352 74.922C68.8167 74.4102 68.6179 73.73 68.8651 73.0926C69.041 72.6396 69.242 72.2252 69.4737 71.8412C69.3521 71.5492 69.2813 71.2221 69.2813 70.856C69.2813 70.1973 69.5281 69.6754 69.9058 69.2483C69.7419 68.4682 70.0751 67.5182 70.8015 67.1748C71.0753 67.0451 71.4419 66.9099 71.8457 66.8046C71.9973 66.3308 72.1556 65.8589 72.3227 65.3904C72.5859 64.653 72.869 63.9258 73.169 63.207C72.9963 63.3583 72.8151 63.4994 72.6278 63.6273C72.0353 64.3807 71.25 65.0334 70.5899 65.4239C69.2815 66.1982 67.785 65.7388 67.139 64.4434C66.532 64.8968 65.8035 65.1652 65.0262 65.0734C64.1449 64.9693 63.339 64.3983 63.119 63.5077C63.0871 63.3787 63.0679 63.2394 63.066 63.0992C62.5605 63.4592 62.0317 63.7905 61.4515 63.9802C60.7126 64.2219 59.9584 63.6422 59.8609 62.9201C59.8223 62.6339 59.8758 62.381 59.9897 62.1674L59.9176 62.1389C59.9056 62.1339 59.8937 62.1287 59.8818 62.1231C59.4943 61.9416 59.1934 61.6087 59.0505 61.2247C58.2114 61.5495 57.2508 61.1689 56.9846 60.2458C56.6677 59.1486 56.6486 58.0372 56.8966 56.9683C56.0075 56.3219 55.4283 55.2352 55.3297 54.0992C55.2577 53.2838 55.4522 52.531 55.795 51.835C54.9542 51.5204 54.6651 50.4179 55.0647 49.6235C54.5339 49.3195 54.1878 48.6751 54.1801 48.0477C53.9429 47.6884 53.867 47.2258 54.0637 46.7073C54.323 46.0241 54.8512 45.4525 55.4559 45.0043C55.1922 44.545 54.9963 44.0441 54.8746 43.5264C54.3736 43.3797 53.9692 42.9743 53.8868 42.3654C53.7836 41.6021 54.2859 40.955 54.9619 40.7842C55.0369 40.5517 55.1285 40.3243 55.2417 40.1059C54.9072 39.3133 54.9565 38.3112 55.3878 37.4447C55.7699 36.6785 56.3913 36.21 57.1396 35.8859C56.9494 35.2343 57.2012 34.5844 57.835 34.1C58.6088 33.5081 59.4574 33.0556 60.3491 32.7359C60.2699 31.6751 60.7132 30.5888 61.7609 30.2189C62.041 30.1201 62.3325 30.0837 62.6288 30.0849C62.844 29.6169 63.203 29.2365 63.6714 28.8998C64.3804 28.3904 65.7052 28.7016 66.0984 29.5003L66.1176 29.5414C66.1376 29.5866 66.1593 29.628 66.1799 29.6719C66.2591 29.2841 66.4443 28.9177 66.742 28.6174C67.4862 27.8666 68.272 27.8525 69.0281 28.1736C69.1669 27.8294 69.3348 27.5022 69.539 27.203C70.2804 26.1173 71.5052 25.9791 72.4021 26.567C72.7616 26.2508 73.1628 26.0071 73.6067 25.8681ZM78.9073 91.1523C80.4001 90.5676 82.2117 90.7403 83.6871 91.302L83.7952 91.3441C85.0983 91.8595 87.2154 93.0059 87.4705 94.4723C87.6026 95.2315 86.8809 95.8883 86.1483 95.4887C85.511 95.1415 85.1536 94.4423 84.6466 93.9351C84.145 93.4333 83.5832 93.03 82.9707 92.6758C81.6925 91.9378 80.349 91.6507 78.9073 91.4378C78.7453 91.4149 78.7893 91.1981 78.9073 91.1523Z" fill="black"/>
<path fill-rule="evenodd" clip-rule="evenodd" d="M119.293 106.895C118.11 106.412 117.054 105.607 116.282 104.577C116.014 104.22 115.944 103.842 116 103.496C116.064 103.108 116.293 102.756 116.607 102.519C116.921 102.282 117.314 102.165 117.694 102.225C118.025 102.277 118.354 102.458 118.614 102.833L118.668 102.908C119.127 103.529 119.725 104.039 120.407 104.367C121.064 104.684 121.798 104.832 122.558 104.746C124.006 104.582 125.004 103.799 126.065 102.735C126.196 102.601 126.328 102.462 126.46 102.322C126.544 102.194 126.66 102.112 126.788 102.069C126.931 102.021 127.093 102.024 127.241 102.076C127.383 102.126 127.511 102.22 127.596 102.346C127.678 102.465 127.724 102.613 127.709 102.782C127.612 103.885 127.036 104.869 126.217 105.641C125.308 106.499 124.104 107.093 122.969 107.301C121.72 107.53 120.446 107.366 119.293 106.895V106.895ZM123.559 89.8887C124.888 90.6972 126.914 92.5823 125.484 94.5864C123.8 96.3536 121.377 94.3274 120.182 93.4111C119.075 92.7009 117.83 94.5274 118.858 95.3567C127.489 101.749 130.991 90.1001 124.231 88.9382C123.487 88.8102 123.211 89.6387 123.559 89.8887ZM108.092 82.4526C108.239 80.6286 111.016 80.2144 111.292 82.0193C111.539 83.6362 111.248 85.1214 110.52 86.5771C109.825 87.9678 108.076 87.319 107.944 86.0526C107.767 84.3552 108.001 83.5872 108.092 82.4526ZM129.23 81.6451C129.617 81.1378 130.176 80.7916 130.846 80.9873C132.938 81.5989 132.322 84.5707 131.587 86.0172C131.187 86.8027 129.897 87.0019 129.314 86.3103C128.363 85.1824 127.908 82.9299 129.116 81.8189C129.149 81.7615 129.185 81.7036 129.23 81.6451ZM110.491 74.4713L110.821 74.4135C111.844 74.2365 113.115 74.0666 113.839 74.8889C114.222 75.325 114.354 76.1355 113.839 76.553C112.931 77.2874 111.929 77.0028 110.842 77.065C109.946 77.1164 109.085 77.2647 108.222 77.5114C106.329 78.0527 104.787 79.0407 103.17 80.1257C102.958 80.268 102.741 79.9966 102.843 79.7981C103.776 77.9694 105.584 76.4672 107.396 75.5515C108.363 75.0628 109.421 74.6573 110.491 74.4713ZM127.323 73.6522L127.576 73.7039C130.329 74.2796 133.906 75.4296 135.209 78.1348C135.259 78.5173 135.206 78.5993 135.164 78.6529L135.15 78.6707C135.114 78.7164 135.086 78.7795 134.921 78.8315C134.875 78.8206 134.828 78.809 134.781 78.7967C134.184 78.64 133.711 78.4242 133.253 78.2002L132.757 77.9556C132.181 77.6732 131.6 77.401 130.984 77.2001C129.671 76.7714 128.319 76.4694 126.947 76.3082C126.65 76.2733 126.363 76.1728 126.137 76.0007C125.923 75.8374 125.759 75.6112 125.684 75.3106C125.588 74.9215 125.615 74.6269 125.824 74.2759C125.981 74.0123 126.205 73.8296 126.463 73.7247C126.726 73.6178 127.025 73.5926 127.323 73.6522Z" fill="black"/>
</svg>
