<svg width="200" height="270" viewBox="0 0 200 270" fill="none" xmlns="http://www.w3.org/2000/svg">
<path fill-rule="evenodd" clip-rule="evenodd" d="M42.918 237.401C53.6982 237.703 63.8818 238.036 74.6413 237.401C91.8589 236.336 142.387 238.256 153.493 237.401C154.331 237.337 157.214 238.256 157.274 237.401C157.762 231.447 158.079 171.206 156.628 167.061C155.178 162.916 148.018 142.99 138.895 133.699C136.351 131.188 132.48 130.216 130.341 127.315C128.498 124.152 128.641 122.296 126.82 120.632C126.03 119.909 124.166 119.617 122.782 118.614C121.39 117.23 122.708 114.183 122.136 112.256C120.958 107.443 116.619 104.355 111.876 103.627C105.284 102.05 98.3254 103.541 95.1679 108.721C93.9925 110.65 94.618 112.993 93.1725 116.083C93.2757 118.418 90.5509 118.982 88.9222 119.907L85.6877 123.177C75.7229 128.786 64.0005 131.815 55.2693 139.351C47.8461 146.884 40.4627 155.591 37.169 165.784C36.4871 168.561 36.2646 171.431 35.982 174.269C35.1753 182.563 32.929 190.612 30.9959 198.691C28.7917 208.869 26.737 219.673 29.7078 229.948C30.5643 232.122 40.9681 237.3 42.918 237.401Z" fill="white"/>
<path fill-rule="evenodd" clip-rule="evenodd" d="M94.5967 109.551C94.683 109.269 95.0547 109.348 95.0828 109.616C95.3628 112.272 95.0106 115.048 94.6726 117.686C94.5106 118.959 94.4172 120.284 94.1707 121.539C94.139 121.673 94.1091 121.809 94.0809 121.943C94.1619 122.087 94.4015 122.249 94.5158 122.36L95.0128 122.843L96.0087 123.808C97.9578 125.696 99.9066 127.586 101.856 129.474L104.716 132.248C105.697 133.199 106.812 134.11 107.672 135.17C108.139 135.746 108.245 136.452 107.785 137.068C107.558 137.373 107.15 137.595 106.736 137.641C106.898 137.866 107.023 138.122 107.102 138.405C107.264 138.983 106.68 139.693 106.058 139.451C105.352 139.18 104.769 138.694 104.051 138.461C103.326 138.225 102.537 138.18 101.785 138.306C101.44 138.365 101.102 138.451 100.773 138.56C104.296 140.182 108.107 141.114 111.995 141.248C112.787 141.274 113.578 141.264 114.364 141.211C115.688 141.124 117.003 140.924 118.296 140.6C119.312 140.344 120.317 140.024 121.292 139.636C121.771 139.446 122.245 139.237 122.703 138.999L122.743 138.975C122.846 138.91 124.759 137.825 124.792 137.662C124.826 137.499 124.826 137.442 124.763 137.3C124.701 137.158 124.529 137.06 124.529 137.06C123.938 136.808 123.325 136.572 122.68 136.568C121.194 136.559 119.572 137.658 118.343 138.407C116.993 139.23 115.752 140.191 114.452 141.082C114.422 141.103 114.389 141.112 114.357 141.112C114.22 141.112 114.093 140.943 114.181 140.811C115.112 139.439 116.369 138.297 117.684 137.3L118.214 136.903C119.418 136.005 120.827 135.01 122.291 134.793C124.084 134.529 125.958 135.647 127.558 136.302L130.393 137.463C130.898 137.669 131.447 137.845 131.956 138.079L130.768 134.361C130.175 132.502 129.583 130.643 128.997 128.782L128.883 128.417C128.299 126.528 127.763 124.563 126.79 122.838C126.558 122.424 126.292 122.034 126.03 121.641C125.757 121.235 125.655 120.786 125.312 120.423C124.632 119.702 123.658 119.28 122.729 119.003C122.502 118.936 122.569 118.637 122.782 118.614C123.736 118.514 124.645 118.736 125.507 119.139L125.866 119.31C126.681 119.695 127.476 120.054 128.081 120.747C129.461 122.328 130.178 124.32 130.836 126.285L131.012 126.813C131.259 126.732 132.933 127.242 133.143 127.364C139.419 130.018 144.254 134.96 147.789 140.751C151.662 147.097 153.771 154.348 155.512 161.523C156.05 163.738 156.563 165.959 157.057 168.185C154.858 169.032 152.52 169.475 150.461 170.668C149.677 171.122 150.385 172.34 151.172 171.884C153.1 170.767 155.297 170.355 157.361 169.57C158.48 174.724 159.476 179.906 160.31 185.11C162.872 201.081 164.489 217.313 164.387 233.502C164.385 233.86 164.28 234.259 164.084 234.603C164.199 234.547 164.289 234.48 164.34 234.399C164.989 233.379 166.618 234.325 165.965 235.35L165.869 235.498C165.379 236.254 164.922 236.832 164.06 237.259C163.192 237.689 162.252 237.761 161.294 237.786C158.039 237.871 154.781 237.927 151.523 237.967C151.076 234.481 150.894 230.96 150.278 227.494C150.12 226.602 148.763 226.98 148.92 227.868C149.515 231.216 149.705 234.614 150.12 237.984C143.154 238.059 136.183 238.06 129.222 238.08C119.788 238.108 110.355 238.088 100.922 238.083L96.8786 238.081C85.9807 238.081 75.0827 238.046 64.1849 237.974L61.5932 237.956C60.5622 231.876 59.8605 225.744 59.8474 219.565C59.8455 218.659 58.4371 218.657 58.439 219.565C58.452 225.737 59.146 231.869 60.1675 237.948C57.5872 237.936 55.0082 237.946 52.4277 238.037L51.1143 238.084C48.4865 238.174 45.8534 238.23 43.2305 238.02C40.3186 237.786 37.3733 237.25 34.7624 235.878C33.5865 235.259 32.5511 234.468 31.6663 233.537C32.5657 233.014 33.4781 232.512 34.3494 231.942C35.1048 231.447 34.4001 230.227 33.6385 230.725C32.6996 231.34 31.7126 231.875 30.7459 232.443C30.0459 231.509 29.4714 230.472 29.0351 229.353C28.3467 227.586 28.0809 225.686 27.8503 223.815C27.5775 221.612 27.4647 219.391 27.4647 217.172C27.4647 212.505 27.9559 207.851 28.6409 203.24C29.296 198.823 30.1619 194.441 31.0773 190.073L31.2024 189.478C32.1055 185.184 32.9665 180.878 34.0017 176.614C34.9589 172.671 36.065 168.746 37.3834 164.898C38.5568 165.624 39.7848 166.259 40.9399 167.015C41.7006 167.513 42.4071 166.293 41.6508 165.798C40.4184 164.991 39.104 164.321 37.8603 163.533C39.3344 159.412 41.0647 155.387 43.1392 151.532C47.2939 143.812 52.8927 136.906 60.0635 131.809C63.6531 129.259 67.5915 127.172 71.7272 125.654C75.9437 124.104 80.3133 123.255 84.7816 122.906C84.9092 122.896 84.9808 123.014 84.9756 123.123L84.9737 123.144L85.1497 123.172C85.2149 122.73 85.3487 122.302 85.604 121.909C86.1849 121.015 87.2869 120.44 88.1672 119.891L88.3759 119.761C89.4232 119.112 90.5285 118.472 91.7466 118.244C91.7888 118.237 91.8151 118.281 91.7869 118.315C90.9836 119.236 89.9564 119.94 89.015 120.719L88.7987 120.9C88.0185 121.542 86.9303 122.271 86.9013 123.345C86.868 124.609 87.1267 125.925 87.2202 127.186C87.3135 128.443 87.3784 129.699 87.4119 130.96C87.5335 135.478 87.3874 139.997 86.9876 144.497L88.7551 143.314C91.5057 141.472 94.2655 139.635 97.0827 137.91C98.7871 136.866 100.703 135.973 102.745 136.013C103.317 136.024 103.963 136.107 104.583 136.283C103.916 135.651 103.276 134.978 102.623 134.342C101.547 133.294 100.472 132.246 99.3962 131.2L96.2946 128.178L93.1918 125.155C92.2307 124.216 91.1038 123.352 91.2059 121.872C91.2888 120.692 91.889 119.518 92.2992 118.38C92.3573 118.216 92.4101 118.054 92.4594 117.894C93.2871 115.143 93.757 112.291 94.5967 109.551ZM134.683 227.589C134.042 226.947 133.046 227.943 133.687 228.585L134.027 228.923C134.594 229.489 135.156 230.072 135.548 230.771L135.606 230.877C136.028 231.68 137.244 230.968 136.822 230.166C136.299 229.174 135.467 228.374 134.683 227.589ZM107.195 227.407C105.153 227.017 103.184 227.017 101.142 227.407C100.253 227.577 100.629 228.936 101.516 228.766C103.303 228.425 105.034 228.425 106.821 228.766C107.706 228.935 108.086 227.578 107.195 227.407ZM79.6121 213.205C78.7332 212.982 78.3582 214.341 79.2378 214.563L79.6708 214.672C81.1429 215.036 82.5449 215.307 84.074 214.969C84.9471 214.776 84.594 213.451 83.7342 213.604L83.6996 213.611C82.2846 213.923 80.9811 213.552 79.6121 213.205ZM128.599 204.053C127.948 203.42 126.951 204.416 127.603 205.049C128.416 205.84 129.374 206.441 130.535 206.473C131.428 206.498 131.44 205.131 130.575 205.066L130.535 205.064C129.757 205.042 129.137 204.576 128.599 204.053ZM45.7071 200.29C46.518 199.884 45.8055 198.668 44.9964 199.073L40.1288 201.508V201.508C39.3179 201.913 40.0304 203.129 40.8395 202.724L45.7071 200.29V200.29ZM141.892 200.6C140.986 200.575 140.986 201.984 141.892 202.009C142.744 202.033 143.617 202.356 144.376 202.724C145.188 203.119 145.903 201.904 145.087 201.508C144.095 201.026 143.006 200.631 141.892 200.6ZM96.4113 193.797C97.1568 193.29 96.4529 192.069 95.7004 192.58C94.6737 193.278 93.7434 194.103 92.733 194.822L92.4554 195.015C91.7099 195.522 92.4138 196.743 93.1663 196.232C94.2862 195.471 95.2915 194.558 96.4113 193.797ZM148.788 183.557C147.882 183.556 147.88 184.965 148.788 184.966L148.96 184.965C149.708 184.961 150.497 184.94 151.192 185.239L151.272 185.275C152.088 185.66 152.803 184.445 151.983 184.059C150.963 183.578 149.897 183.557 148.788 183.557ZM70.5698 182.55L70.6881 182.506C71.5349 182.202 71.1698 180.839 70.3136 181.147C69.0235 181.611 68.0198 182.487 66.9006 183.247C66.1548 183.754 66.8587 184.975 67.6113 184.464C68.5757 183.809 69.4729 182.979 70.5698 182.55V182.55ZM123.399 178.885L123.589 178.783C124.395 178.368 123.683 177.152 122.878 177.566C122.239 177.895 121.667 178.333 121.039 178.682L120.85 178.784C120.043 179.199 120.755 180.415 121.56 180C122.2 179.671 122.772 179.233 123.399 178.885V178.885ZM101.972 165.237L101.827 165.097C101.179 164.462 100.182 165.458 100.831 166.093C102.452 167.68 104.368 168.885 106.301 170.05L106.653 170.261C107.432 170.729 108.141 169.511 107.363 169.045L106.847 168.734C105.129 167.697 103.43 166.627 101.972 165.237V165.237ZM62.9964 163.922C63.5425 163.212 62.3548 162.518 61.7997 163.186L61.7802 163.21C61.2117 163.949 60.5371 164.617 59.8321 165.227L59.6996 165.341C59.2798 165.698 58.5159 166.463 57.9263 166.514C57.0298 166.59 57.0217 168 57.9263 167.923C58.8386 167.845 59.6237 167.203 60.3129 166.652C61.3161 165.851 62.2135 164.938 62.9964 163.922ZM137.928 158.789C138.583 158.174 137.616 157.195 136.956 157.772L136.932 157.793C135.709 158.942 133.95 159.25 132.376 159.64C131.496 159.858 131.869 161.217 132.75 160.999L133.467 160.822C135.076 160.42 136.691 159.952 137.928 158.789ZM110.035 149.901C109.156 149.678 108.781 151.036 109.66 151.26C111.154 151.64 112.569 152.131 113.954 152.812C114.764 153.211 115.479 151.996 114.665 151.595C113.175 150.862 111.643 150.31 110.035 149.901ZM124.422 120.199C124.401 120.136 124.468 120.064 124.533 120.086C126.114 120.676 125.274 122.747 124.783 123.986L124.694 124.213C123.924 126.2 122.849 128.134 121.676 129.912C120.449 131.774 119.086 133.556 117.611 135.23C116.971 135.956 116.307 136.662 115.621 137.346L115.363 137.602C114.669 138.284 113.775 139.481 112.699 139.349C111.54 139.21 110.894 137.972 111.739 137.031C112.336 136.366 113.164 135.835 113.831 135.23C114.493 134.631 115.134 134.013 115.759 133.377C117.037 132.072 118.248 130.693 119.356 129.24C120.427 127.835 121.452 126.391 122.384 124.889L122.569 124.588C123.278 123.42 124.916 121.703 124.422 120.199ZM68.4226 134.958C67.6723 134.445 66.967 135.665 67.7117 136.175C69.0811 137.111 70.2858 138.245 71.768 139.015C72.5616 139.428 73.2674 138.246 72.5071 137.814L72.479 137.799C70.9978 137.029 69.7913 135.894 68.4226 134.958Z" fill="black"/>
<path fill-rule="evenodd" clip-rule="evenodd" d="M141.269 57.0375C141.209 54.9313 138.147 54.0569 137.263 56.1427C137.208 56.1986 137.148 56.2523 137.092 56.3004C137.369 56.0628 136.79 56.4559 136.696 56.5045C136.615 56.5461 136.533 56.5836 136.45 56.6223C135.881 51.2868 133.95 45.5349 128.958 42.8567C121.996 39.4794 113.952 38.8201 106.314 39.1556C102.445 39.3853 97.9766 40.0042 94.5391 38.046C93.468 37.4359 92.6094 36.4755 91.399 36.0985C87.578 35.0644 85.8449 38.9895 86.3654 42.2174C84.7356 42.2303 83.1189 43.1329 82.4155 44.619C82.0025 45.4986 82.0097 46.4477 81.6536 47.3305C80.5608 49.569 78.9972 51.1781 79.8812 53.8922C78.3264 55.6621 79.2129 58.3415 80.4675 60.036C81.087 60.9173 81.8249 61.7634 82.2787 62.7499C82.7192 63.6945 82.0543 64.8146 81.6842 65.71C78.9483 72.2001 79.1046 79.3474 80.5768 86.117C77.6226 87.3993 76.7359 91.4079 78.6624 93.932C79.3252 94.8242 80.1338 95.1554 81.0509 95.7043C82.2115 96.3433 81.2636 98.9028 81.6352 100.139C82.1402 103.156 84.8867 105.015 87.6023 103.055C89.3256 102.794 90.7155 107.81 91.9669 109.069C92.7379 110.084 93.5939 110.994 94.5245 111.835C97.2974 118.973 111.506 122.592 118.531 122.179C125.888 121.408 130.851 115.158 134.983 109.611C137.105 106.656 138.485 103.348 138.987 99.7399C139.491 96.1138 139.271 92.4813 138.93 88.8508C138.214 81.1372 137.084 70.0244 136.355 62.2275C138.991 62.0103 141.348 59.7653 141.269 57.0375V57.0375Z" fill="white"/>
<path fill-rule="evenodd" clip-rule="evenodd" d="M83.8059 52.3998C83.8034 52.4107 83.8071 52.419 83.8096 52.4306C83.8101 52.4273 83.8106 52.4255 83.8115 52.4215C83.8094 52.4127 83.8078 52.4068 83.8059 52.3998" fill="black"/>
<path fill-rule="evenodd" clip-rule="evenodd" d="M83.8052 52.5122C83.7955 52.502 83.7818 52.4944 83.768 52.4842C83.7677 52.4846 83.7675 52.4849 83.7673 52.4853C83.7802 52.4937 83.7925 52.5034 83.8052 52.5122" fill="black"/>
<path fill-rule="evenodd" clip-rule="evenodd" d="M140.849 58.0342C141.715 57.3146 143.079 57.9771 142.786 59.1619C142.467 60.4522 141.084 61.3339 139.943 61.8641C138.768 62.4095 137.624 62.5147 136.343 62.4551L136.327 62.4516V62.4516C136.683 63.8788 136.884 65.3623 137.156 66.798C137.502 68.6195 137.842 70.4419 138.176 72.2651C138.5 74.0274 138.909 75.792 139.158 77.5632C139.409 79.351 139.65 81.1401 139.896 82.9285C140.308 85.9154 140.64 88.916 140.99 91.9115L141.157 93.3294C141.507 96.3305 141.79 99.3353 141.125 102.322C140.502 105.121 139.1 107.732 137.472 110.068C135.879 112.356 134.099 114.556 132.145 116.546C128.376 120.384 123.728 123.458 118.278 124.028C115.931 124.273 113.425 124 111.219 123.147L111.072 123.09C108.839 122.208 106.104 120.697 105.523 118.219C105.166 116.699 106.732 115.512 108.105 116.233C108.741 116.567 109.22 116.949 109.742 117.428L109.834 117.514C110.261 117.91 110.425 118.032 110.918 118.342C111.928 118.978 112.685 119.279 113.832 119.568C115.947 120.1 118.23 120.016 120.377 119.386C124.936 118.05 128.473 114.562 131.502 111.066C133.147 109.167 134.709 107.175 135.913 104.962C137.177 102.64 137.76 100.203 137.725 97.5608C137.685 94.5798 137.274 91.5873 137.003 88.6205C136.728 85.5959 136.473 82.5723 136.249 79.5435C136.039 76.7031 136.019 73.8499 135.945 71.0007L135.931 70.4665C135.888 68.954 135.858 67.4409 135.823 65.928C135.789 64.4195 135.67 62.8917 135.825 61.3896C135.836 61.2802 135.984 61.2525 136.02 61.3632C136.111 61.6446 136.191 61.9305 136.267 62.2179C136.279 62.2091 136.292 62.2012 136.308 62.1957C137.312 61.8505 138.237 61.1613 138.99 60.4181C139.709 59.7088 140.085 58.6698 140.849 58.0342ZM85.9062 36.8996C86.537 34.3078 89.3757 33.7288 91.4748 34.977C92.4845 35.5773 93.293 36.4429 94.2361 37.1309C95.1738 37.8149 96.21 38.3643 97.3035 38.7523C99.4759 39.523 101.767 39.8032 104.063 39.8133C109.651 39.8377 115.125 38.2667 120.721 38.442C125.052 38.5776 129.648 39.8578 132.789 42.9893C134.481 44.6763 135.571 46.8451 136.156 49.1475C136.43 50.2236 136.633 51.3259 136.794 52.4255L136.833 52.7003C136.923 53.343 137.068 54.0234 137.081 54.6729C137.093 55.2563 136.946 55.8667 136.866 56.4441C136.697 57.6611 134.813 57.5225 134.542 56.4441C133.926 53.9887 134.184 51.4546 133.43 49.0077C132.762 46.8378 131.467 44.9406 129.591 43.6431C121.676 38.1691 111.525 42.7531 102.804 42.3273C100.672 42.2232 98.5095 41.8937 96.4989 41.1594C95.4621 40.7807 94.4414 40.3189 93.5014 39.7381C92.6402 39.2062 91.894 38.538 91.0968 37.9231L90.7451 37.6557C90.1985 37.2443 89.2681 36.6012 88.7167 37.1453C88.4768 37.3822 88.4623 37.9177 88.4666 38.3267L88.4694 38.5115C88.4944 40.2478 88.8481 41.9808 88.1986 43.6583C87.9023 44.4234 87.0789 44.9058 86.2957 44.4725L86.2553 44.4492C84.5988 43.4634 82.4224 45.4443 83.6949 47.0838L83.7345 47.1334C84.4505 48.0038 84.0687 49.5367 82.7873 49.5328L82.7412 49.532C80.4581 49.4607 79.4452 52.3151 81.413 53.5623L81.4736 53.5996C83.0713 54.5562 81.6699 56.8558 80.0324 56.0663C80.1711 56.1332 79.9299 56.1323 79.7919 56.3176C79.6593 56.4955 79.6495 56.6494 79.681 56.8742C79.7766 57.5551 80.3752 58.1289 80.86 58.5597C81.9614 59.5384 83.3268 60.2142 84.7336 60.6256C90.3692 62.2738 96.1509 60.2577 101.642 59.0401C107.366 57.7708 113.832 57.2595 118.824 60.8615C118.883 60.9041 118.831 60.9994 118.766 60.9613C115.183 58.8799 110.795 59.0646 106.879 59.918C101.743 61.0371 96.6523 63.1201 91.3926 63.6689C92.8692 66.2766 93.4871 69.3565 93.0928 72.3392C92.8212 74.3924 92.0044 76.1734 91.0397 77.9782L90.8556 78.3221C89.9954 79.9421 89.3291 81.4726 89.3185 83.3493C89.3081 85.2139 86.5371 85.6071 86.0674 83.7896C85.0011 79.6621 88.8859 76.411 90.4709 73.0074C91.8257 70.0978 91.8674 66.7055 90.7711 63.7263C89.5341 63.8258 88.2875 63.8362 87.0283 63.7238C85.9468 63.6272 84.8341 63.4322 83.7496 63.1236L83.3158 64.9482C82.741 67.3786 82.2084 69.8074 82.047 72.3318C81.9282 74.1867 81.9345 76.0509 82.1153 77.9012C82.2716 79.4994 82.6016 81.0407 82.9373 82.6009C83.2253 82.981 83.3725 83.5628 83.2915 84.0262C85.1613 84.5647 86.6319 86.0407 87.1692 87.9955C87.2019 88.1145 87.0354 88.1815 86.9731 88.0783C85.6982 85.9623 82.4155 85.1837 80.3389 86.5816C78.3558 87.9162 77.5736 90.6109 78.6961 92.7442C79.2866 93.8658 80.162 94.654 81.2908 95.1968L81.5178 95.3034C82.1093 95.5835 82.6523 95.8887 83.0327 96.4511C83.5262 97.1806 83.5429 97.9517 83.4962 98.7854L83.4761 99.1232C83.4449 99.682 83.4378 100.257 83.6042 100.795L83.642 100.914C83.6859 101.048 83.732 101.166 83.8121 101.295C83.8361 101.333 84.0607 101.553 84.134 101.633L84.2262 101.661V101.661L84.3294 101.665V101.665C84.4438 101.667 84.5943 101.617 84.5449 101.651L84.5583 101.644C84.6018 101.617 84.6417 101.588 84.6754 101.563L84.7393 101.513C84.8887 101.297 85.0761 101.118 85.3058 100.982L85.5253 100.884V100.884C86.0956 100.282 87.0727 100.598 87.4815 101.198C87.7757 101.63 87.934 102.069 87.947 102.501C87.993 102.428 88.0951 102.387 88.16 102.47L88.5476 102.964C90.0306 104.86 91.4881 106.767 93.1732 108.495C94.1016 109.447 95.1002 110.342 96.144 111.166C97.0352 111.869 98.7257 112.546 98.7516 113.828C98.7597 114.244 98.4644 114.539 98.1032 114.68C96.9274 115.139 95.4744 113.577 94.6252 112.816L94.5558 112.755C93.5164 111.844 92.5678 110.844 91.6924 109.775C89.9922 107.698 88.5706 105.308 87.944 102.679C87.9146 103.138 87.7178 103.587 87.3347 104.012C86.8246 104.576 86.1266 104.972 85.381 105.135C83.6917 105.505 82.0424 104.896 81.0373 103.488C80.1878 102.298 79.9377 100.726 80.0473 99.2878L80.0608 99.1152C80.0762 98.8845 80.0958 98.4613 80.1555 98.2812L79.6236 97.989V97.989C78.9715 97.6419 78.3671 97.1868 77.8246 96.6866C75.6445 94.6759 74.5507 91.4083 75.5474 88.5489C76.1708 86.7601 77.4808 85.2037 79.1583 84.3948C78.8779 83.7465 78.7841 82.9768 78.6783 82.2957L78.6606 82.183C78.4812 81.0657 78.331 79.9342 78.2738 78.8035C78.1667 76.6918 78.2968 74.5603 78.6285 72.473C79.1672 69.0828 80.2826 65.4874 82.3269 62.6433C80.7672 62.0237 79.3317 61.1267 78.2236 59.8811C77.0657 58.5796 76.3275 56.7162 77.2229 55.0632C77.451 54.6419 77.7484 54.2878 78.0901 54.0065C77.4975 52.887 77.3058 51.564 77.6715 50.2994C78.1084 48.7875 79.2949 47.6084 80.7282 47.0578C80.3801 45.6254 80.6646 44.0847 81.7282 42.8909C82.7831 41.7066 84.4213 41.2753 85.9375 41.546C86.0197 40.0225 85.5403 38.4021 85.9062 36.8996ZM81.6535 90.3888C83.0437 89.7083 84.6912 89.8164 86.0797 90.4614L86.1738 90.5061C87.6898 91.2415 89.6977 92.9597 89.2158 94.7872C88.9338 95.8559 87.7468 96.2209 86.8264 95.7596C86.0576 95.374 85.8822 94.6849 85.4965 93.9925C85.2238 93.5029 84.8866 93.1202 84.4907 92.7265C83.656 91.8972 82.7185 91.2811 81.6535 90.7881C81.5 90.7169 81.5053 90.4616 81.6535 90.3888ZM116.681 53.4502C116.55 53.3907 116.645 53.1865 116.776 53.2239C120.269 54.2218 123.526 56.4618 125.472 59.5709C125.591 59.7606 125.609 60.0729 125.472 60.2606L125.409 60.3458C125.32 60.4624 125.232 60.5484 125.064 60.5745C124.749 60.6234 124.475 60.5412 124.293 60.2606C122.376 57.2971 119.919 54.9321 116.681 53.4502ZM140.065 54.037C140.361 53.5356 141.146 53.6365 141.302 54.1987L141.325 54.2476C141.409 54.4393 141.371 54.4785 141.214 54.3701C141.603 54.691 141.779 55.169 141.66 55.6829C141.017 58.4586 137.874 60.4407 135.135 60.1679C134.896 60.1442 134.863 59.8502 135.08 59.7625C136.134 59.3356 137.069 58.6422 137.822 57.7913C138.553 56.9642 138.86 56.0179 139.254 55.0191C139.401 54.6441 139.631 54.3741 139.954 54.2267C139.997 54.1675 140.034 54.1045 140.065 54.037ZM124.485 52.2532L124.504 52.2544C125.912 52.4364 127.129 53.1314 128.118 54.1497C129.07 55.1304 130.272 56.7486 130.169 58.1877C130.101 59.1418 128.745 59.6873 128.239 58.7108C127.937 58.1282 127.868 57.4896 127.657 56.8735C127.463 56.3088 127.195 55.7727 126.874 55.2699C126.214 54.2339 125.305 53.3563 124.376 52.5644C124.267 52.4717 124.343 52.2537 124.485 52.2532V52.2532ZM88.3784 51.8304C88.0663 51.5331 88.3909 51.0263 88.788 51.1266C90.8818 51.657 92.9554 52.3019 95.1323 52.366C96.2196 52.3979 97.3008 52.3121 98.3779 52.1714L98.9233 52.099C99.7632 51.9893 100.618 51.9032 101.448 52.0758C102.001 52.1908 102.109 52.9041 101.765 53.2763C100.136 55.0338 96.9943 54.8658 94.8343 54.5695C92.4887 54.2476 90.1219 53.492 88.3784 51.8304ZM126.189 46.3522C126.046 46.1533 126.287 45.8395 126.515 45.9277C128.596 46.7323 130.777 48.8269 131.35 51.0185C131.502 51.5974 130.772 52.0345 130.343 51.6048C129.545 50.8039 128.981 49.858 128.306 48.9578C127.633 48.0604 126.846 47.2635 126.189 46.3522ZM92.0954 47.3309C91.9285 47.1641 92.0965 46.832 92.3362 46.9168C93.691 47.3968 95.056 47.8121 96.4792 48.03C97.937 48.2529 99.4084 48.0835 100.874 48.1739C101.467 48.2103 101.87 49.1329 101.211 49.4199C98.2831 50.6953 94.306 49.5388 92.0954 47.3309ZM95.836 44.4704C95.6033 44.2981 95.7357 43.8254 96.0524 43.9573C97.3425 44.4947 98.6473 44.6268 100.032 44.5715C100.543 44.5509 100.651 45.3549 100.152 45.4634C98.6219 45.7964 97.0867 45.3954 95.836 44.4704Z" fill="black"/>
<path fill-rule="evenodd" clip-rule="evenodd" d="M109.204 102.38C111.36 99.8736 114.992 99.6991 117.999 100.326C119.93 100.728 121.809 101.398 123.77 101.646C124.685 101.762 125.611 101.797 126.533 101.78C127.439 101.763 128.347 101.581 129.249 101.615C129.388 101.62 129.441 101.802 129.32 101.876C128.082 102.637 126.413 102.881 124.95 103.03C124.955 103.138 124.961 103.244 124.976 103.334C125.016 103.573 125.053 103.81 125.082 104.051C125.149 104.593 125.223 105.134 125.297 105.676C125.443 106.742 125.489 107.841 125.746 108.889L125.791 109.063C125.85 109.283 125.864 109.481 125.844 109.66L125.904 109.633L126.091 109.542L126.215 109.484C126.664 109.276 127.093 109.124 127.622 109.174C128.024 109.213 128.362 109.487 128.365 109.917C128.375 111.847 125.776 112.467 124.289 112.837L123.853 112.944C121.96 113.406 120.028 113.811 118.081 113.907C114.958 114.063 111.448 113.201 109.405 110.666C107.498 108.301 107.149 104.77 109.204 102.38ZM123.389 110.487C123.062 107.582 119.493 107.422 118.467 109.264C118.011 106.696 111.273 109.042 111.799 109.553C113.797 111.487 116.827 111.662 119.433 111.304C120.76 111.121 122.088 110.825 123.389 110.487ZM119.429 102.873L118.532 102.744L118.179 102.695C115.955 102.397 113.454 102.243 111.625 103.669C110.957 104.19 110.582 104.869 110.441 105.599C112.172 105.342 113.908 105.146 115.65 104.983L116.125 104.94C117.215 104.842 118.304 104.738 119.393 104.629L120.167 104.551L120.94 104.471C121.212 104.442 123.046 104.348 123.391 104.411C123.428 104.101 123.476 103.43 123.554 103.129C122.251 103.173 120.953 103.076 119.658 102.904L119.429 102.873ZM123.559 89.8886C124.888 90.697 126.914 92.5821 125.484 94.5863C123.8 96.3534 121.377 94.3273 120.182 93.4109C119.075 92.7008 117.83 94.5273 118.858 95.3565C127.489 101.749 130.991 90.1 124.231 88.9381C123.487 88.8101 123.211 89.6385 123.559 89.8886ZM125.938 93.2943L126.002 93.2595L126.024 93.2465C126.061 93.2223 126.037 93.2249 125.952 93.2543L125.888 93.2772V93.3223C125.905 93.3123 125.922 93.3047 125.938 93.2943ZM108.912 86.1119L108.911 86.0722C108.914 84.9491 109.568 82.3848 111.184 82.3848C112.194 82.3848 112.807 84.13 112.913 85.929L112.916 86.0024C112.963 87.1209 112.656 89.5657 111.184 89.5657C109.696 89.5657 108.927 87.2501 108.912 86.1119V86.1119ZM132.706 85.7597L132.707 85.72C132.704 84.5969 132.05 82.0326 130.434 82.0326C129.45 82.0326 128.842 83.6916 128.714 85.442L128.705 85.5768C128.642 86.6575 128.928 89.2134 130.434 89.2134C131.922 89.2134 132.691 86.8979 132.706 85.7597V85.7597ZM109.834 74.7273C111.153 74.5267 112.899 74.9079 113.514 76.2496C113.788 76.8474 113.464 77.5084 112.773 77.5415C111.104 77.6214 109.607 77.2498 108.142 78.3356C107.511 78.803 106.981 79.4501 106.536 80.0956L106.368 80.3412L106.228 80.5436C105.926 80.9879 105.64 81.4706 105.685 82.0066C105.698 82.1653 105.536 82.3159 105.382 82.3095C104.422 82.2701 104.319 81.0657 104.445 80.3424C104.68 79 105.329 77.7398 106.229 76.7248C107.175 75.6589 108.423 74.942 109.834 74.7273ZM128.001 76.3566C128.91 75.7717 130.074 75.5469 131.139 75.6331C133.24 75.8023 136.764 77.5889 136.301 80.156C136.157 80.9476 135.057 81.3654 134.408 80.9262C133.711 80.454 133.541 79.72 133.022 79.1029C132.608 78.6099 132.083 78.2533 131.521 77.9495C130.967 77.6498 130.326 77.4682 129.698 77.402L129.593 77.392C129.215 77.3598 127.304 77.3684 127.585 78.0819C127.64 78.2216 127.432 78.3322 127.336 78.2265C126.751 77.5784 127.414 76.7338 128.001 76.3566Z" fill="black"/>
<path fill-rule="evenodd" clip-rule="evenodd" d="M107.874 107.999C109.299 104.658 112.41 102.203 115.992 101.305C118.623 100.648 121.383 100.669 124.064 100.93C125.469 101.066 126.976 101.177 128.3 101.699C129.43 102.145 130.352 102.987 131.045 103.977C131.869 105.149 132.43 106.491 132.824 107.866C132.88 108.062 132.932 108.259 132.981 108.457C132.81 109.494 132.447 110.377 131.486 111.03C130.548 111.667 129.43 111.927 128.315 112.02C128.205 111.967 128.1 111.913 128.003 111.858C126.265 110.863 125.042 108.511 122.849 108.829C120.892 109.114 119.603 111.577 118.439 113.022C114.703 113.457 110.97 112.334 107.93 110.197C107.775 109.466 107.766 108.728 107.874 107.999M135.521 105.465C135.222 104.626 134.845 103.813 134.399 103.047C132.924 100.516 130.659 98.4985 127.971 97.3454C121.612 94.6214 113.383 96.5416 108.247 101.009C106.493 102.536 104.719 104.781 104.183 107.195C104.022 107.227 103.871 107.31 103.747 107.427C100.036 105.09 96.2151 102.842 93.225 99.6022C91.0536 97.2484 89.5433 94.4629 88.6185 91.4019C88.5429 91.1499 88.1367 91.1868 88.149 91.4655C88.1526 91.5308 88.1561 91.5958 88.1596 91.6611C88.1209 91.5412 87.938 91.6029 87.924 91.7192C87.4264 95.4377 86.804 99.3801 87.3772 103.118C87.72 105.348 88.7328 106.981 90.0866 108.744C91.5371 110.634 93.1793 112.392 94.8584 114.078C95.9239 115.148 97.0369 116.382 98.3415 117.167C99.8588 118.078 101.58 118.771 103.199 119.475C104.847 120.192 106.519 120.855 108.223 121.43C111.628 122.583 115.148 123.38 118.73 123.729C121.598 124.008 124.875 124.311 127.623 123.232C129.729 122.405 131.43 120.91 132.778 119.111C134.246 117.152 135.407 114.921 136.048 112.568C136.715 110.124 135.661 105.859 135.521 105.465" fill="black"/>
<path fill-rule="evenodd" clip-rule="evenodd" d="M138.404 91.4652C137.218 93.0582 135.021 93.5657 132.994 93.3904C128.622 92.9695 127.246 88.0026 127.103 84.1421C130.035 84.967 126.855 79.1243 136.876 78.4818C140.409 78.1873 139.435 80.3216 140.996 81.881C140.963 85.1537 140.419 88.7099 138.404 91.4652M117.581 87.7046C115 99.7961 100.867 96.92 99.3823 86.0203C100.753 85.0523 100.392 82.6621 102.095 81.7961C104.795 80.0708 108.169 80.1446 111.234 80.1851C115.152 80.4544 116.269 82.0781 118.282 83.8495C118.185 85.0327 117.906 86.435 117.581 87.7046M144.003 76.4792C143.858 76.4551 143.713 76.4324 143.568 76.4111C143.454 76.3468 143.321 76.2973 143.167 76.2675C142.814 76.1779 142.463 76.1175 142.113 76.0849C137.09 74.954 125.469 76.5597 124.99 80.848C123.39 81.3822 122.006 80.9038 120.152 80.9514C118.74 75.0503 94.342 75.8832 93.1686 79.4409C93.1642 79.4397 93.1598 79.4386 93.1552 79.4372C92.0277 79.0882 90.3656 79.1723 89.0751 79.117C86.3196 79.0593 83.561 79.305 80.8651 79.8864C75.8166 80.689 68.9267 81.6286 72.4378 87.9353C72.4385 87.9363 72.439 87.9376 72.4399 87.9386L72.4404 87.9381C73.0455 88.5586 74.0725 88.0589 74.1107 87.219C72.9302 84.2312 75.5964 83.8724 77.6478 83.0138C82.7522 81.1793 87.949 80.925 93.2283 81.4924C93.6254 81.9602 94.2281 82.3681 94.8651 82.5816C98.3948 83.1677 96.5346 85.7871 98.7658 86.168C98.3559 95.2987 109.437 100.283 115.858 94.2805C118.421 91.7732 119.032 88.0589 119.627 84.711C119.941 84.6403 120.141 84.4684 120.257 84.2409C121.013 83.486 121.488 82.7889 122.983 82.5816C124.477 82.3745 125.628 82.7903 125.783 82.9176C125.823 82.9967 125.865 83.076 125.914 83.1552C125.982 83.2734 126.075 83.3676 126.181 83.4418C124.705 92.5341 131.76 98.2842 138.884 93.5685C141.979 90.6559 142.633 86.1967 142.762 82.2167C143.181 81.9634 143.447 81.4725 143.302 80.8554C143.102 80.0047 143.571 79.2682 144.319 78.8983C145.29 78.418 145.118 76.664 144.003 76.4792" fill="black"/>
</svg>
