<svg width="200" height="268" viewBox="0 0 200 268" fill="none" xmlns="http://www.w3.org/2000/svg">
<path fill-rule="evenodd" clip-rule="evenodd" d="M150.386 146.074C148.857 140.165 147.45 137.66 144.734 135.606C142.193 133.685 138.483 132.072 133.071 130.893C127.433 129.912 127.273 126.993 125.86 122.302C125.448 120.891 123.404 120.516 122.522 121.533C122.398 121.399 122.268 121.276 122.134 121.166C122.254 120.493 121.271 118.565 121.304 117.922C121.647 111.207 119.442 107.835 113.938 106.581C112.742 106.308 104.612 106.148 103.445 106.469C98.3437 107.874 93.3216 112.335 94.0901 117.709C92.4887 119.794 90.9214 121.067 88.4508 121.738C82.9526 122.434 77.4549 123.052 71.9553 123.582C61.1898 125.264 51.0963 130.94 44.1977 139.219C43.5614 139.983 43.3776 141.02 43.9391 141.835C43.4992 143.712 41.023 148.265 42.9714 149.552C39.7674 157.186 32.3954 171.941 32.3815 176.156C32.3234 193.865 34.2437 216.915 51.7854 226.714C52.4878 227.402 52.5882 228.163 52.8923 229.187C53.6635 232.411 56.4644 234.715 59.53 234.527C74.6317 234.861 89.2587 233.026 104.361 232.937C111.021 232.898 119.03 233.888 124.815 234.548C130.601 235.207 136.441 234.624 141.993 232.937C142.461 233.671 143.408 234.099 144.368 233.888C150.124 232.749 154.778 229.215 158.832 225.354C160.071 223.109 164.909 216.712 162.986 214.486C164.729 207.145 164.638 199.257 161.541 192.266C161.98 190.985 161.18 189.576 161.541 188.253C161.802 187.296 162.472 186.9 162.809 185.951C163.283 184.617 162.767 182.827 162.233 181.465C162.015 180.787 162.636 180.056 162.809 179.364C163.628 176.098 161.752 176.385 160.4 174.202C160.42 174.195 160.771 172.636 160.77 172.644C160.977 171.531 160.458 170.106 160.006 169.177C159.7 168.549 159.045 168.156 158.394 168.228C159.049 166.011 159.878 164.166 160.77 162.03C162.347 158.266 164.342 154.66 166.606 151.253C167.533 149.857 166.288 148.24 164.788 148.145C159.932 147.838 155.128 147.141 150.386 146.074Z" fill="white"/>
<path fill-rule="evenodd" clip-rule="evenodd" d="M136.213 174.545C134.271 173.787 132.179 173.367 130.077 173.205C131.209 173.007 132.344 172.817 133.488 172.719C134.287 172.65 135.027 172.657 135.627 173.261C136.027 173.663 136.215 174.18 136.478 174.656C136.392 174.617 136.303 174.58 136.213 174.545ZM157.061 167.451C153.88 167.612 150.695 168.366 147.818 169.731C146.641 170.29 145.574 171.098 145.261 172.427C145.104 173.105 145.142 173.806 145.226 174.491C145.29 175.011 145.305 175.673 145.758 176.024C145.835 176.084 145.918 176.129 146.004 176.163C144.942 176.64 143.931 177.213 143.033 177.804C142.212 178.344 141.368 179.176 140.989 180.115C140.957 180.009 140.926 179.909 140.894 179.815C140.249 177.913 139.254 176.355 137.687 175.308C137.964 175.184 138.155 174.89 138.066 174.484C137.694 172.79 136.123 171.318 134.35 171.423C132.407 171.537 130.321 172.241 128.565 173.131C127.924 173.117 127.286 173.126 126.654 173.154C126.545 173.157 126.551 173.304 126.654 173.316C127.166 173.381 127.679 173.453 128.191 173.537C129.409 173.731 130.623 173.977 131.811 174.283C133.236 174.651 134.709 175.019 136.041 175.661C138.624 176.907 140.222 180.166 139.894 183.002C139.84 183.467 139.659 184.872 139.011 184.727C138.464 184.605 138.247 183.467 138.055 183.045C137.543 181.926 136.62 181.196 135.513 180.701C134.213 180.119 132.821 179.725 131.474 179.268C130.711 179.007 129.947 178.746 129.182 178.488C128.4 178.22 127.656 177.851 126.823 178.038C126.319 178.152 126.261 178.75 126.544 179.093C126.973 179.615 127.612 179.769 128.232 179.984C129.049 180.267 129.865 180.551 130.681 180.834C131.942 181.271 133.264 181.64 134.493 182.175L134.455 182.262C134.355 182.234 134.237 182.334 134.257 182.456C134.441 183.587 134.697 184.895 134.413 186.028C134.188 186.926 133.397 187.921 132.369 187.657C132.53 187.51 132.59 187.257 132.481 187.022C132.074 186.155 126.74 182.732 126.265 184.003C126.249 184.049 126.298 184.082 126.337 184.075C126.742 183.991 127.421 184.68 127.745 184.898C128.214 185.213 128.689 185.521 129.153 185.844C129.66 186.197 130.155 186.568 130.637 186.951C131.016 187.252 131.302 187.564 131.737 187.717C131.509 187.825 131.328 188.026 131.251 188.283C131.055 188.952 130.676 189.521 130.018 189.816C129.328 190.124 128.551 189.93 127.824 190.005C126.835 190.105 125.972 190.573 125.25 191.243C123.736 192.652 122.977 195.134 120.859 195.8C119.594 196.197 118.19 195.947 116.909 195.767C115.479 195.566 114.086 195.407 112.646 195.617C111.266 195.818 109.963 196.293 108.703 196.874C107.522 197.417 106.217 198.033 105.169 198.844C104.954 198.181 104.736 197.526 104.571 196.849C104.182 195.25 103.971 193.62 103.92 191.977C103.873 190.412 103.96 188.841 104.095 187.283C104.162 186.505 104.267 185.731 104.334 184.953C104.352 184.757 104.387 184.547 104.413 184.337C106.283 183.238 108.248 182.395 110.229 181.528C110.235 181.526 110.24 181.523 110.245 181.521C110.307 181.493 110.366 181.467 110.428 181.441C110.426 181.437 110.424 181.434 110.421 181.43C110.647 181.292 110.805 181.108 110.9 180.902C113.754 179.016 116.141 176.441 117.92 173.437C118.666 172.178 119.383 170.873 120.359 169.77C121.397 168.593 122.631 167.894 124.157 167.53C125.942 167.104 127.781 166.848 129.609 166.703C130.607 166.625 131.723 166.502 132.811 166.507C133.569 166.512 134.311 166.577 134.992 166.764C136.001 167.04 136.59 167.805 137.224 168.577C137.829 169.319 138.431 170.062 138.996 170.834C139.531 171.567 140.036 172.324 140.475 173.117C140.738 173.593 140.982 174.082 141.187 174.587C141.259 174.766 141.354 174.969 141.398 175.154C141.442 175.341 141.361 175.539 141.572 175.539C140.703 175.551 140.712 176.934 141.575 176.883C144.954 176.687 140.114 170.114 139.406 169.198C138.404 167.901 137.371 166.208 135.767 165.605C135.745 165.596 135.72 165.588 135.697 165.581C136.164 165.14 136.532 164.612 136.885 164.075C137.248 163.523 137.682 162.89 137.801 162.235C137.876 161.817 137.355 161.579 137.108 161.944C136.748 162.478 136.575 163.152 136.306 163.738C136.032 164.332 135.699 164.894 135.436 165.493C134.802 165.299 134.118 165.21 133.422 165.181C134.301 163.995 135.802 161.708 135.983 161.415C136.815 160.055 137.606 158.653 138.362 157.249C139.18 155.728 139.88 154.144 140.663 152.605C141.107 151.733 141.554 150.854 142.047 150.008C142.217 149.717 142.4 149.427 142.607 149.163C142.647 149.111 142.698 149.067 142.745 149.018C142.8 148.988 142.856 148.955 142.888 148.938C143.172 148.775 143.272 148.398 143.472 148.158C143.791 147.772 144.167 147.726 144.647 147.721C145.672 147.711 146.7 147.751 147.723 147.779C149.227 147.821 150.729 147.88 152.231 147.959C152.685 147.983 153.138 148.008 153.592 148.036C155.777 148.165 157.959 148.335 160.137 148.543C162.063 148.726 163.99 149.025 165.918 149.169C163.307 155.349 160.412 161.417 157.135 167.273C157.101 167.332 157.077 167.392 157.061 167.451ZM142.575 183.372C142.154 183.565 141.745 183.804 141.365 184.077C141.428 183.652 141.443 183.204 141.426 182.755C141.74 183.091 142.142 183.283 142.575 183.372ZM160.551 172.742C160.521 172.745 160.493 172.761 160.479 172.79C159.896 173.988 160.14 175.325 161.091 176.264C161.59 176.753 162.676 177.306 162.64 178.11C162.611 178.76 161.9 179.306 161.597 179.843C161.314 180.343 161.209 180.891 161.435 181.434C161.725 182.127 162.534 182.404 162.811 183.086C163.162 183.951 162.591 184.995 162.191 185.748C161.819 186.446 161.338 187.143 161.019 187.881C158.88 188.984 156.966 190.676 155.32 192.395C153.519 194.274 151.973 196.485 149.111 196.43C148.825 196.424 148.607 196.575 148.478 196.783C147.681 196.819 146.883 196.835 146.086 196.839C144.686 196.846 143.286 196.832 141.887 196.788C141.789 196.451 141.861 195.993 141.856 195.708C141.838 194.79 141.83 193.874 141.791 192.956C141.78 192.701 141.77 192.444 141.759 192.188C142.263 193.096 143.245 193.508 144.365 193.445C146.165 193.341 147.976 193.047 149.758 192.783C150.697 192.645 151.634 192.487 152.569 192.319C153.338 192.183 154.422 192.218 154.959 191.604C155.085 191.461 155.092 191.199 154.894 191.103C154.362 190.842 154.027 190.987 153.443 191.099C152.731 191.237 152.017 191.368 151.301 191.491C149.927 191.729 148.55 191.949 147.169 192.143C146.383 192.253 145.595 192.361 144.807 192.447C144.119 192.521 143.344 192.62 142.789 192.105C141.672 191.063 142.298 189.316 143.005 188.264C143.019 188.243 143.019 188.223 143.014 188.206C143.681 188.05 144.346 187.869 145.009 187.741C146.284 187.496 147.569 187.29 148.855 187.107C151.497 186.73 154.157 186.482 156.813 186.232C157.471 186.169 157.478 185.138 156.813 185.199C152.997 185.547 149.162 185.877 145.397 186.61C144.453 186.792 143.515 186.998 142.584 187.23C142.144 187.339 141.672 187.509 141.21 187.514C141.182 187.514 141.154 187.514 141.126 187.512C140.222 187.484 140.091 186.713 140.587 186.072C140.649 185.993 140.712 185.914 140.777 185.839C141.654 184.797 142.747 184.101 143.873 183.381C145.135 183.21 146.393 182.828 147.628 182.549C150.678 181.856 153.727 181.164 156.779 180.474C157.377 180.337 157.122 179.421 156.524 179.556C154.208 180.079 151.892 180.601 149.576 181.124L146.186 181.89C145.509 182.042 144.663 182.348 143.866 182.458C143.474 182.512 143.093 182.519 142.749 182.439C141.638 182.177 141.582 180.794 142.061 179.972C142.598 179.049 143.612 178.472 144.512 177.949C146.072 177.042 147.732 176.39 149.353 175.638C149.641 175.575 149.929 175.512 150.216 175.449C151.89 175.082 153.803 174.902 155.378 174.229C155.85 174.03 155.592 173.289 155.126 173.299C153.903 173.325 152.624 173.759 151.429 174.016C150.136 174.295 148.841 174.573 147.548 174.851C147.418 174.879 146.649 175.124 146.534 175.07C146.46 175.035 146.434 174.78 146.409 174.612C146.33 174.059 146.272 173.479 146.358 172.925C146.548 171.682 147.588 171.098 148.641 170.621C150.985 169.56 153.555 168.895 156.114 168.63C156.703 168.568 157.293 168.53 157.886 168.511C158.582 168.49 159.156 168.367 159.509 169.051C160.063 170.128 160.368 171.513 160.551 172.742ZM157.295 211.787C156.785 210.027 156.924 208.147 156.574 206.352C156.393 205.426 156.147 204.507 155.878 203.603C155.66 202.872 155.298 202.095 155.257 201.333C155.254 201.282 155.315 201.253 155.356 201.276C156.077 201.688 156.63 202.577 157.041 203.274C157.533 204.109 157.909 204.983 158.212 205.902C158.816 207.733 159.311 209.941 158.533 211.787C158.301 212.336 157.487 212.446 157.295 211.787ZM141.51 188.473C141.942 188.432 142.373 188.349 142.805 188.253C142.323 188.722 141.877 189.286 141.629 189.912C141.591 189.432 141.542 188.952 141.477 188.475C141.487 188.475 141.5 188.475 141.51 188.473ZM137.362 225.111C136.601 224.582 136.046 223.842 135.401 223.189C134.766 222.547 135.758 221.558 136.393 222.2C136.944 222.757 137.422 223.453 138.07 223.903C138.382 224.12 138.527 224.511 138.322 224.86C138.142 225.167 137.673 225.327 137.362 225.111ZM133.117 204.771C134.507 204.172 135.873 203.52 137.327 203.089C138.196 202.831 138.564 204.182 137.701 204.438C136.361 204.835 135.105 205.427 133.826 205.978C133.004 206.332 132.29 205.127 133.117 204.771ZM118.444 204.352C118.104 203.517 119.462 203.157 119.797 203.98C120.183 204.928 120.625 205.852 121.01 206.8C121.35 207.635 119.991 207.995 119.657 207.172C119.271 206.224 118.829 205.3 118.444 204.352ZM103.961 221.033C103.734 221.334 103.357 221.497 103 221.284C102.702 221.106 102.519 220.632 102.749 220.328C103.418 219.439 104.095 218.561 104.879 217.769C105.515 217.127 106.507 218.117 105.872 218.758C105.172 219.465 104.558 220.24 103.961 221.033ZM101.89 127.436C102.534 127.874 103.098 128.407 103.649 128.955C104.289 129.592 103.296 130.581 102.656 129.944C102.192 129.482 101.725 129.013 101.181 128.644C100.867 128.43 100.726 128.033 100.929 127.687C101.111 127.377 101.576 127.223 101.89 127.436ZM122.961 149.942C122.596 150.668 122.268 151.381 122.248 152.207C122.226 153.107 120.822 153.107 120.844 152.207C120.871 151.126 121.271 150.189 121.749 149.236C122.152 148.429 123.363 149.139 122.961 149.942ZM130.692 131.867C131.446 131.365 132.148 132.577 131.4 133.074C130.794 133.477 130.187 133.88 129.581 134.283C128.827 134.784 128.125 133.572 128.872 133.075C129.479 132.672 130.085 132.269 130.692 131.867ZM97.159 163.469C97.0302 164.358 95.6778 163.978 95.8053 163.098C96.0027 161.737 96.2436 160.395 96.614 159.07C96.8565 158.203 98.2102 158.573 97.9675 159.442C97.5971 160.767 97.3562 162.109 97.159 163.469ZM92.2376 179.49C91.3341 179.471 91.334 178.072 92.2376 178.091C93.0552 178.109 93.859 178.323 94.6477 178.519C95.5249 178.738 95.1509 180.086 94.2745 179.868C93.6077 179.702 92.9289 179.505 92.2376 179.49ZM90.4209 211.762C90.1105 211.912 89.792 212.048 89.4783 212.191C88.85 212.477 88.222 212.764 87.5943 213.051C86.2864 213.649 84.9792 214.249 83.6733 214.851C81.059 216.057 78.4245 217.22 75.8038 218.413C73.1314 219.629 70.4661 220.862 67.804 222.101C66.5498 222.684 65.2862 223.246 64.025 223.814C62.9466 224.3 61.6137 225.149 60.4299 225.229C60.369 225.233 60.3486 225.156 60.3834 225.117C60.8306 224.61 61.544 224.316 62.1318 223.986C62.7322 223.649 63.3439 223.333 63.9527 223.012C65.222 222.342 66.4928 221.677 67.7744 221.03C70.3378 219.738 72.9062 218.455 75.475 217.173C78.095 215.866 80.7116 214.55 83.3545 213.29C84.5988 212.696 85.8444 212.104 87.0907 211.514C87.7659 211.195 88.4414 210.875 89.1169 210.557C89.4087 210.419 89.6975 210.271 89.9957 210.148C90.3921 209.984 90.6934 210.018 91.1022 209.917C91.7689 209.753 92.0576 210.598 91.5457 210.966C91.1243 211.269 90.9025 211.528 90.4209 211.762ZM81.0502 226.103C80.9062 225.754 81.2078 225.33 81.5404 225.242C81.9389 225.138 82.2584 225.379 82.4039 225.731C82.7886 226.663 83.3368 227.519 84.0423 228.242C84.6729 228.888 83.6808 229.877 83.0497 229.231C82.1656 228.325 81.5304 227.266 81.0502 226.103ZM74.1563 203.654C73.5164 203.016 74.5091 202.027 75.1489 202.665L76.968 204.477C77.6079 205.115 76.615 206.104 75.9754 205.466L74.1563 203.654ZM55.4928 200.699C54.185 201.081 52.6595 201.432 51.7679 202.544C51.7244 202.598 51.6512 202.528 51.6773 202.474C52.8189 200.116 56.0926 199.289 58.3591 198.463C59.9623 197.879 61.6072 197.394 63.266 196.961C63.1002 195.076 63.5574 193.055 63.7164 191.179C63.886 189.176 64.0241 187.168 64.095 185.158C64.1675 183.108 64.185 181.045 64.1173 178.994C64.0499 176.952 63.7837 174.934 63.6672 172.898C63.656 172.701 63.9311 172.692 63.9904 172.854C64.6793 174.744 64.9735 176.837 65.1978 178.829C65.4287 180.881 65.5053 182.927 65.4759 184.991C65.4453 187.114 65.3215 189.231 65.1514 191.346C65.0709 192.349 64.9774 193.35 64.8891 194.352C64.8218 195.117 64.7905 195.876 64.634 196.616C65.6345 196.371 66.6372 196.14 67.6368 195.915C70.8242 195.198 74.0249 194.533 77.1989 193.758C78.757 193.378 80.2927 192.923 81.8438 192.518C83.3043 192.137 84.8459 191.675 86.3453 191.505C86.8805 191.445 86.9486 192.174 86.5943 192.421C85.3756 193.274 83.757 193.868 82.3493 194.345C80.9365 194.824 79.4679 195.168 78.0199 195.523C75.0001 196.263 71.9517 196.868 68.9078 197.498C65.8682 198.128 62.8228 198.753 59.8173 199.529C58.37 199.904 56.9276 200.279 55.4928 200.699ZM48.3259 163.283C47.5444 163.74 46.8389 162.531 47.6176 162.075C48.6365 161.48 49.7224 161.032 50.8171 160.595C51.6572 160.26 52.0186 161.613 51.1903 161.944C50.2065 162.336 49.2415 162.748 48.3259 163.283ZM45.4961 215.242C44.7125 215.695 44.0065 214.486 44.7878 214.035C45.8851 213.401 47.0868 212.978 48.224 212.424C49.033 212.029 49.7436 213.236 48.9323 213.631C47.7953 214.186 46.5934 214.609 45.4961 215.242ZM44.2234 185.748C44.981 186.465 45.9921 186.803 46.9456 187.179C47.7769 187.507 47.4123 188.859 46.5724 188.528C45.3845 188.058 44.1746 187.63 43.2308 186.737C42.5742 186.115 43.5685 185.128 44.2234 185.748ZM52.6052 145.692C53.4381 146.018 53.0733 147.37 52.232 147.041C51.2989 146.676 50.3353 146.398 49.4022 146.034C48.5694 145.708 48.934 144.356 49.7754 144.685C50.7085 145.05 51.6721 145.327 52.6052 145.692ZM67.3915 129.782C68.2765 129.633 68.6534 130.981 67.7647 131.131C66.6621 131.316 65.5764 131.533 64.5307 131.936C63.6862 132.262 63.3239 130.909 64.1575 130.588C65.2034 130.185 66.2891 129.967 67.3915 129.782ZM72.2771 168.519C71.4656 168.122 72.1777 166.916 72.9855 167.312C73.8368 167.729 74.7188 168.051 75.6477 168.248C76.5322 168.436 76.1555 169.784 75.2745 169.597C74.2291 169.375 73.2344 168.988 72.2771 168.519ZM76.8915 146.699C77.7653 146.461 78.1348 147.81 77.2647 148.048C75.7338 148.466 74.1577 148.683 72.6156 149.055C71.7367 149.267 71.3649 147.918 72.2424 147.706C73.7845 147.334 75.3608 147.117 76.8915 146.699ZM96.4666 139.852C97.3551 140.015 96.9765 141.363 96.0936 141.2C95.1537 141.027 94.2011 141.024 93.2482 141.024C92.3435 141.023 92.3451 139.625 93.2482 139.625C94.3308 139.626 95.3995 139.655 96.4666 139.852ZM160.309 147.158C158.015 146.94 155.719 146.765 153.418 146.634C153.311 146.628 153.206 146.622 153.099 146.616C153.087 146.592 153.071 146.569 153.055 146.544C152.304 145.447 151.752 144.349 151.273 143.107C150.815 141.926 150.371 140.707 149.665 139.641C148.861 138.426 147.775 137.475 146.585 136.651C145.863 137.135 145.193 137.702 144.579 138.302C143.934 138.933 142.942 137.945 143.587 137.313C144.132 136.779 144.713 136.287 145.328 135.841C144.618 135.412 143.894 135.008 143.188 134.606C140.54 133.101 137.829 131.709 135.062 130.437C133.776 129.844 132.474 129.318 131.163 128.784C130.458 128.498 129.762 128.129 129.056 127.797C129.107 127.3 128.958 126.744 128.575 126.417C128.293 126.178 128.074 126.089 127.737 125.919C127.661 125.893 127.616 125.877 127.595 125.868C127.61 125.872 127.656 125.886 127.731 125.91C127.91 125.993 127.924 125.968 127.774 125.839C127.765 125.556 127.205 124.958 127.077 124.666C126.631 123.664 126.493 122.605 125.835 121.692C124.928 120.435 123.405 119.96 121.985 120.386C121.838 118.874 121.799 117.295 121.227 115.946C121.211 115.909 121.161 115.893 121.138 115.933C120.541 116.946 120.49 118.073 120.445 119.241C120.401 120.337 120.443 121.458 120.587 122.547C120.496 122.617 120.403 122.683 120.306 122.748C119.853 123.045 119.366 123.274 118.853 123.444C117.878 123.765 116.855 123.905 115.832 123.954C113.191 124.08 110.47 123.814 107.873 123.363C105.247 122.907 101.22 122.222 98.8827 120.912C97.3402 120.049 95.9174 118.994 94.475 117.974C94.998 116.295 95.1314 114.491 94.605 113.073C94.5419 112.904 94.2752 112.872 94.2243 113.073C93.8944 114.426 93.7979 115.787 93.3593 117.124C93.3523 117.143 93.3452 117.164 93.3382 117.183C93.2014 117.091 93.0645 117 92.9276 116.909C92.6118 116.701 92.182 116.857 91.9925 117.154C88.9621 121.91 84.1635 122.183 79.1244 123.033C73.6096 123.963 68.067 124.966 62.7647 126.786C57.694 128.528 52.8478 131.063 49.0088 134.849C48.1398 135.706 47.327 136.62 46.5599 137.574C47.3021 137.667 48.0382 137.812 48.7647 138.039C49.625 138.308 49.2553 139.658 48.3915 139.388C47.4577 139.096 46.5136 138.951 45.5598 138.879C42.9513 142.434 40.9174 146.466 39.1586 150.434C35.7851 158.043 33.5892 166.145 32.5787 174.394C33.1335 174.063 33.6983 173.748 34.2772 173.454C35.0815 173.047 35.7909 174.254 34.9857 174.662C34.0915 175.115 33.223 175.614 32.3815 176.156C32.0139 179.767 31.8715 183.401 31.9578 187.029C32.1631 195.68 33.3351 204.583 35.9863 212.836C37.2865 216.887 39.0095 220.905 41.5764 224.328C42.7379 225.878 44.0574 227.277 45.6119 228.443C46.3646 229.009 47.1612 229.515 48.0017 229.941C49.0842 230.493 50.4949 230.675 51.4284 231.457C51.7354 231.714 51.9723 232.053 52.1512 232.436C52.0477 233.163 52.0354 233.892 52.2355 234.619C52.2986 234.847 52.4706 235.032 52.6829 235.121C52.6864 235.184 52.6864 235.245 52.6864 235.304C52.6864 235.332 52.7285 235.339 52.7338 235.312C52.7425 235.257 52.7513 235.203 52.7601 235.147C52.8285 235.17 52.9004 235.18 52.9741 235.18C55.6393 235.19 58.3079 235.126 60.9766 235.036C60.7703 234.406 60.5467 233.781 60.3321 233.151C60.0407 232.296 61.3968 231.932 61.6856 232.78C61.9367 233.516 62.1992 234.246 62.4327 234.985C65.2922 234.879 68.1507 234.752 71.0042 234.658C77.0733 234.457 83.1406 234.39 89.2113 234.263C98.6388 234.064 108.135 233.656 117.577 234.055C117.904 233.364 118.269 232.689 118.616 232.008C119.024 231.205 120.235 231.913 119.828 232.714C119.587 233.187 119.337 233.655 119.1 234.127C121.012 234.226 122.923 234.357 124.829 234.535C128.082 234.839 131.304 235.38 134.553 235.715C137.857 236.058 141.089 235.997 144.367 235.453C144.956 235.355 145.304 235 145.447 234.56C145.453 234.558 145.456 234.555 145.46 234.549C145.628 234.353 145.786 234.191 145.949 234.049C146.144 233.923 146.355 233.817 146.602 233.722C147.063 233.547 147.544 233.441 148.032 233.369C148.569 233.289 149.113 233.282 149.65 233.215C150.102 233.158 150.544 233.072 150.986 232.967C151.781 232.778 152.536 232.532 153.287 232.205C153.941 231.92 154.532 231.511 155.091 231.065C156.245 230.224 157.245 229.151 158.119 228.035C158.628 227.383 159.107 226.707 159.542 226.002C160.3 224.782 160.946 223.514 161.598 222.237C161.835 221.858 162.051 221.47 162.249 221.074C160.973 220.7 159.685 220.394 158.333 220.373C157.429 220.358 157.429 218.96 158.333 218.974C159.884 218.999 161.351 219.36 162.809 219.79C162.88 219.602 162.948 219.413 163.011 219.221C163.184 218.821 163.328 218.41 163.448 217.994C163.518 217.805 163.588 217.616 163.658 217.427C163.816 216.773 163.974 216.118 164.134 215.462C164.451 214.413 164.702 213.349 164.886 212.27C165.041 211.56 165.16 210.845 165.241 210.121C165.486 208.368 165.686 206.618 165.701 204.845C165.679 203.753 165.609 202.662 165.49 201.576C165.439 200.839 165.353 200.104 165.237 199.375C165.086 198.291 164.937 197.218 164.686 196.148C164.499 195.424 164.311 194.701 164.123 193.977C163.655 192.468 163.102 190.989 162.465 189.543C162.43 189.453 162.253 189.253 162.146 189.251C162.065 189.25 161.953 189.323 161.989 189.421C161.993 189.43 161.996 189.44 162 189.449C161.963 189.367 161.928 189.283 161.891 189.201C161.86 189.124 161.737 188.97 161.642 188.972C161.637 188.972 161.631 188.972 161.625 188.973C161.649 188.956 161.672 188.933 161.695 188.907C162.325 188.164 162.734 187.187 163.184 186.327C163.558 185.617 163.911 184.869 164.013 184.066C164.102 183.362 163.981 182.668 163.537 182.098C163.032 181.449 162.081 181.145 162.609 180.208C163.209 179.142 164.092 178.217 163.213 177.005C162.765 176.388 162.056 176.049 161.53 175.512C160.925 174.892 160.637 174.061 160.653 173.213C160.689 173.234 160.739 173.224 160.756 173.171C161.265 171.64 160.897 169.958 160.375 168.467C160.091 167.658 159.489 167.436 158.789 167.396C161.821 161.495 164.658 155.501 167.187 149.368C167.271 149.167 167.353 148.966 167.436 148.765C167.559 148.464 167.299 148.064 166.999 147.997C164.813 147.52 162.535 147.368 160.309 147.158Z" fill="black"/>
<path fill-rule="evenodd" clip-rule="evenodd" d="M135.015 74.0816C134.598 68.7069 135.244 63.0735 133.164 57.9649C129.538 49.4887 119.369 46.6626 111.486 43.4356C108.327 42.5058 97.7002 42.3758 94.0023 41.1452C85.6329 38.36 83.6332 35.0414 76.983 40.3446C75.8604 41.2505 75.158 42.2351 74.6457 43.5803L74.6668 43.5861C74.5204 44.1469 74.6773 44.7065 75.007 45.1339C72.1235 48.0706 70.9169 52.4733 72.3963 56.3824C77.2244 66.5551 76.9974 72.0554 75.4417 82.9915C73.4103 93.2011 78.0524 96.9305 85.7402 102.486C85.4272 103.09 85.3623 103.894 85.7704 104.428C94.6603 116.875 111.422 122.817 125.784 116.5C131.614 113.915 134.216 107.729 135.702 102.147C137.432 95.8977 137.963 89.3122 136.555 82.9459C135.987 80.0016 135.247 77.0786 135.015 74.0816Z" fill="white"/>
<path fill-rule="evenodd" clip-rule="evenodd" d="M83.7362 14.5344C84.8153 14.3729 85.6302 15.04 86.0178 15.9802L86.0382 16.0309C86.1628 16.3508 86.3014 16.662 86.4505 16.9679C89.1508 15.648 93.0039 15.9871 94.7128 18.6602C95.9323 20.5692 95.1883 22.8349 94.7286 24.8593L94.4268 26.1932C95.0102 26.5631 95.4501 27.2254 95.4294 27.9113L95.4269 27.9641L95.3041 29.8242C95.6936 29.4309 96.0498 29.0025 96.3674 28.5463C96.5867 28.1459 96.8236 27.7526 97.078 27.3715C98.5747 25.1285 101.935 27.0778 100.699 29.4798C100.463 29.9431 100.196 30.3819 99.9099 30.8049C99.587 31.4291 99.3221 32.0706 99.1186 32.7297C99.7028 32.9832 100.152 33.5461 100.199 34.3958C100.31 36.38 99.2642 38.0355 97.6009 39.0757C97.1113 39.3816 96.606 39.4411 96.1481 39.3275C96.0674 39.4358 95.9866 39.5442 95.9094 39.6544C96.5727 40.1911 97.171 40.8029 97.6851 41.4812C99.2326 41.2505 100.789 41.1421 102.345 41.1386C104.247 40.2103 106.525 40.2295 108.569 40.5774C109.885 40.8012 111.148 41.2365 112.443 41.5494C113.808 41.8781 115.194 41.8903 116.575 42.1141C118.315 42.3956 119.842 43.1962 120.802 44.4742C121.856 44.5056 122.965 44.9357 123.884 45.5196C126.025 46.8797 128.153 48.259 130.289 49.6279C131.108 50.1534 131.415 50.9924 131.264 51.9281L131.254 51.988L131.182 52.3761L131.351 52.6149C132.004 53.5344 132.715 54.4975 133.138 55.5123C133.921 56.6364 134.628 57.8147 135.254 59.0297C136.098 60.6626 136.795 62.3933 137.267 64.1695C137.384 64.6188 137.502 65.0715 137.579 65.5296C137.689 66.1764 137.519 66.6781 137.426 67.2987C137.31 68.0854 137.268 68.8826 137.146 69.6711C137.063 70.1938 136.617 70.4508 136.151 70.4647C136.326 71.7951 136.452 73.1343 136.574 74.4629C136.744 76.3614 136.86 78.2652 136.96 80.169C137.475 80.9155 138.53 81.5064 139.291 81.711C140.346 81.9924 141.451 81.6865 142.448 81.3281C143.074 81.1026 143.588 81.8875 143.283 82.412C142.323 84.0588 140.27 84.0518 138.716 83.3228C138.058 83.0151 137.481 82.5693 137.053 81.9889C137.079 82.5414 137.107 83.0938 137.135 83.648L137.161 84.1499C137.477 90.012 138.16 96.0757 137.054 101.88C135.14 111.934 126.79 119.589 116.589 120.184C111.236 120.496 106.778 118.92 104.562 118.042C102.345 117.163 103.207 115.371 104.746 115.883C107.396 116.766 112.266 118.08 116.624 117.512C126.895 116.175 135.605 111.06 134.71 89.029C134.583 85.9048 134.193 82.7791 134.108 79.6551C134.028 76.601 134.057 73.5451 133.922 70.4927L133.877 69.4513C133.825 68.2344 133.768 67.0118 133.677 65.7935C133.566 65.3215 133.475 64.8425 133.34 64.3792C132.973 63.1188 132.494 61.8933 131.899 60.7237C131.768 60.8234 131.62 60.8951 131.461 60.923C130.248 61.1398 129.111 61.0786 127.976 60.5751C127.446 60.3426 126.98 60.0332 126.544 59.6503C126.337 59.4703 126.199 59.2955 126.09 59.1136C125.541 59.1224 124.992 58.9581 124.648 58.5647C124.255 58.1164 124.19 57.6533 124.344 57.2246L124.36 57.1819L124.321 57.1679C123.858 58.3619 122.935 59.4126 121.923 60.1224C120.323 61.2482 118.321 61.5734 116.401 61.6031C114.282 61.6346 112.046 61.3094 109.955 60.9772C109.402 60.8898 108.853 60.7902 108.314 60.6556C108.293 60.6765 108.272 60.701 108.249 60.722C106.454 62.4335 103.93 62.874 101.652 61.8968C100.336 61.3321 99.2326 60.4231 98.2571 59.3811C98.243 59.9266 98.215 60.472 98.1676 61.0122L98.148 61.2267C98.0508 62.2328 97.8639 63.3 97.1008 64.0261C95.8673 65.2027 94.0777 64.7306 92.6547 63.9649C92.6565 64.0016 92.6565 64.0401 92.6565 64.0786C93.0407 65.3792 93.4267 66.6816 93.8127 67.984L93.8959 68.2615C94.1766 69.1863 94.4844 70.1123 94.569 71.0801C94.7304 72.9297 93.4951 74.7566 91.4318 74.136C90.3494 73.8116 89.4824 72.9049 88.6504 72.1787L88.1261 71.727C89.4824 76.1447 90.4229 80.7197 90.5106 85.3297C90.5159 85.5797 90.3001 85.7685 90.0614 85.7773C89.5035 85.8 88.9034 85.6899 88.3419 85.4679C88.3104 85.4661 88.2788 85.4644 88.2454 85.4591C87.2874 85.321 86.3979 84.9766 85.6136 84.4679C85.7943 85.0395 85.875 85.6532 85.8276 86.2948C85.8154 86.4503 85.5715 86.5045 85.5364 86.3332C85.0837 84.1147 82.4781 82.4382 80.2323 82.863C77.8215 83.3193 76.0459 85.3857 75.6107 87.737C75.144 90.2632 76.0371 93.1844 77.6917 95.1337C78.4531 96.0323 79.455 96.7822 80.6446 96.971C81.1885 97.0567 81.7535 97.027 82.2816 96.8732C82.5062 96.8067 82.7168 96.7141 82.9308 96.6267C83.2431 96.5008 83.6081 96.4816 83.9029 96.3487C84.5714 96.0497 85.2434 96.6634 84.9047 97.3469C84.61 97.9431 84.345 98.3451 83.8555 98.6528C84.252 99.1353 84.6117 99.8066 84.7451 99.9867C85.4258 100.903 86.1171 101.768 86.8927 102.606C87.6822 103.455 88.5437 104.231 89.4544 104.95L89.8371 105.251C90.7142 105.944 91.478 106.587 92.0967 107.581C92.5845 108.366 91.9529 109.431 91.0387 109.418C88.1788 109.378 86.0996 106.875 84.6187 104.688C84.4082 104.375 84.2099 104.044 84.0257 103.705C83.959 103.812 83.8853 103.911 83.8029 104.002L83.966 104.439C84.4503 105.726 82.3641 106.567 81.7588 105.366C81.3184 104.495 80.8078 103.667 80.2393 102.883C79.9042 102.836 79.5761 102.633 79.3936 102.371C78.9321 101.705 78.4145 101.032 77.9777 100.322C77.7355 100.093 77.4864 99.8731 77.232 99.658C77.1583 99.7227 77.0828 99.7874 77.0109 99.8556C76.6916 100.581 76.2968 101.244 75.8072 101.868L75.7023 102.001C74.7645 103.179 73.5429 104.384 72.0314 104.672C71.5699 104.759 71.126 104.188 71.5348 103.822C72.5929 102.875 73.8439 102.23 74.8194 101.172C75.3 100.651 75.7413 100.077 76.1208 99.4756L76.2073 99.3364C76.2705 99.2332 76.3354 99.1301 76.402 99.0252C75.9616 98.7262 75.5212 98.4256 75.0808 98.1249C73.8685 99.1569 72.2897 99.6289 70.9487 100.484L70.8155 100.571C69.6031 101.378 68.3257 99.5916 69.2978 98.6109C70.3693 97.5338 71.2638 96.2494 72.213 95.0522C71.7666 94.233 71.5554 93.2643 71.4762 92.2853C71.445 92.0082 71.4206 91.731 71.3962 91.4537C70.7155 91.4642 70.0312 91.2317 69.4522 90.8314L69.2328 90.6758C68.5292 90.8995 67.7906 91.0079 67.0835 90.9887C65.4201 90.9397 64.7394 89.0464 65.7798 87.8489C66.8413 86.6252 68.6994 86.3577 70.1715 86.9521C70.2189 86.9276 70.268 86.9014 70.3154 86.8752C70.2452 86.5535 70.2608 86.2617 70.3407 86.0054L70.3175 85.8491C69.9938 85.3542 69.781 84.7892 69.7003 84.1922C69.6364 83.7193 69.6494 83.2506 69.7592 82.7837C69.7957 82.6282 69.8717 82.4672 69.9298 82.3052C69.8101 82.0041 69.7397 81.693 69.718 81.38C69.6845 81.3403 69.6511 81.2996 69.6195 81.2556C68.8891 80.2337 69.0367 79.0025 69.7318 78.1756C69.735 78.1229 69.7399 78.0703 69.7471 78.018C69.7064 77.9268 69.669 77.8347 69.635 77.7415C68.9558 77.0588 68.4571 76.2373 68.5501 75.2193C68.6047 74.6204 68.8517 74.0813 69.2256 73.6783C69.1593 73.4829 69.153 73.2565 69.2334 73.0675C68.6366 71.4861 68.7121 69.5814 69.1416 67.8127C69.0469 67.5435 68.9977 67.2515 69.0083 66.9421C69.0574 65.6292 70.1979 64.4229 71.5489 64.4387C71.7115 64.4401 71.8638 64.4612 72.0102 64.4922L72.0121 64.4609C72.0638 64.0668 72.1726 63.7027 72.3314 63.376C72.2533 63.3478 72.1811 63.3074 72.1177 63.2538C71.252 63.7139 70.3359 64.0656 69.3755 64.3053C68.6693 64.4815 67.9459 63.6817 68.3848 63.0212C68.5886 62.7148 68.8133 62.4396 69.0554 62.1882C68.7112 62.1901 68.3617 62.2134 68.0081 62.2587C67.373 62.3408 66.6641 61.909 66.2518 61.3251C65.7395 61.8216 65.2254 62.3164 64.7113 62.8111C63.4094 64.0681 61.4425 63.1433 61.2372 61.486C60.8495 61.3828 60.488 61.208 60.1704 60.958C58.1176 61.8461 55.9086 62.3338 53.6504 62.4265C52.0292 62.4929 51.0817 60.6119 51.8397 59.2832C52.3485 58.3916 52.9802 57.591 53.7083 56.8952C52.5784 57.2396 51.4116 57.4878 50.2202 57.6469C49.5763 57.7326 48.6657 57.2011 48.4077 56.612C47.4217 54.3463 47.5059 51.9845 48.6411 49.78C48.685 49.6926 48.7341 49.6086 48.7815 49.5247C48.899 49.2328 49.0271 48.9443 49.1657 48.6611C47.7691 47.2101 47.648 45.0528 48.4007 43.2469C48.0989 42.7592 47.9831 42.1718 48.1884 41.6403C48.7727 40.1106 49.6149 38.6981 50.6782 37.4848C50.5764 37.289 50.4869 37.081 50.4115 36.8572C49.8132 35.0478 50.5062 32.8643 51.9046 31.6039C52.7837 30.8102 53.7943 30.3347 54.8734 30.0305C55.3278 29.2298 55.9121 28.5078 56.5929 27.8994C56.6192 27.8417 56.6455 27.784 56.6753 27.7264C57.7351 25.7369 59.6651 24.6705 61.7338 24.424C61.8145 23.646 62.3409 22.9031 63.1058 22.6618C63.3164 21.9887 63.6305 21.3454 64.0621 20.7615C64.7411 19.8419 65.8693 19.4084 66.9326 20.0115C67.5151 20.3419 68.0731 20.7213 68.5959 21.1409C68.8308 21.0311 69.097 20.9601 69.3974 20.9375L69.4732 20.9328L71.2032 20.8454C71.9279 20.5255 72.6508 20.1898 73.3754 19.8629C73.8105 19.5045 74.2965 19.2056 74.8264 18.9836C75.4265 18.7336 76.0406 18.592 76.6565 18.5448C77.1565 18.3822 77.6601 18.2388 78.1724 18.127C79.3761 17.8647 80.6358 17.7179 81.8851 17.7301C81.9107 17.4079 81.9233 17.0819 81.9209 16.752L81.9184 16.5868C81.8904 15.5291 82.7378 14.6847 83.7362 14.5344ZM82.5238 99.1563C82.3518 99.193 82.1781 99.2227 82.0044 99.2437C82.057 99.3731 82.1097 99.5025 82.1606 99.6318C82.3009 99.7105 82.4431 99.7857 82.5852 99.8556C82.5431 99.6178 82.5185 99.3783 82.5238 99.1563ZM73.5093 96.4873L73.3926 96.7013C73.3737 96.7363 73.3551 96.7709 73.3368 96.805C73.5842 96.7857 73.8333 96.791 74.079 96.819L74.0783 96.7929C74.0467 96.7822 74.0151 96.7725 73.9849 96.7578C73.8154 96.6767 73.6579 96.5857 73.5093 96.4873ZM78.3812 86.7231C79.9335 86.8132 81.2487 87.0503 82.6604 87.7269L82.7817 87.786C84.0292 88.4031 86.0926 89.5429 85.9189 91.1775C85.8697 91.6425 85.5311 92.132 84.9977 92.0953C83.5362 91.9957 82.701 90.5272 81.7114 89.6111C80.713 88.6881 79.4866 87.7388 78.2777 87.1042C78.1068 87.0148 78.1741 86.7321 78.3601 86.7229L78.3812 86.7231ZM71.3418 65.1869C70.9699 65.1991 71.0944 65.5593 71.2857 65.2586C71.3015 65.2341 71.3208 65.2096 71.3418 65.1869ZM91.4205 41.1452C87.8977 41.2375 84.3522 43.31 81.7132 45.4049C79.4173 47.2274 77.4348 49.3952 75.6793 51.7317C75.2277 52.8953 74.8399 54.0832 74.5124 55.2798C74.2966 56.07 74.1614 56.869 73.9807 57.6661L73.9246 57.9105C73.7826 58.1749 73.6772 58.4593 73.6003 58.7532C73.9202 59.0727 74.3352 59.3016 74.792 59.4101C74.9393 59.4451 75.0615 59.5208 75.1582 59.6212C75.526 59.0096 75.8474 58.3642 76.0345 57.6799L76.0413 57.6483C76.7482 56.4947 77.516 55.3769 78.3391 54.2973C80.6095 51.3166 83.1098 48.5999 86.1154 46.3395C88.3946 44.6263 90.9422 43.2836 93.6513 42.4113C92.9882 41.8783 92.2352 41.4566 91.4205 41.1452Z" fill="black"/>
<path fill-rule="evenodd" clip-rule="evenodd" d="M122.46 102.681C122.729 102.215 123.349 101.783 123.916 101.849C126.456 102.146 126.452 105.215 125.471 107.007C124.601 108.595 122.801 109.528 120.999 109.392C119.107 109.248 117.494 108.14 116.784 106.376C116.315 105.209 116.098 103.054 117.347 102.27C117.37 102.256 117.408 102.259 117.427 102.28C118.025 102.974 118.049 104.016 118.573 104.788C119.06 105.507 119.817 106.1 120.705 106.192C121.367 106.26 122.037 106.022 122.297 105.43C122.437 105.109 122.421 104.935 122.368 104.714L122.32 104.523C122.154 103.851 122.08 103.34 122.46 102.681ZM123.139 89.2228C124.464 90.0253 126.483 91.8964 125.057 93.8857C123.379 95.6398 120.964 93.6286 119.774 92.7191C118.67 92.0142 117.43 93.8271 118.454 94.6503C127.055 100.995 130.546 89.4327 123.809 88.2794C123.067 88.1523 122.792 88.9746 123.139 89.2228ZM109.147 83.7204C109.961 82.5047 111.817 82.6837 112.265 84.1264C112.508 84.9078 112.172 85.6102 112.19 86.3906C112.204 87.0499 112.161 87.7845 111.958 88.4229C111.496 89.8788 110.181 90.9071 108.627 90.8645C107.077 90.822 105.712 89.8448 105.063 88.4684C104.412 87.0868 104.55 85.6569 105.025 84.2521C105.048 84.1846 105.137 84.1519 105.19 84.2087C105.752 84.8038 106.164 85.4321 106.59 86.0986L107.026 86.7816C107.359 87.2959 107.844 87.9529 108.467 87.9117L108.56 87.9025C108.733 87.8877 108.706 87.9219 108.84 87.6869C108.902 87.5782 108.89 87.3761 108.92 87.2478L108.931 87.2044V87.2044L108.925 87.1811C108.912 87.1189 108.899 87.0018 108.888 86.7986L108.886 86.7537C108.841 85.8032 108.571 84.5818 109.147 83.7204ZM129.762 84.5298C129.616 82.9749 131.81 82.6296 132.54 83.7801C132.92 84.3801 133.031 85.1338 133.115 85.8478L133.154 86.1867C133.241 86.9201 133.275 87.683 132.955 88.3671C132.452 89.4445 131.358 90.0141 130.177 89.9239C129.05 89.8375 128.021 89.1863 127.479 88.1977C126.996 87.3155 126.515 85.5932 127.102 84.6731C127.138 84.6174 127.209 84.6102 127.257 84.6532C127.812 85.1439 127.902 86.039 128.232 86.6783C128.573 87.3377 129.089 87.9804 129.871 88.0805C130.619 88.1763 130.905 87.7692 130.714 87.0585C130.468 86.1411 129.855 85.517 129.762 84.5298ZM109.74 74.4765L110.099 74.3396C111.328 73.8769 113.016 73.3421 114.015 74.338C114.632 74.9522 114.749 75.8569 114.309 76.6063C113.776 77.5142 112.819 77.5366 111.896 77.6703C110.845 77.8224 109.777 78.1115 108.799 78.5238C107.697 78.9883 106.675 79.5673 105.673 80.2139C104.721 80.8284 103.772 81.8328 102.633 82.0221C102.586 82.0298 102.534 82.0099 102.521 81.959C102.263 80.8489 102.982 79.7564 103.624 78.8904C104.4 77.8418 105.341 76.9812 106.393 76.2095C107.408 75.4646 108.568 74.9263 109.74 74.4765ZM132.07 78.4234L132.18 78.4042C132.925 78.2806 133.601 78.309 134.162 78.8973C134.591 79.3461 134.756 79.9277 134.552 80.521C134.363 81.0684 133.942 81.6245 133.329 81.7392C131.263 82.1266 128.973 82.0626 126.896 81.7692C125.946 81.635 124.987 81.4707 124.062 81.2116L123.636 81.0886C122.863 80.8686 121.978 80.6389 121.417 80.0726C121.215 79.8691 121.332 79.5779 121.573 79.4836C122.552 79.1015 123.895 79.3048 124.939 79.2749C126.154 79.2403 127.371 79.1496 128.58 79.0246C129.761 78.9022 130.905 78.6363 132.07 78.4234Z" fill="black"/>
</svg>
