<svg width="32" height="32" viewBox="0 0 32 32" fill="none" xmlns="http://www.w3.org/2000/svg">
<g clip-path="url(#clip0_2101_16656)">
<rect width="32" height="32" rx="16" fill="#F4BB44"/>
<path fill-rule="evenodd" clip-rule="evenodd" d="M27.2911 31.737C26.7046 28.9486 24.6245 26.7849 21.827 25.7071C21.2892 25.4019 20.768 24.0923 20.0453 23.8525C19.9294 23.814 20.1123 24.12 20.0453 24.1382C19.8063 24.2034 19.5385 24.2102 19.2746 23.9749C18.803 23.5542 18.655 22.3253 18.3683 21.7699C16.856 18.8406 13.0801 19.9868 12.5742 23.225C12.2215 23.4557 11.7229 23.6589 11.339 23.8448C10.9436 24.0363 10.5958 24.4999 10.1884 24.6657C9.82488 24.8136 9.22589 24.7088 8.85957 24.8378C7.17475 25.4308 5.74776 26.1792 4.62901 27.6954C4.39328 28.0152 4.12755 28.4083 3.91303 28.7314C2.80708 30.0089 2.03891 31.4409 1.33142 32.9772C-0.647987 37.4865 -1.18638 42.4793 -1.66942 47.3378C-1.65844 48.1879 -2.22058 50.5452 -1.38916 50.9527C-1.43885 51.0044 -1.42085 51.1082 -1.32865 51.1073C0.779506 51.086 2.88276 51.2753 4.95821 51.6434C5.95958 51.821 6.95558 52.0645 7.97558 52.1046C10.0929 52.0899 12.2027 51.7339 14.3173 52.0708C16.8593 52.0708 19.9487 51.9964 22.7768 51.8873C25.4198 51.7854 28.077 52.0157 30.6873 51.5646C30.894 51.5318 30.9949 51.2789 30.9516 51.0977C30.6453 49.9779 30.495 48.8254 30.3231 47.6793C30.3573 46.9441 30.2961 46.1767 30.0251 45.4919C29.317 40.8695 28.409 36.2772 27.2911 31.737Z" fill="white"/>
<path fill-rule="evenodd" clip-rule="evenodd" d="M26.4381 37.813C26.3823 38.0848 26.3042 38.3566 26.2002 38.614C26.1001 38.8624 25.9492 39.085 25.8453 39.3305C25.8314 39.3636 25.8086 39.3886 25.7811 39.4077L25.7896 39.4744L25.7976 39.5412C25.8494 39.9919 25.9077 40.4413 25.9581 40.8919L25.9827 41.1173C26.0819 42.0581 26.2387 42.9943 26.3604 43.9326C26.4795 44.8515 26.6008 45.7703 26.7305 46.6878C26.8645 47.6338 27.0009 48.5785 27.1602 49.5206C27.2275 49.9185 27.2977 50.3161 27.3708 50.7133L27.4273 51.0174C28.0087 51.1577 28.1676 51.9709 27.5756 52.2711C27.3069 52.4068 26.9617 52.3742 26.7402 52.1609C26.5101 51.9387 26.5006 51.538 26.4471 51.237L26.3957 50.9573C26.0107 48.854 25.6766 46.7266 25.5204 44.5937C25.4802 44.0429 25.4464 43.4917 25.4245 42.9401C25.4036 42.4212 25.4136 41.9023 25.4056 41.3834L25.4029 41.2419C25.3907 40.6886 25.4008 40.1361 25.4152 39.5828C25.4168 39.5154 25.4198 39.4479 25.4232 39.3801C25.4038 39.3572 25.3898 39.3301 25.3839 39.3038L25.3763 39.269C25.3573 39.1796 25.3788 39.0748 25.4473 39.0108C25.4768 38.6339 25.5157 38.2573 25.5263 37.8808C25.5271 37.8499 25.5715 37.8508 25.5741 37.8808C25.599 38.2014 25.6488 38.5228 25.6987 38.8437C26.0194 38.5851 26.2564 38.1585 26.3963 37.8015C26.4064 37.7757 26.4441 37.785 26.4381 37.813ZM18.8502 22.8278C18.9035 23.072 19.0087 23.2912 19.1498 23.4952C19.217 23.5927 19.2935 23.6834 19.3852 23.7593C19.4638 23.8242 19.5534 23.8666 19.637 23.923C19.7587 23.9039 19.8859 23.9501 19.9712 24.04L19.9577 23.9086C19.9535 23.8662 20.0236 23.8577 20.0317 23.8988C20.4013 25.7696 20.7385 27.6416 21.0303 29.5259L21.1582 30.358L21.2786 31.1392C21.4784 32.441 21.6717 33.7423 21.8173 35.0535C22.0112 36.8034 22.1743 38.558 22.2935 40.315C22.413 42.0844 22.4866 43.855 22.539 45.6278C22.5521 46.0747 22.566 46.5212 22.5795 46.9681L22.6698 46.4338C22.7598 45.8994 22.8482 45.3645 22.9239 44.8277C23.1956 42.9066 23.4128 40.9718 23.5188 39.0341C23.616 37.2609 23.5835 35.4526 23.1339 33.7251C23.0206 33.2905 22.8821 32.8627 22.7148 32.4459C22.5525 32.0406 22.3311 31.6649 22.1566 31.2655C21.9537 30.8008 21.8929 30.3624 21.9973 29.8621C22.0886 29.4262 22.2487 29.0162 22.2774 28.5676C22.3311 27.7348 22.0611 26.9283 21.6796 26.1995C21.579 26.0074 21.4729 25.8179 21.3622 25.63C21.0272 25.0623 20.6494 24.5153 20.2573 23.9909C20.2362 23.9629 20.2809 23.9319 20.3038 23.9548C20.6612 24.3093 21.052 24.6578 21.3736 25.0449C21.5299 25.2332 21.6825 25.4252 21.827 25.6224C23.4124 25.8883 24.7746 26.8791 25.7059 28.1877C26.7626 29.6725 27.2971 31.4597 27.6927 33.2197C28.1325 35.1757 28.5035 37.1494 28.8986 39.1151C29.3075 41.1491 29.7144 43.183 30.126 45.2166C30.3305 46.2261 30.535 47.2357 30.7391 48.2456C30.8426 48.757 30.9512 49.2671 31.0649 49.7767C31.1232 50.0379 31.1858 50.2987 31.2398 50.5607C31.3006 50.8562 31.244 51.0453 31.0446 51.2624C30.9711 51.343 30.8549 51.3417 30.7636 51.2989L30.7351 51.2854L30.7075 51.2721C30.5946 51.2164 30.506 51.1587 30.4358 51.0347C30.3584 50.8987 30.3461 50.7477 30.3196 50.5963C30.2705 50.3177 30.222 50.0392 30.1729 49.7602C30.0997 49.343 30.0201 48.9269 29.939 48.511L29.5324 46.4324C29.424 45.8782 29.3154 45.324 29.2061 44.7701C28.8161 42.7891 28.4257 40.8086 28.0353 38.8281C27.6605 36.9264 27.3288 35.0116 26.9021 33.1209L26.8778 33.0144L26.8532 32.908C26.4716 31.2781 25.9384 29.7015 24.9711 28.3204C24.2266 27.2582 23.1927 26.3097 21.9749 25.8297C22.0607 25.9536 22.1431 26.0799 22.2217 26.2088C22.7152 27.0178 23.0756 27.9782 22.9911 28.9415C22.9497 29.4122 22.7714 29.8748 22.7882 30.3492C22.8039 30.7707 23.0638 31.1409 23.2434 31.5076C23.6511 32.3387 23.946 33.2219 24.1362 34.1279C24.5177 35.9473 24.5165 37.8194 24.385 39.6663C24.2422 41.674 23.971 43.6812 23.6621 45.6693C23.5036 46.6891 23.2928 47.7004 23.1313 48.7184C23.0515 49.2204 22.9429 49.7212 22.8478 50.2207L22.8025 50.4593C22.7771 50.5917 22.7508 50.7237 22.7204 50.8543L22.7017 50.9325V50.9465C22.7008 51.0428 22.6746 51.1225 22.6323 51.1861C22.5745 51.3722 22.5027 51.5537 22.4072 51.728C22.3582 51.817 22.2871 51.867 22.2098 51.8853C22.132 52.0638 21.9559 52.2012 21.7455 52.2004L18.9782 52.1897C17.3709 52.1833 15.7636 52.1727 14.1563 52.1638C13.7507 52.1618 13.3455 52.1541 12.9403 52.1435C12.5604 52.1329 12.1962 52.0871 11.8205 52.0396C11.3963 51.9862 11.1665 51.6848 11.2298 51.2595C11.2438 51.1657 11.259 51.0725 11.2734 50.9792C11.1889 51.0072 11.0883 50.994 11.0203 50.9275L10.9565 50.8648C10.8681 50.7771 10.789 50.6909 10.7329 50.5738C10.6751 50.4534 10.6281 50.3262 10.577 50.2033C10.4667 49.9387 10.3594 49.6733 10.255 49.4066C10.0459 48.8732 9.83674 48.3377 9.64233 47.7987C9.25745 46.7315 8.91684 45.6482 8.62069 44.5526C8.09252 42.5979 7.7105 40.6055 7.46966 38.5953L7.41208 38.1162L7.39533 37.9747C7.304 37.1955 7.22714 36.4043 7.26346 35.6268C7.2859 35.14 7.36107 34.6495 7.54238 34.1949C7.70966 33.7756 7.96783 33.4169 8.21332 33.0421L8.24141 32.9988L8.26966 32.9545C8.48435 32.6141 8.65518 32.2581 8.66374 31.8447C8.67242 31.4251 8.55061 31.0168 8.41442 30.624L8.38048 30.5272L8.35769 30.4631C8.06796 29.6513 7.73824 28.8509 7.84698 27.9676C8.00759 26.6668 8.79346 25.6182 9.78224 24.8096C8.9029 24.9843 8.03252 25.3294 7.26435 25.767C6.35712 26.2843 5.54036 26.9669 4.836 27.7374C3.50501 29.1934 2.55473 30.9403 1.77688 32.744C0.962617 34.6317 0.358814 36.6097 -0.0962138 38.6135C-0.553819 40.6288 -0.860157 42.6763 -1.06935 44.7319C-1.17368 45.755 -1.25569 46.7807 -1.32368 47.8068C-1.35833 48.3326 -1.38452 48.8592 -1.42509 49.3841C-1.46565 49.9086 -1.48386 50.4411 -1.61147 50.9517C-1.67104 51.1895 -2.07288 51.2137 -2.11593 50.9517C-2.21149 50.3664 -2.18478 49.7613 -2.15811 49.1687L-2.15569 49.1149C-2.12945 48.5246 -2.09523 47.9349 -2.05471 47.3451C-1.97185 46.1396 -1.86119 44.9359 -1.71668 43.7359C-1.21006 39.5239 -0.275792 35.3338 1.55674 31.489C2.41956 29.678 3.52703 27.9184 5.06759 26.6108C5.80107 25.9887 6.62797 25.4922 7.5191 25.1327C8.31604 24.8109 9.12562 24.6587 9.97238 24.6591C10.397 24.3326 10.8529 24.0481 11.3084 23.8051C11.3359 23.7903 11.3646 23.8259 11.3418 23.8488C11.33 23.8603 11.3185 23.8721 11.3067 23.8832C11.3583 23.8865 11.4115 23.9107 11.4592 23.9612C11.6266 24.1371 11.7677 24.3572 11.894 24.5857C12.0863 24.8266 12.2697 25.0754 12.4615 25.3137C12.7687 25.6953 13.083 26.0714 13.4012 26.4445C13.9356 27.0716 14.4874 27.6868 15.0629 28.2773L15.159 28.3754C15.4573 28.6787 15.7594 29.0416 16.1122 29.2815L16.131 29.2941C16.2799 29.3914 16.3854 29.4091 16.5123 29.2638C16.6277 29.1315 16.7238 28.978 16.8225 28.8322L16.8453 28.7986C17.3494 28.0638 17.8167 27.3019 18.2397 26.5175C18.4325 26.1605 18.6159 25.7984 18.7899 25.4322L18.8418 25.3222C18.9365 25.1204 19.0391 24.9224 19.1173 24.7146C19.1354 24.6659 19.1532 24.6171 19.1705 24.5688C18.9043 24.3937 18.6982 24.0146 18.6234 23.7178C18.5456 23.4095 18.5849 23.0932 18.7235 22.8113C18.7497 22.7583 18.8375 22.7714 18.8502 22.8278ZM5.71832 35.3542C5.68149 36.5262 5.65914 37.6994 5.60417 38.8705L5.5852 39.2703C5.67093 39.3661 5.72121 39.4768 5.68107 39.6286C5.66548 39.6867 5.61938 39.7393 5.56192 39.7588L5.544 40.1305C5.46246 41.803 5.36687 43.472 5.1922 45.1402C4.97375 47.228 4.72107 49.3124 4.46886 51.3964C4.43294 51.6915 4.2284 51.9256 3.91023 51.8823C3.5883 51.8386 3.45773 51.5575 3.49999 51.2645C3.66604 50.1151 3.82572 48.9647 3.96562 47.8115L4.12491 46.4975C4.32465 44.8551 4.52909 43.2128 4.76464 41.5756C4.86309 40.8913 4.96534 40.2074 5.06797 39.5234L5.0321 39.4768C4.88544 39.2856 4.73375 39.0986 4.58375 38.9103C4.29562 38.5474 4.01125 38.1874 3.74717 37.8075C3.73403 37.7884 3.76069 37.7604 3.77966 37.7748C4.1498 38.0492 4.50013 38.3425 4.85252 38.6407L5.16097 38.9027C5.33844 37.721 5.51421 36.5388 5.67093 35.3542C5.67478 35.3245 5.71914 35.3224 5.71832 35.3542ZM11.0427 24.1384C10.8199 24.3491 10.5922 24.5552 10.3678 24.7647L10.2856 24.8417L10.2038 24.9192C9.80944 25.2945 9.43158 25.6852 9.11674 26.1338C8.53871 26.9576 8.19435 27.962 8.43473 28.9678C8.63421 29.801 9.09181 30.5561 9.21477 31.4101C9.27642 31.8379 9.24646 32.2679 9.08586 32.6719C8.92191 33.0841 8.65994 33.4373 8.42459 33.8091C7.91332 34.6173 7.8436 35.5043 7.89435 36.4405C7.94759 37.4183 8.05952 38.3964 8.19773 39.3653C8.4774 41.3284 8.89909 43.2712 9.45726 45.1737C9.7366 46.1265 10.0666 47.0589 10.3949 47.9951C10.5584 48.461 10.749 48.916 10.9454 49.3688C11.049 49.6071 11.1551 49.8441 11.2628 50.0807C11.223 49.7466 11.223 49.4036 11.2036 49.0716C11.1757 48.5959 11.1402 48.121 11.1077 47.6457C11.0414 46.6811 10.9822 45.7156 10.9294 44.7501C10.7422 41.3072 10.6045 37.8613 10.6146 34.4129C10.6197 32.6885 10.6548 30.964 10.7287 29.2413C10.7634 28.43 10.8305 27.6195 10.8912 26.8094L10.9041 26.6358C10.9577 25.9086 11.022 25.1798 11.1322 24.459C11.0996 24.385 11.0712 24.3102 11.0502 24.2334L11.0427 24.2046L11.0482 24.2054C11.0431 24.1829 11.0414 24.1605 11.0427 24.1384ZM12.9686 21.1755C12.9732 21.1555 13.0015 21.1572 13.0066 21.1755C13.1321 21.5995 13.0877 22.0659 12.9796 22.4924C12.9213 22.7235 12.8384 22.9478 12.7383 23.164L12.7033 23.2397C12.6175 23.4239 12.5208 23.6136 12.3538 23.7284C12.2841 23.7763 12.1594 23.7793 12.0897 23.7284L12.0541 23.7013C12.0483 23.6967 12.0425 23.6921 12.0368 23.6873C11.9718 23.6326 11.9397 23.5117 11.9697 23.432C12.047 23.2264 12.2224 23.0754 12.3436 22.8922C12.451 22.7294 12.546 22.5577 12.625 22.3792C12.7953 21.9929 12.8718 21.5829 12.9686 21.1755Z" fill="black"/>
<path fill-rule="evenodd" clip-rule="evenodd" d="M16.7162 7.09158C23.0759 7.29362 23.4594 10.3249 23.4594 15.4085C23.4594 20.4921 20.1603 23.6955 18.9455 24.2549C17.7307 24.8143 14.532 27.2169 11.6453 26.1097C8.75868 25.0025 9.59462 20.3247 9.59462 18.3148C9.59462 16.3049 10.3565 6.88954 16.7162 7.09158Z" fill="white"/>
<path fill-rule="evenodd" clip-rule="evenodd" d="M19.2962 22.5855C18.1283 23.2397 16.791 23.2652 15.5347 22.8535C14.7814 22.6072 14.0906 22.2264 13.444 21.771C12.8816 21.3745 12.3797 20.9348 11.8823 20.468C11.4729 19.5619 11.1083 18.6575 10.9376 17.6717C10.7846 16.7868 10.7643 15.868 10.9418 14.9848C12.2542 13.9014 13.5586 12.8092 14.8612 11.7136C15.5246 11.1556 16.1897 10.6006 16.8628 10.0544C17.2046 9.77715 17.5431 9.49561 17.8836 9.21704C17.9398 9.17125 17.9956 9.12545 18.0518 9.07966C18.7549 9.5961 19.5087 10.0388 20.2068 10.5637C20.5722 10.8389 20.9276 11.1318 21.266 11.4401C21.4435 11.6016 21.6168 11.7683 21.7858 11.9392C21.9404 12.0952 22.0895 12.3191 22.3089 12.378C22.3389 12.3861 22.3671 12.3878 22.3938 12.3839C22.687 14.9602 22.8953 17.7421 21.6391 20.0817C21.0911 21.1023 20.3141 22.0148 19.2962 22.5855ZM11.6986 23.5323C11.5378 23.3845 11.7774 23.1452 11.9376 23.2924C12.9435 24.217 14.2585 24.7071 15.5868 24.934C15.8011 24.9707 15.7097 25.2974 15.4969 25.2611C14.1101 25.0242 12.7471 24.4961 11.6986 23.5323ZM10.4916 24.9509C10.2996 24.8476 10.4705 24.5549 10.6622 24.658C11.4458 25.0798 12.3054 25.2989 13.1772 25.4469C13.3917 25.4833 13.3002 25.8101 13.0874 25.774C12.1859 25.621 11.3014 25.3867 10.4916 24.9509ZM13.6811 10.6608C14.3314 10.0752 15.0302 9.51804 15.7684 9.04786C16.5154 8.57213 17.3314 8.28762 18.2132 8.28084C18.1515 8.33044 18.0928 8.38557 18.0332 8.43683C17.8668 8.57976 17.7007 8.7235 17.5346 8.86681C17.2025 9.15386 16.8695 9.44045 16.5416 9.73221C15.896 10.3072 15.2483 10.8791 14.6039 11.4554C13.3654 12.5629 12.1537 13.6945 10.968 14.8589C10.9744 14.8304 10.9811 14.802 10.9878 14.7737C11.3804 13.1285 12.4481 11.7712 13.6811 10.6608ZM18.7785 8.35249C18.7828 8.33977 18.7858 8.32743 18.7875 8.3156C20.4797 8.53693 21.8931 9.78644 22.3604 11.4316C22.3198 11.4884 22.2974 11.5559 22.3059 11.6275C22.3101 11.6635 22.3143 11.7 22.3185 11.7361C22.2607 11.6784 22.2011 11.6245 22.1504 11.5732C21.9818 11.4019 21.809 11.2353 21.6315 11.0729C21.2685 10.7409 20.8917 10.4305 20.4945 10.1409C19.8037 9.63723 19.0557 9.17421 18.2322 8.93253C18.2863 8.88801 18.3404 8.84349 18.3949 8.79939C18.5576 8.66664 18.7084 8.55729 18.7785 8.35249ZM21.8124 6.5933C20.7734 5.45399 19.3346 4.61955 17.8194 4.32953C16.3726 4.05223 14.8747 4.23498 13.5079 4.77389C10.6477 5.90174 8.39094 8.38179 7.33418 11.2557C6.71812 12.9301 6.51615 14.7656 6.70126 16.5379C6.88545 18.3022 7.41488 20.1241 8.37826 21.6251C8.46657 21.7625 8.56334 21.8944 8.66474 22.022C8.61953 22.5401 8.44714 23.0481 8.17587 23.4899C8.16129 23.5136 8.14591 23.5368 8.1307 23.5601C7.85293 23.7688 7.5648 23.9647 7.28352 24.1669C7.03976 24.3421 6.79849 24.5218 6.56926 24.7159C6.35288 24.8991 6.1016 25.1032 5.95511 25.3504C5.83507 25.553 5.78605 25.8284 5.94991 26.0216C6.14736 26.2542 6.48193 26.1722 6.74939 26.1722C6.77229 26.1722 6.79515 26.1727 6.81801 26.173C6.89834 26.2236 6.98107 26.2694 7.06122 26.312C7.87122 26.7429 8.68418 27.169 9.49798 27.593C11.1189 28.438 12.733 29.317 14.3871 30.0951C15.1537 30.4559 15.9742 30.7713 16.8328 30.7701C17.6382 30.7688 18.3662 30.4478 18.9949 29.9598C19.7115 29.4039 20.3107 28.698 20.8921 28.006C21.1245 27.7291 21.3522 27.4488 21.5757 27.1648C22.005 27.021 22.4309 26.979 22.8138 27.2563C23.1209 27.4789 23.5257 27.1762 23.5329 26.842C23.5354 26.7234 23.5304 26.6063 23.5177 26.491C23.4408 25.7786 23.0935 25.1342 22.7022 24.5364C22.4884 24.2094 22.2632 23.8884 22.0367 23.5704C21.9835 23.4954 21.9311 23.4204 21.8804 23.344C22.7901 21.9999 23.5118 20.5096 23.9554 18.9522C24.4215 17.3134 24.58 15.614 24.4761 13.9159C24.3163 11.3133 23.6048 8.55898 21.8124 6.5933Z" fill="black"/>
<path fill-rule="evenodd" clip-rule="evenodd" d="M18.6304 20.7342C18.3464 20.6179 18.0929 20.424 17.9077 20.1762C17.8432 20.0901 17.8265 19.9991 17.84 19.9159C17.8552 19.8224 17.9104 19.7376 17.9856 19.6807C18.0611 19.6237 18.1554 19.5956 18.2467 19.6099C18.3259 19.6224 18.4049 19.6659 18.4673 19.7563L18.4804 19.7743C18.5905 19.9239 18.7341 20.0466 18.8976 20.1256C19.0553 20.2019 19.2316 20.2375 19.414 20.2168C19.7615 20.1774 20.001 19.9888 20.2556 19.7327C20.2871 19.7004 20.3187 19.667 20.3504 19.6332C20.3705 19.6024 20.3983 19.5827 20.4292 19.5723C20.4634 19.5608 20.5022 19.5615 20.5377 19.5739C20.572 19.5859 20.6026 19.6087 20.6231 19.6389C20.6426 19.6677 20.6537 19.7032 20.6501 19.7441C20.6268 20.0094 20.4886 20.2463 20.2921 20.4323C20.074 20.6388 19.7849 20.7817 19.5126 20.8318C19.2127 20.887 18.9071 20.8475 18.6304 20.7342ZM19.6541 16.64C19.9732 16.8347 20.4594 17.2885 20.1161 17.771C19.7121 18.1964 19.1304 17.7086 18.8437 17.488C18.5779 17.317 18.2792 17.7568 18.5259 17.9564C20.5973 19.4953 21.4379 16.6909 19.8155 16.4112C19.6369 16.3804 19.5705 16.5798 19.6541 16.64ZM15.9421 14.8499C15.9774 14.4107 16.6438 14.311 16.7101 14.7455C16.7695 15.1348 16.6996 15.4923 16.5249 15.8428C16.3579 16.1776 15.9383 16.0214 15.9066 15.7165C15.8641 15.3079 15.9202 15.123 15.9421 14.8499ZM21.0152 14.6555C21.1081 14.5333 21.2423 14.45 21.403 14.4971C21.9052 14.6443 21.7572 15.3598 21.5808 15.708C21.485 15.8971 21.1752 15.9451 21.0353 15.7786C20.8071 15.507 20.6978 14.9648 20.9879 14.6973C20.9957 14.6835 21.0045 14.6695 21.0152 14.6555ZM16.5178 12.9284L16.5971 12.9145C16.8425 12.8719 17.1476 12.831 17.3212 13.029C17.4133 13.134 17.445 13.3291 17.3212 13.4296C17.1036 13.6064 16.8629 13.5379 16.602 13.5528C16.387 13.5652 16.1804 13.6009 15.9733 13.6603C15.519 13.7906 15.1488 14.0285 14.7608 14.2897C14.7099 14.3239 14.6579 14.2586 14.6822 14.2108C14.9062 13.7706 15.3403 13.4089 15.7751 13.1885C16.0071 13.0708 16.2611 12.9732 16.5178 12.9284ZM20.5574 12.7312L20.6182 12.7437C21.2789 12.8823 22.1373 13.1591 22.4502 13.8104C22.4621 13.9025 22.4495 13.9222 22.4393 13.9351L22.4359 13.9394C22.4274 13.9504 22.4207 13.9656 22.3809 13.9781C22.3699 13.9755 22.3587 13.9727 22.3475 13.9697C22.2041 13.932 22.0906 13.88 21.9807 13.8261L21.8616 13.7672C21.7234 13.6993 21.584 13.6337 21.4363 13.5854C21.121 13.4822 20.7967 13.4095 20.4673 13.3706C20.3959 13.3622 20.3272 13.3381 20.273 13.2966C20.2215 13.2573 20.1822 13.2029 20.1642 13.1305C20.141 13.0368 20.1477 12.9659 20.1978 12.8814C20.2354 12.8179 20.2893 12.774 20.3512 12.7487C20.4143 12.7229 20.4861 12.7169 20.5574 12.7312Z" fill="black"/>
</g>
<defs>
<clipPath id="clip0_2101_16656">
<rect width="32" height="32" rx="16" fill="white"/>
</clipPath>
</defs>
</svg>
