<svg width="32" height="32" viewBox="0 0 32 32" fill="none" xmlns="http://www.w3.org/2000/svg">
<g clip-path="url(#clip0_2101_16650)">
<rect width="32" height="32" rx="16" fill="#FB554C"/>
<path fill-rule="evenodd" clip-rule="evenodd" d="M28.2911 31.1719C27.7045 28.4265 25.6245 26.2961 22.8269 25.2348C22.2892 24.9343 21.7679 23.6449 21.0453 23.4087C20.9294 23.3709 21.1123 23.6721 21.0453 23.6901C20.8063 23.7543 20.5385 23.761 20.2746 23.5293C19.8029 23.1151 19.655 21.9051 19.3682 21.3582C17.8559 18.474 14.0801 19.6025 13.5742 22.7909C13.2215 23.0181 12.7229 23.2182 12.3389 23.4012C11.9436 23.5897 11.5958 24.0462 11.1884 24.2095C10.8249 24.3551 10.2259 24.2519 9.85954 24.3789C8.17472 24.9628 6.74773 25.6996 5.62898 27.1925C5.39325 27.5074 5.12752 27.8945 4.913 28.2126C3.80705 29.4705 3.03888 30.8804 2.33139 32.3931C0.351983 36.833 -0.186411 41.7491 -0.669454 46.5328C-0.658468 47.3698 -1.22061 49.6908 -0.389186 50.0921C-0.438876 50.143 -0.420876 50.2452 -0.328679 50.2443C1.77948 50.2233 3.88273 50.4097 5.95818 50.7721C6.95955 50.947 7.95555 51.1868 8.97555 51.2262C11.0929 51.2117 13.2027 50.8612 15.3172 51.1929C17.8593 51.1929 20.9487 51.1197 23.7767 51.0123C26.4198 50.9119 29.077 51.1387 31.6873 50.6946C31.8939 50.6623 31.9948 50.4133 31.9515 50.2348C31.6453 49.1323 31.4949 47.9975 31.3231 46.869C31.3573 46.1451 31.2961 45.3895 31.0251 44.7153C30.317 40.164 29.409 35.6424 28.2911 31.1719Z" fill="white"/>
<path fill-rule="evenodd" clip-rule="evenodd" d="M27.4381 37.1545C27.3823 37.4221 27.3041 37.6897 27.2002 37.9431C27.1 38.1877 26.9492 38.4069 26.8453 38.6486C26.8313 38.6812 26.8085 38.7058 26.781 38.7246L26.7896 38.7904L26.7975 38.8561C26.8493 39.2998 26.9076 39.7423 26.9581 40.186L26.9826 40.4079C27.0819 41.3343 27.2386 42.2561 27.3603 43.18C27.4795 44.0847 27.6008 44.9893 27.7304 45.8928C27.8644 46.8242 28.0009 47.7543 28.1602 48.682C28.2274 49.0737 28.2976 49.4652 28.3707 49.8563L28.4272 50.1557C29.0086 50.2939 29.1675 51.0946 28.5755 51.3902C28.3068 51.5238 27.9616 51.4916 27.7402 51.2817C27.51 51.0629 27.5005 50.6683 27.4471 50.3719L27.3956 50.0965C27.0106 48.0256 26.6765 45.9309 26.5203 43.8308C26.4802 43.2886 26.4464 42.7458 26.4244 42.2026C26.4035 41.6918 26.4135 41.1809 26.4055 40.67L26.4028 40.5306C26.3906 39.9858 26.4007 39.4418 26.4151 38.897C26.4168 38.8306 26.4197 38.7643 26.4231 38.6975C26.4037 38.6749 26.3897 38.6482 26.3839 38.6223L26.3762 38.5881C26.3572 38.5 26.3788 38.3969 26.4473 38.3338C26.4768 37.9627 26.5157 37.592 26.5262 37.2213C26.5271 37.1908 26.5714 37.1917 26.574 37.2213C26.5989 37.5369 26.6488 37.8533 26.6986 38.1694C27.0193 37.9147 27.2564 37.4947 27.3962 37.1432C27.4064 37.1177 27.444 37.1269 27.4381 37.1545ZM19.8502 22.3998C19.9034 22.6402 20.0086 22.8561 20.1497 23.0569C20.217 23.153 20.2934 23.2423 20.3851 23.317C20.4637 23.3809 20.5533 23.4226 20.6369 23.4782C20.7586 23.4593 20.8858 23.5049 20.9711 23.5934L20.9577 23.464C20.9534 23.4222 21.0236 23.4139 21.0316 23.4543C21.4013 25.2963 21.7384 27.1395 22.0302 28.9949L22.1582 29.8142L22.2785 30.5834C22.4784 31.8651 22.6717 33.1464 22.8172 34.4375C23.0112 36.1604 23.1742 37.888 23.2934 39.618C23.413 41.3602 23.4865 43.1035 23.5389 44.8491C23.552 45.2891 23.566 45.7287 23.5795 46.1687L23.6697 45.6426C23.7598 45.1165 23.8481 44.5898 23.9238 44.0613C24.1955 42.1697 24.4127 40.2647 24.5188 38.3568C24.616 36.6109 24.5834 34.8303 24.1339 33.1295C24.0206 32.7016 23.882 32.2803 23.7147 31.8699C23.5524 31.4709 23.331 31.1009 23.1565 30.7077C22.9537 30.2502 22.8928 29.8185 22.9972 29.3258C23.0885 28.8967 23.2487 28.493 23.2773 28.0513C23.331 27.2313 23.061 26.4372 22.6795 25.7196C22.5789 25.5305 22.4728 25.3439 22.3621 25.1589C22.0271 24.6 21.6493 24.0614 21.2572 23.545C21.2361 23.5174 21.2809 23.4869 21.3037 23.5095C21.6611 23.8585 22.052 24.2017 22.3736 24.5828C22.5299 24.7682 22.6824 24.9573 22.8269 25.1514C24.4123 25.4132 25.7746 26.3888 26.7058 27.6772C27.7626 29.1392 28.2971 30.8989 28.6926 32.6318C29.1325 34.5577 29.5034 36.5011 29.8985 38.4365C30.3075 40.4392 30.7144 42.4419 31.1259 44.4441C31.3304 45.4381 31.535 46.4322 31.739 47.4266C31.8426 47.9301 31.9512 48.4323 32.0648 48.9341C32.1232 49.1913 32.1857 49.4481 32.2398 49.7061C32.3006 49.9971 32.244 50.1832 32.0446 50.397C31.971 50.4763 31.8548 50.4751 31.7635 50.4329L31.735 50.4196L31.7074 50.4065C31.5945 50.3516 31.506 50.2948 31.4357 50.1728C31.3583 50.0388 31.3461 49.8902 31.3195 49.7411C31.2704 49.4668 31.2219 49.1926 31.1729 48.9179C31.0996 48.5071 31.02 48.0974 30.939 47.6879L30.5323 45.6413C30.4239 45.0956 30.3153 44.5499 30.2061 44.0045C29.8161 42.054 29.4257 40.104 29.0353 38.1539C28.6604 36.2815 28.3288 34.3962 27.902 32.5346L27.8778 32.4297L27.8531 32.325C27.4715 30.7201 26.9384 29.1678 25.971 27.8079C25.2265 26.7621 24.1926 25.8282 22.9748 25.3556C23.0606 25.4775 23.143 25.6019 23.2216 25.7288C23.7151 26.5254 24.0755 27.471 23.991 28.4195C23.9496 28.8829 23.7713 29.3384 23.7882 29.8055C23.8038 30.2205 24.0637 30.585 24.2433 30.9461C24.651 31.7644 24.946 32.634 25.1361 33.5261C25.5177 35.3175 25.5164 37.1607 25.3849 38.9792C25.2421 40.9561 24.9709 42.9324 24.662 44.89C24.5036 45.894 24.2927 46.8897 24.1313 47.8921C24.0515 48.3864 23.9428 48.8795 23.8478 49.3712L23.8025 49.6062C23.7771 49.7366 23.7508 49.8666 23.7204 49.9952L23.7016 50.0722V50.0859C23.7008 50.1807 23.6745 50.2592 23.6323 50.3219C23.5744 50.5051 23.5026 50.6838 23.4071 50.8554C23.3581 50.9431 23.2871 50.9923 23.2097 51.0103C23.132 51.186 22.9558 51.3213 22.7454 51.3205L19.9782 51.31C18.3709 51.3037 16.7635 51.2933 15.1562 51.2845C14.7506 51.2825 14.3454 51.275 13.9402 51.2645C13.5603 51.2541 13.1961 51.209 12.8205 51.1622C12.3962 51.1096 12.1664 50.8128 12.2298 50.3941C12.2437 50.3018 12.2589 50.21 12.2733 50.1181C12.1888 50.1457 12.0882 50.1327 12.0202 50.0672L11.9564 50.0055C11.868 49.9191 11.7889 49.8342 11.7329 49.719C11.675 49.6004 11.628 49.4752 11.5769 49.3541C11.4666 49.0936 11.3594 48.8323 11.2549 48.5697C11.0458 48.0445 10.8367 47.5172 10.6423 46.9866C10.2574 45.9357 9.91678 44.8691 9.62063 43.7903C9.09246 41.8658 8.71044 39.904 8.4696 37.9247L8.41201 37.453L8.39527 37.3136C8.30394 36.5465 8.22708 35.7674 8.2634 35.0019C8.28584 34.5226 8.36101 34.0396 8.54232 33.5921C8.7096 33.1792 8.96777 32.826 9.21326 32.457L9.24135 32.4144L9.2696 32.3707C9.48429 32.0355 9.65512 31.6851 9.66368 31.278C9.67236 30.8649 9.55055 30.4629 9.41436 30.0761L9.38041 29.9807L9.35763 29.9176C9.0679 29.1183 8.73818 28.3303 8.84692 27.4605C9.00753 26.1797 9.7934 25.1473 10.7822 24.3511C9.90284 24.5231 9.03246 24.8629 8.26429 25.2938C7.35706 25.8031 6.5403 26.4753 5.83594 27.2338C4.50495 28.6674 3.55467 30.3875 2.77682 32.1635C1.96256 34.0221 1.35875 35.9697 0.903725 37.9427C0.44612 39.927 0.139781 41.943 -0.0694157 43.9669C-0.17374 44.9743 -0.255754 45.9842 -0.32374 46.9945C-0.358387 47.5122 -0.384585 48.0307 -0.425148 48.5476C-0.465711 49.064 -0.483923 49.5883 -0.611528 50.091C-0.671106 50.3252 -1.07294 50.349 -1.11599 50.091C-1.21155 49.5148 -1.18484 48.9189 -1.15817 48.3355L-1.15575 48.2825C-1.12951 47.7013 -1.09529 47.1206 -1.05477 46.5399C-0.971909 45.353 -0.861247 44.1678 -0.71674 42.9863C-0.21012 38.839 0.724147 34.7135 2.55668 30.9277C3.4195 29.1447 4.52696 27.4121 6.06753 26.1246C6.80101 25.5121 7.62791 25.0232 8.51903 24.6693C9.31598 24.3524 10.1256 24.2025 10.9723 24.2029C11.397 23.8815 11.8529 23.6013 12.3083 23.3621C12.3358 23.3475 12.3645 23.3826 12.3418 23.4051C12.3299 23.4164 12.3185 23.428 12.3067 23.4389C12.3582 23.4423 12.4114 23.4661 12.4592 23.5158C12.6265 23.689 12.7677 23.9057 12.894 24.1307C13.0862 24.3678 13.2696 24.6129 13.4615 24.8475C13.7686 25.2232 14.083 25.5935 14.4012 25.9609C14.9356 26.5783 15.4874 27.1841 16.0628 27.7654L16.1589 27.8621C16.4572 28.1607 16.7594 28.518 17.1121 28.7543L17.131 28.7667C17.2798 28.8625 17.3853 28.8799 17.5123 28.7368C17.6277 28.6065 17.7237 28.4554 17.8224 28.3118L17.8453 28.2788C18.3494 27.5553 18.8167 26.8051 19.2396 26.0328C19.4324 25.6813 19.6158 25.3247 19.7898 24.9641L19.8418 24.8559C19.9364 24.6571 20.0391 24.4622 20.1172 24.2576C20.1354 24.2096 20.1531 24.1616 20.1704 24.114C19.9042 23.9416 19.6981 23.5684 19.6233 23.2761C19.5456 22.9726 19.5849 22.6611 19.7234 22.3835C19.7496 22.3314 19.8375 22.3443 19.8502 22.3998ZM6.71826 34.7335C6.68143 35.8874 6.65908 37.0426 6.60411 38.1957L6.58514 38.5893C6.67087 38.6837 6.72115 38.7926 6.68101 38.9421C6.66542 38.9993 6.61932 39.0511 6.56186 39.0703L6.54394 39.4363C6.4624 41.0831 6.3668 42.7264 6.19214 44.369C5.97369 46.4247 5.72101 48.477 5.4688 50.5289C5.43288 50.8195 5.22833 51.0499 4.91017 51.0074C4.58824 50.9643 4.45767 50.6875 4.49993 50.3991C4.66598 49.2673 4.82566 48.1346 4.96556 46.9991L5.12485 45.7054C5.32459 44.0882 5.52903 42.4712 5.76457 40.8592C5.86302 40.1854 5.96528 39.512 6.06791 38.8386L6.03204 38.7926C5.88538 38.6044 5.73369 38.4203 5.58369 38.2349C5.29556 37.8776 5.01119 37.5231 4.74711 37.149C4.73397 37.1302 4.76063 37.1027 4.7796 37.1169C5.14974 37.387 5.50007 37.6759 5.85246 37.9694L6.16091 38.2274C6.33838 37.0638 6.51415 35.8999 6.67087 34.7335C6.67472 34.7043 6.71908 34.7021 6.71826 34.7335ZM12.0426 23.6903C11.8199 23.8977 11.5922 24.1006 11.3678 24.3069L11.2856 24.3828L11.2038 24.459C10.8094 24.8286 10.4315 25.2132 10.1167 25.6549C9.53865 26.4661 9.19429 27.4551 9.43467 28.4454C9.63415 29.2657 10.0918 30.0093 10.2147 30.8501C10.2764 31.2713 10.2464 31.6946 10.0858 32.0925C9.92185 32.4983 9.65988 32.8461 9.42453 33.2122C8.91326 34.0079 8.84354 34.8813 8.89429 35.8031C8.94753 36.7658 9.05946 37.7289 9.19767 38.6829C9.47734 40.6158 9.89903 42.5287 10.4572 44.402C10.7365 45.34 11.0665 46.2581 11.3949 47.1799C11.5583 47.6387 11.7489 48.0867 11.9454 48.5325C12.0489 48.7672 12.155 49.0005 12.2627 49.2334C12.223 48.9045 12.223 48.5668 12.2035 48.2399C12.1757 47.7715 12.1402 47.3039 12.1076 46.8359C12.0413 45.8861 11.9822 44.9355 11.9294 43.9849C11.7422 40.5949 11.6044 37.2021 11.6145 33.8067C11.6196 32.1088 11.6547 30.4109 11.7287 28.7146C11.7633 27.9158 11.8304 27.1178 11.8911 26.3202L11.904 26.1492C11.9577 25.4332 12.0219 24.7156 12.1321 24.0059C12.0995 23.9331 12.0712 23.8594 12.0501 23.7838L12.0426 23.7554L12.0481 23.7562C12.043 23.7341 12.0413 23.712 12.0426 23.6903ZM13.9685 20.7729C13.9731 20.7533 14.0014 20.7549 14.0065 20.7729C14.132 21.1904 14.0876 21.6496 13.9795 22.0696C13.9212 22.2971 13.8384 22.518 13.7382 22.7309L13.7032 22.8054C13.6174 22.9867 13.5208 23.1735 13.3537 23.2865C13.284 23.3337 13.1593 23.3366 13.0896 23.2865L13.0541 23.2599C13.0482 23.2554 13.0424 23.2508 13.0368 23.246C12.9718 23.1922 12.9396 23.0732 12.9696 22.9947C13.0469 22.7922 13.2223 22.6436 13.3435 22.4633C13.4509 22.303 13.546 22.1339 13.625 21.9581C13.7952 21.5778 13.8717 21.1741 13.9685 20.7729Z" fill="black"/>
<path fill-rule="evenodd" clip-rule="evenodd" d="M17.062 4.96533C18.9538 4.96533 21.2235 5.87146 21.4165 5.88958L21.4217 5.88986C21.5233 5.88986 21.92 6.18849 22.6119 6.78576L21.8625 8.23L21.9231 8.28722C22.2134 8.56214 22.4611 8.81273 22.6567 9.01027C24.2535 10.6232 24.5405 16.9559 24.1642 19.1644C23.7879 21.3728 23.0909 23.5338 19.8459 23.5338C16.6009 23.5338 12.9907 21.606 12.4346 21.0057C12.0638 20.6054 11.6474 20.4137 11.1853 20.4304C11.1663 20.4068 11.1474 20.3831 11.1287 20.3596L11.0607 20.3501C10.4211 20.2586 9.96286 20.1354 9.6859 19.9806C9.14492 19.6782 8.55032 18.0884 8.55032 17.7382C8.55032 17.3915 7.66246 14.8694 7.6447 14.6025L7.64443 14.5951C7.64443 14.372 6.48453 13.3464 6.48453 13.0206C6.48453 12.6949 6.25073 12.7147 6.48453 11.5669L6.55245 11.2297C6.80125 10.0076 7.28821 7.98399 9.14492 7.10468C11.1853 6.13841 15.1512 4.96533 17.062 4.96533Z" fill="white"/>
<path fill-rule="evenodd" clip-rule="evenodd" d="M8.82999 7.05925C9.84757 5.99209 15.6245 4.34145 18.5473 4.69135L18.635 4.70256C18.8682 4.73179 19.0981 4.77604 19.3249 4.83616C20.0582 5.00536 20.8156 5.26157 21.4215 5.68953C21.9273 6.03963 23.5229 6.61138 23.0527 7.52725C23.227 7.85368 23.2921 8.25696 23.1743 8.57847C23.1594 8.68952 23.1248 8.7918 23.0805 8.89784C23.453 9.44103 23.748 10.0553 23.9868 10.6396C24.404 12.11 24.6637 13.6402 24.7017 15.1405C24.8282 17.9907 24.5119 21.3953 21.9994 23.2384C20.4816 24.4063 18.1041 24.4455 16.3984 22.9975C16.3016 22.8843 15.8464 22.5789 15.9983 22.5253C16.0436 22.5725 16.09 22.6184 16.1374 22.6635C16.1352 22.6585 16.1348 22.6535 16.1357 22.648L16.0912 22.6082C16.0073 22.5316 15.8988 22.4205 16.0224 22.4422C16.0279 22.4485 16.0338 22.4539 16.0397 22.4602C16.0659 22.4757 16.0857 22.4891 16.1011 22.501L16.109 22.5073L16.1066 22.5048C16.0353 22.4297 15.9926 22.3531 16.0991 22.402L16.1132 22.4088C16.1606 22.4581 16.2087 22.5053 16.2577 22.5512C16.2569 22.5457 16.2577 22.5403 16.2607 22.5345L16.215 22.4909C16.1704 22.4477 16.1772 22.4475 16.199 22.4126C16.1042 22.2813 16.2812 22.3593 16.2937 22.4105C16.4044 22.3846 16.5016 22.59 16.573 22.6151C19.6997 24.9901 24.2371 22.8827 24.1637 16.2646L24.1625 16.1351C24.1411 14.0189 23.9608 11.8438 23.0749 9.92819C22.9888 9.74366 22.8924 9.56414 22.7864 9.39047C22.7133 9.26022 22.6351 9.1333 22.551 9.00973C22.3156 8.99094 22.0832 8.94836 21.8543 8.88239C21.7756 8.86277 21.6979 8.84106 21.6202 8.8156C20.4844 8.8768 19.3739 8.94339 18.235 9.00651L17.8792 9.0284C16.9144 9.08969 15.9166 9.18785 15.138 9.77748C14.3741 10.3143 14.3706 11.3728 13.7167 11.9622C12.7841 12.5875 12.7773 13.1514 12.5977 14.0729C12.611 14.7676 13.0986 15.777 12.2039 16.0693C12.3549 16.282 12.1445 16.1798 12.1279 16.1053C12.1262 16.1057 12.1245 16.1061 12.1233 16.1061C12.2578 16.3531 12.0601 16.1976 12.0426 16.1182C12.032 16.1153 12.0214 16.1078 12.0109 16.0973C12.1464 16.3137 11.9273 16.1622 11.9403 16.1228C11.6785 15.7251 11.1396 15.6634 10.7597 15.7688C10.7551 15.783 10.7382 15.7842 10.7276 15.7767C9.11241 16.1225 9.52916 19.4263 11.1844 19.1069C11.2553 19.0927 11.2536 19.1263 11.2676 19.1295C11.2294 19.0303 11.3372 19.0707 11.336 19.0915L11.3426 19.0912C11.3478 19.0907 11.3457 19.0902 11.3496 19.0915C11.3126 18.8886 11.5207 19.1826 11.5042 19.1946C11.5106 19.1909 11.5178 19.1888 11.5241 19.1879L11.517 19.1687C11.4824 19.0778 11.4854 19.1156 11.4856 19.0635C11.4597 18.9992 11.4578 19.0273 11.4639 18.9854C11.555 18.9156 11.582 19.1274 11.6124 19.1429C11.5602 19.071 11.6017 19.0124 11.6509 19.0514C12.0237 19.8261 12.5052 20.5541 13.1276 21.1276C13.1957 21.1806 13.2645 21.2328 13.3359 21.282C13.6006 21.5098 14.0067 21.6563 14.2545 21.8582C14.2545 21.8615 14.2529 21.8657 14.2503 21.8698L14.256 21.8749L14.2617 21.8803L14.3479 21.9212C14.3733 21.9425 14.3961 21.9663 14.4163 21.9926C14.4379 22.0172 14.4569 22.0444 14.473 22.0732C14.481 22.1082 14.4633 22.1228 14.4295 22.1078C14.4146 22.1028 14.3999 22.097 14.3851 22.0915C14.386 22.0928 14.3863 22.0936 14.3872 22.0944C14.3921 22.1017 14.4249 22.1769 14.3871 22.1646L14.3826 22.1629C14.3618 22.1554 14.3412 22.1471 14.3209 22.1391C14.345 22.1688 14.3669 22.2009 14.3863 22.228C14.4071 22.2493 14.4197 22.2744 14.4248 22.3028C14.4239 22.3186 14.4151 22.3253 14.399 22.3232C14.3745 22.3153 14.3505 22.3069 14.3263 22.2982L14.3332 22.3111C14.3502 22.3442 14.3745 22.3998 14.3314 22.3813C14.2946 22.37 14.2592 22.357 14.2237 22.3429C14.2207 22.3487 14.2148 22.3508 14.203 22.3454C14.0902 22.3057 13.9812 22.2573 13.8768 22.2001C13.7851 22.1341 13.6925 22.0694 13.6005 22.0039C13.5138 21.9525 13.4301 21.8953 13.3503 21.831C12.816 21.49 12.3482 21.0568 11.9771 20.5744C11.3564 21.1055 10.1155 20.5981 9.34785 20.1824C8.66888 19.8108 8.40201 19.1238 8.33301 18.3831C8.18956 17.3859 7.36477 17.0446 7.42215 14.8566C7.42088 14.857 7.41957 14.857 7.41788 14.857C7.38788 14.8482 7.35877 14.8365 7.3313 14.8215C7.30299 14.8081 7.27637 14.7923 7.2514 14.7731L7.22056 14.7309C7.20454 14.7221 7.19018 14.7129 7.17919 14.7038L7.17349 14.711C7.15546 14.7325 7.16758 14.7002 7.16863 14.6937L7.11504 14.6217C6.98799 14.4504 6.8486 14.2581 6.73506 14.1043L6.73149 14.1105C6.72892 14.1152 6.72756 14.1186 6.72877 14.1201C6.45856 13.7365 6.20444 13.2732 6.13384 12.8247C6.05047 12.4792 6.08305 12.1231 6.15577 11.8031C6.46756 10.6824 7.48891 8.14625 8.82999 7.05925ZM16.163 22.5584L16.1461 22.5435L16.161 22.5619C16.1688 22.5715 16.1767 22.58 16.1898 22.5887C16.1889 22.5858 16.1889 22.5829 16.1893 22.5796C16.1807 22.5731 16.1718 22.5659 16.163 22.5584ZM18.5344 5.25448C16.5523 5.08611 14.6029 5.51753 12.7115 6.03976L12.5811 6.07681C11.5056 6.38001 10.3684 6.65284 9.45961 7.30181C8.18985 8.26273 7.53416 9.79138 6.96196 11.2028C6.46232 12.2514 6.71774 13.4338 7.4707 14.166C7.54903 13.4384 7.6826 12.7321 7.89133 12.0314C7.93489 11.922 7.90194 11.8861 7.99582 11.8718C8.13763 13.76 7.43922 15.1551 8.82133 17.3928C9.42103 18.4487 8.72681 19.2213 10.4203 19.777L10.4662 19.7943C10.819 19.9258 11.2043 20.0296 11.5499 19.9561L11.5189 19.9063C11.4873 19.8551 11.4777 19.8302 11.5237 19.8083C11.5224 19.8058 11.5207 19.8033 11.519 19.8004C11.4819 19.7311 11.4459 19.6609 11.4117 19.59C11.3978 19.5946 11.3838 19.5979 11.3694 19.6017C11.3788 19.6188 11.38 19.6359 11.3538 19.6417C11.2607 19.6733 11.1651 19.686 11.0672 19.68L11.0462 19.6785C10.9357 19.6718 10.866 19.6519 10.8037 19.6334C10.783 19.6301 10.7623 19.6267 10.742 19.6225C10.5415 19.5786 10.3292 19.4669 10.1919 19.3562C8.62603 18.4775 8.78787 15.4863 10.7179 15.2035C10.7575 13.3201 11.6641 10.1428 13.1688 8.34814C14.5289 6.69738 18.2418 5.9819 20.825 6.23418C20.8627 6.2465 20.9003 6.25894 20.938 6.2715C21.3365 6.30649 21.7163 6.48191 22.1152 6.56341C21.8288 6.35137 21.504 6.21013 21.1694 6.09011C20.5027 5.6872 19.7384 5.46919 19 5.31543C18.8471 5.27827 18.692 5.25782 18.5344 5.25448ZM10.6296 16.7164C10.7334 16.6607 10.7215 16.7145 10.7454 16.6989C11.4918 16.6387 12.2967 17.2845 12.7139 17.8228C12.681 17.8566 12.5918 17.7564 12.5762 17.7405C12.5741 17.7426 12.5716 17.7443 12.569 17.7451L12.5806 17.7613C12.7498 18.0011 12.4145 17.7189 12.3831 17.6608C12.3776 17.6637 12.3721 17.6654 12.3658 17.6641C12.3924 17.6899 12.4735 17.7571 12.4875 17.8048L12.509 17.8225C12.7119 17.9942 12.6951 18.1234 12.4647 17.8795C12.4701 17.8908 12.4723 17.9013 12.4685 17.9096L12.4764 17.9148C12.5897 17.993 12.6828 18.2111 12.4461 17.9873C12.4707 18.1507 12.2114 17.8348 12.2031 17.837C11.7545 17.489 11.0939 17.1506 10.5311 17.1051L10.5118 17.1029C10.4085 17.0898 10.3597 17.0595 10.3959 16.9928C10.2687 16.9629 10.2985 16.9011 10.3587 16.9031C10.269 16.8448 10.3498 16.789 10.4018 16.8108C10.366 16.7129 10.5096 16.7781 10.5227 16.7645C10.5972 16.6509 10.6172 16.7456 10.6296 16.7164ZM9.06494 10.6483C9.42346 10.5186 10.4825 10.907 10.3977 11.4214C10.3473 11.5395 10.1811 11.6072 10.0642 11.5405L9.91175 11.4394C9.64638 11.2638 9.40705 11.1098 9.12215 10.9567C8.96708 10.8806 8.90032 10.7192 9.06494 10.6483ZM11.1047 9.88388L10.9663 9.79485C10.2191 9.31167 9.16275 8.57955 11.0361 9.33702C11.2496 9.42749 11.5333 9.48101 11.6498 9.6819C11.8328 10.0522 11.3511 10.077 11.1047 9.88388ZM11.1887 7.71594C11.1287 7.49112 11.8748 7.75493 12.092 7.82448L12.1251 7.83683C12.3363 7.91461 12.5785 7.98676 12.7049 8.1669C12.8529 8.4158 12.5533 8.46736 12.3676 8.35494C11.9871 8.10921 11.5698 7.9238 11.1887 7.71594ZM13.0859 6.66869C12.6659 6.21558 13.7898 6.64964 13.9582 6.77013L13.963 6.77368C14.0886 6.86106 14.0631 7.04926 13.9451 7.10454C13.6093 7.11084 13.3622 6.8343 13.0859 6.66869ZM14.9968 6.17225C14.3292 5.6982 15.2087 5.92368 15.5141 6.10946C15.7223 6.29086 15.5079 6.59708 14.9968 6.17225Z" fill="black"/>
<path fill-rule="evenodd" clip-rule="evenodd" d="M18.7669 18.4746C19.0033 18.0905 19.5071 19.0316 19.5607 19.1934C19.6081 19.3367 19.6394 19.4836 19.6553 19.6321C19.8385 19.6727 20.0288 19.6728 20.2166 19.6372C20.4956 19.5843 20.6662 19.4361 20.9088 19.3088C21.0763 19.2208 21.2874 19.324 21.3746 19.4698C21.477 19.6415 21.4118 19.8197 21.277 19.9477C21.0214 20.1904 20.5185 20.2462 20.1849 20.1817C19.9937 20.1448 19.8185 20.074 19.6638 19.9711C19.6628 19.9903 19.6621 20.0095 19.6606 20.0287L19.6576 20.0619C19.632 20.3311 19.5571 20.6696 19.3455 20.8448C18.9984 21.1321 18.57 20.5795 18.9073 20.2925L18.9177 20.2839C19.1274 20.1165 19.1731 19.6675 19.1618 19.4202C19.1544 19.2588 19.1247 19.0953 19.0731 18.9416L19.0625 18.911C19.0469 18.8676 18.8776 18.4556 18.8165 18.5081L18.8136 18.511C18.7883 18.5408 18.7476 18.5061 18.7669 18.4746ZM20.6542 16.3069C20.9732 16.4985 21.4594 16.9453 21.1162 17.4204C20.7121 17.8393 20.1304 17.359 19.8437 17.1418C19.5779 16.9734 19.2793 17.4064 19.5259 17.603C21.5973 19.1182 22.4379 16.357 20.8155 16.0816C20.6369 16.0512 20.5706 16.2476 20.6542 16.3069ZM17.247 14.5356C17.5589 14.481 17.8783 14.5576 18.1363 14.7378L18.1559 14.7517C18.4045 14.9314 18.6826 15.2468 18.54 15.5564C18.4827 15.6808 18.3113 15.7003 18.2025 15.6439C18.0213 15.5501 17.9885 15.3191 17.8269 15.1914C17.6943 15.0866 17.5158 15.0231 17.3451 15.0384C16.9441 15.0744 16.6974 15.4652 16.5729 15.802C16.5569 15.845 16.4929 15.8618 16.4679 15.8155C16.1742 15.2731 16.6941 14.6326 17.247 14.5356ZM22.2418 14.3309C22.8392 14.2823 23.5383 14.8941 23.3811 15.5171C23.3057 15.816 22.8569 15.8075 22.7771 15.5171C22.7332 15.3573 22.7376 15.216 22.6212 15.0833C22.5251 14.9738 22.3886 14.9101 22.2418 14.9199C22.0801 14.9307 21.9309 15.0105 21.8175 15.1228C21.7151 15.2242 21.6539 15.3725 21.5479 15.4622C21.5218 15.4843 21.4868 15.4857 21.461 15.4622C21.2785 15.2959 21.3881 14.9498 21.5038 14.7762C21.6694 14.5278 21.9391 14.3556 22.2418 14.3309ZM16.1095 13.4307C16.4927 13.0956 17.189 12.7719 17.7057 12.9369C18.0028 13.0317 18.1323 13.5046 17.8007 13.6545C17.4166 13.8281 16.9739 13.7575 16.583 13.9374C16.4188 14.013 16.2644 14.1075 16.1501 14.2461C16.0601 14.3553 15.9685 14.499 15.8383 14.5619C15.804 14.5785 15.7577 14.5789 15.7303 14.5482C15.4448 14.2292 15.8603 13.6487 16.1095 13.4307ZM21.5832 12.9202C21.82 12.8545 22.0828 12.8559 22.3234 12.8971C22.5639 12.9384 22.808 13.0369 23.0044 13.1805L23.0272 13.1973C23.2415 13.3569 23.4973 13.5891 23.4836 13.8719C23.4722 14.108 23.2208 14.2676 23.0038 14.1439C22.8269 14.043 22.7437 13.8409 22.5939 13.7063C22.4703 13.5952 22.3251 13.5076 22.1702 13.4462C21.9981 13.378 21.8258 13.3461 21.6411 13.343C21.4989 13.3407 21.3559 13.3868 21.2164 13.4015C21.2279 13.4248 21.1176 13.414 21.0544 13.3933C21.0076 13.3736 21.0073 13.3151 21.0236 13.2772C21.104 13.0892 21.3969 12.9718 21.5832 12.9202Z" fill="black"/>
</g>
<defs>
<clipPath id="clip0_2101_16650">
<rect width="32" height="32" rx="16" fill="white"/>
</clipPath>
</defs>
</svg>
