<svg width="32" height="32" viewBox="0 0 32 32" fill="none" xmlns="http://www.w3.org/2000/svg">
<g clip-path="url(#clip0_2101_16567)">
<rect width="32" height="32" rx="16" fill="#E1D6CC"/>
<path fill-rule="evenodd" clip-rule="evenodd" d="M30.6231 51.4392C31.4397 51.3997 31.1113 49.9663 31.0527 49.4399C30.4061 47.5173 30.5581 45.4197 30.3038 43.4045C30.1454 41.5232 29.9419 39.6479 29.7707 37.7681C29.4344 33.9523 27.0198 26.1843 24.2642 24.9351C23.9171 23.4067 22.4834 21.98 20.6694 21.98C19.4323 20.5104 17.9431 19.4762 16.0331 19.685C15.2438 19.7211 14.4784 20.5611 13.7221 20.7233C13.2986 20.7819 9.54059 20.6311 8.7878 21.0797C8.26344 21.3499 7.79007 21.8492 7.94425 22.4848C8.19025 23.2549 7.42576 22.4216 5.83099 23.2436C2.57902 25.2034 4.52226 27.8253 4.60837 27.9066C2.57902 30.7399 0.805269 33.0385 -0.0154209 36.5017C-0.547308 39.0728 -0.487435 41.7271 -0.933083 44.3114C-1.09043 45.2075 -1.33183 46.0729 -1.59304 46.9431C-1.87614 48.0819 -2.01379 50.9204 -2.16984 50.9457C-2.45408 51.0166 -2.00556 51.6022 -1.70438 51.6027C6.64593 52.9926 15.1278 51.6603 23.523 51.4426C25.8889 51.36 28.2573 51.341 30.6231 51.4392Z" fill="white"/>
<path fill-rule="evenodd" clip-rule="evenodd" d="M17.967 28.1564C17.9709 28.1181 18.0224 28.1181 18.0264 28.1564L18.0854 28.7275C18.1571 29.425 18.2262 30.1212 18.2762 30.8219C18.3386 31.6957 18.3804 32.5694 18.4005 33.4451C18.4706 36.4953 18.4846 39.5471 18.4905 42.598C18.9017 42.5694 19.3129 42.5419 19.7243 42.5153C20.0034 42.4972 20.2826 42.4798 20.5617 42.4628L21.2736 42.4194L21.5667 42.4014C21.7647 42.3891 21.9897 42.3391 22.1282 42.5151C22.1836 42.5856 22.2114 42.6772 22.1597 42.7608C22.0405 42.9538 21.8575 42.947 21.6504 42.9554C21.455 42.9633 21.2596 42.9711 21.0642 42.9786C20.6455 42.995 20.2269 43.0104 19.8081 43.0221C19.3686 43.0345 18.9292 43.0446 18.4899 43.0521C18.4854 44.3401 18.4323 45.6264 18.3749 46.913L18.3489 47.492C18.2787 49.0576 18.2031 50.6247 18.0957 52.1883C18.0869 52.3163 17.9064 52.316 17.8977 52.1883C17.7767 50.4274 17.697 48.6628 17.6179 46.8996C17.5605 45.6212 17.5271 44.3424 17.5112 43.0635C17.4531 43.0639 17.3951 43.0647 17.337 43.0649C15.688 43.0721 14.0394 43.0793 12.3903 43.0638C12.3931 43.067 12.3958 43.0703 12.3976 43.0746C12.5169 43.3573 12.5283 43.7181 12.5254 44.0214C12.522 44.3694 12.4754 44.7131 12.3955 45.0514C12.1094 46.2636 11.3714 47.3493 10.5309 48.2469L10.5034 48.2761C10.3052 48.4863 10.0777 48.6975 9.95599 48.9653C9.83165 49.2387 9.78849 49.5584 9.72713 49.8522L9.71997 49.886L9.48005 50.998C9.40382 51.3512 9.38219 51.8663 9.10357 52.1211C8.84363 52.3589 8.49926 52.2347 8.37694 51.9286C8.2814 51.6897 8.37656 51.4272 8.43314 51.1884L8.87642 49.3186C8.94926 49.0136 9.02885 48.7067 9.18605 48.4328C9.34708 48.1522 9.58315 47.9488 9.82404 47.7407C10.2802 47.3467 10.6989 46.8955 11.053 46.4071C11.407 45.9188 11.7096 45.3805 11.9217 44.8146C12.0279 44.5313 12.115 44.2369 12.175 43.9402C12.2321 43.6586 12.2316 43.367 12.2927 43.0884C12.2968 43.0692 12.313 43.056 12.3316 43.0501C12.3272 43.0377 12.3339 43.0209 12.3512 43.0198L13.6998 42.9328C14.8987 42.8552 16.0974 42.7757 17.2951 42.6847L17.5068 42.6694C17.4903 40.963 17.5043 39.2562 17.535 37.5492C17.5631 35.9838 17.5637 34.418 17.6101 32.8528C17.6332 32.076 17.6829 31.301 17.7383 30.5258C17.7949 29.733 17.8855 28.9469 17.967 28.1564ZM5.30396 37.2329C5.2896 37.146 5.39857 37.0921 5.44881 37.1716C6.02308 38.0799 6.29996 39.0666 6.41667 40.1295C6.51976 41.0676 6.48938 42.0192 6.43805 42.9598C6.38329 43.963 6.3194 44.966 6.25479 45.9686L6.15553 47.5062L5.90646 51.3608C5.88862 51.6365 5.82626 51.8872 5.58968 52.0154C5.55972 52.0405 5.5285 52.063 5.49212 52.0825C5.3643 52.1511 5.19478 52.1164 5.12088 51.9848L5.15051 52.0044C5.17632 52.0207 5.14734 51.9979 5.06354 51.9361L4.99243 51.8438C4.94075 51.7659 4.90775 51.6892 4.89448 51.5966C4.87386 51.4526 4.90057 51.2947 4.90995 51.1501L5.07322 48.6225C5.20019 46.6575 5.34846 44.6931 5.46022 42.7271C5.51227 41.8108 5.54874 40.8937 5.52406 39.9758C5.49947 39.063 5.45312 38.1347 5.30396 37.2329ZM10.2719 20.3128L10.3037 20.3074C11.4444 20.1173 12.6847 20.1528 13.7271 20.7046C13.7357 20.7091 13.7318 20.7235 13.7221 20.7231L13.3866 20.7096C12.3244 20.6679 11.2655 20.6432 10.221 20.8936L10.1141 20.9195C9.738 21.0115 9.34522 21.1242 9.0431 21.3735C8.75434 21.6118 8.61055 21.9794 8.4723 22.3178L8.45381 22.3624C8.31354 22.6966 8.13599 23.0136 7.82853 23.2226C7.43029 23.4932 6.95134 23.4601 6.49471 23.4968C5.69071 23.5617 5.03337 24.1464 4.70633 24.8619C4.50829 25.2951 4.42382 25.7809 4.40709 26.2547C4.39851 26.4959 4.39729 26.7465 4.42931 26.9861C4.43954 27.0627 4.53393 27.3418 4.58206 27.3351C4.689 27.3203 4.78678 27.3762 4.82012 27.462C5.08429 27.2059 5.35606 26.9572 5.63658 26.7174C6.33584 26.1199 7.089 25.5783 7.88219 25.1129C8.48755 24.7577 9.12609 24.4057 9.78731 24.1397C9.73492 24.1386 9.68324 24.149 9.63326 24.1751C9.61137 24.1866 9.58961 24.159 9.60689 24.1408C9.81516 23.9209 10.0646 23.8896 10.3161 23.9482C10.3698 23.9311 10.4235 23.9145 10.4774 23.8988C10.5042 23.8909 10.5176 23.928 10.4957 23.9424L10.4339 23.982C10.7083 24.0742 10.9776 24.2555 11.1909 24.3985C11.8035 24.8093 12.3427 25.3116 12.8893 25.8044L12.9887 25.8937C13.4698 26.3248 13.9632 26.7437 14.5098 27.0896C14.7959 27.2706 15.0965 27.438 15.4117 27.5625C15.6821 27.6694 16.1223 27.7367 16.249 28.0235C16.3615 28.1607 16.3145 28.3358 16.1827 28.4281C15.9603 28.6737 15.5156 28.5151 15.2507 28.4128C14.9313 28.2895 14.6218 28.1413 14.3267 27.9675C13.7538 27.63 13.2256 27.2104 12.7335 26.764C12.2196 26.2977 11.7348 25.8024 11.2349 25.3216C11.0183 25.1132 10.8068 24.9 10.5899 24.6919L10.4809 24.5884C10.3702 24.4842 10.2125 24.3218 10.0438 24.2235C9.72613 24.4137 9.40353 24.596 9.08869 24.7911C8.64922 25.0634 8.22267 25.3553 7.80271 25.6569C6.99423 26.2374 6.22809 26.8876 5.51684 27.5845C4.21239 28.8625 3.10103 30.3219 2.13017 31.8672L2.05645 31.985C1.50475 32.8695 0.983029 33.7825 0.613104 34.7599C0.206075 35.8354 0.00811768 36.9663 -0.0994174 38.108C-0.20615 39.2414 -0.24215 40.3806 -0.361431 41.513C-0.483755 42.6744 -0.724769 43.8101 -0.99891 44.9437L-1.06429 45.2125C-1.31235 46.2278 -1.56837 47.243 -1.69588 48.2822C-1.76395 48.8373 -1.8049 49.4 -1.79564 49.9596C-1.78635 50.5225 -1.69821 51.0729 -1.62709 51.6298C-1.59984 51.8432 -1.80908 52.0213 -1.9963 52.0496C-2.21163 52.082 -2.39661 51.9442 -2.46354 51.7434C-2.67219 51.1177 -2.71009 50.426 -2.70354 49.7693C-2.69695 49.1026 -2.61215 48.4402 -2.49283 47.7849C-2.25815 46.496 -1.89599 45.2338 -1.59304 43.9603C-1.32604 42.8379 -1.14684 41.7135 -1.05025 40.5637C-0.949981 39.3707 -0.889938 38.1737 -0.707023 36.9894C-0.526474 35.8201 -0.186755 34.7033 0.325568 33.6371C0.792047 32.6664 1.37354 31.7527 1.98317 30.8671C2.7235 29.7917 3.53658 28.7684 4.44546 27.836C4.36382 27.8324 4.27999 27.806 4.203 27.7578C3.96748 27.6104 3.85779 27.322 3.82407 27.0587C3.74515 26.4427 3.7642 25.7997 3.92206 25.1975C4.17672 24.226 4.83765 23.3628 5.79554 23.0126C6.04209 22.9225 6.30419 22.8896 6.56548 22.8831C6.81343 22.8769 7.08423 22.9093 7.32347 22.8305C7.70427 22.7049 7.8675 22.2548 8.01048 21.9137L8.01706 21.898C8.2004 21.4633 8.42045 21.0906 8.81755 20.8192C9.24122 20.5295 9.77203 20.3978 10.2719 20.3128ZM21.1098 22.032C21.4526 21.9127 21.8811 22.021 22.2163 22.1252C22.5897 22.2414 22.9348 22.4553 23.2307 22.7094C23.5428 22.9774 23.8008 23.3083 23.983 23.6779L24.0004 23.7136C24.1669 24.0565 24.3564 24.5272 24.2725 24.9039C24.2701 24.9146 24.2674 24.9249 24.2642 24.9348C24.9443 25.2708 25.5724 25.6916 26.1193 26.2249C26.7561 26.8458 27.2954 27.5524 27.7517 28.3158C29.5641 31.3478 29.8831 34.9891 30.0972 38.4468L30.1506 39.3235C30.2668 41.2167 30.4028 43.1053 30.7561 44.9723L30.7819 45.1071C31.1596 47.0619 31.7003 49.0316 31.6455 51.0369C31.6291 51.6377 30.7442 51.6336 30.7185 51.0369C30.622 48.7908 30.0996 46.6222 29.7459 44.4112C29.1236 40.5213 29.4354 36.5111 28.5536 32.6602C28.2075 31.149 27.6714 29.6831 26.9059 28.3341C26.5278 27.6677 26.0952 27.0237 25.5884 26.4488C25.1524 25.9541 24.6992 25.4781 24.1897 25.0622C24.0268 25.2259 23.7015 25.1425 23.6165 24.9039C23.5581 24.7399 23.5751 24.5482 23.5376 24.3765C23.5029 24.2171 23.4549 24.059 23.391 23.9089C23.2637 23.6098 23.0767 23.3225 22.861 23.0804C22.6278 22.8187 22.3599 22.6013 22.0601 22.4218C21.7583 22.241 21.4281 22.1871 21.1098 22.055C21.0991 22.0505 21.0981 22.0361 21.1098 22.032ZM22.4415 42.8208C22.442 42.805 22.4605 42.7975 22.4719 42.8081C22.5921 42.919 22.6647 43.0783 22.7532 43.2148C22.8552 43.3722 22.9623 43.5263 23.0746 43.6765C23.2996 43.9774 23.5502 44.261 23.8027 44.5388C24.0375 44.7972 24.2878 45.0447 24.5475 45.278C24.8288 45.5308 25.1441 45.7564 25.3996 46.0363C25.933 46.6204 26.0191 47.4221 26.1317 48.1748L26.144 48.2563C26.2126 48.703 26.2741 49.1509 26.3295 49.5995C26.3565 49.8177 26.3833 50.0361 26.4053 50.2548L26.412 50.3241C26.4316 50.5383 26.4369 50.7555 26.3143 50.9426C26.1832 51.1428 25.8849 51.213 25.7075 51.021C25.4029 50.6913 25.46 50.1056 25.4203 49.6813C25.3876 49.3305 25.3505 48.9802 25.3089 48.6304L25.2877 48.4555C25.2387 48.0575 25.1989 47.6516 25.1082 47.2606C25.0282 46.9162 24.8758 46.6563 24.6257 46.4068C24.3738 46.1555 24.1121 45.9209 23.8795 45.6502C23.6329 45.3632 23.4104 45.0554 23.21 44.7342C23.0385 44.4594 22.9011 44.1604 22.7752 43.8618L22.7543 43.812C22.6326 43.5208 22.432 43.1416 22.4415 42.8208ZM26.8406 30.3107C26.8432 30.2701 26.9031 30.2695 26.904 30.3107C26.9115 30.6601 26.9188 31.0095 26.926 31.3589C26.9842 34.1744 26.9483 36.9965 27.2298 39.8023C27.3626 41.1253 27.6071 42.4287 27.8899 43.7268C28.0347 44.391 28.1866 45.0536 28.3309 45.7179C28.4715 46.3653 28.6223 47.0159 28.7338 47.6693C28.8435 48.3115 28.9416 48.9587 28.9857 49.6092L28.9911 49.694C29.0101 50.0091 29.1006 50.4726 28.9277 50.7518C28.7404 51.0544 28.3817 51.0598 28.181 50.771C27.9925 50.4999 28.0393 50.0175 28.006 49.694C27.9722 49.3645 27.9364 49.0346 27.8957 48.7058C27.8164 48.0644 27.7119 47.4245 27.6033 46.7874C27.3769 45.4608 27.0486 44.1509 26.8063 42.8264C26.5579 41.4692 26.3814 40.1023 26.3739 38.7204C26.3665 37.3269 26.5135 35.936 26.5877 34.5455C26.6631 33.1332 26.7488 31.722 26.8406 30.3107ZM13.5865 21.5536C13.6618 21.2991 13.9277 21.1399 14.187 21.2114C14.4247 21.277 14.6209 21.5664 14.528 21.8141C14.4266 22.0844 14.2494 22.3148 14.1 22.5604C13.962 22.7874 13.7607 22.9661 13.6201 23.1891L13.775 23.3566C13.8525 23.4402 13.9303 23.5233 14.0089 23.605L14.279 23.8859C14.4895 24.1041 14.7012 24.3212 14.919 24.5319C15.5592 25.1516 16.2095 25.7509 16.9265 26.2816C17.0898 26.4024 17.2543 26.5225 17.4234 26.6349L17.4864 26.6768C17.6024 26.7531 17.7319 26.828 17.872 26.8151C18.2126 26.7837 18.5203 26.4208 18.7543 26.1949L18.7665 26.1831C19.3464 25.6294 19.8834 25.024 20.3529 24.3731C20.4572 24.2285 20.5581 24.0814 20.6564 23.9326C20.4294 23.6665 20.4836 23.1471 20.4711 22.8245C20.4623 22.5976 20.4616 22.3706 20.4604 22.1436L20.4598 22.0978C20.457 21.9508 20.4504 21.8099 20.5454 21.689C20.551 21.682 20.5624 21.6822 20.5695 21.6859C20.6996 21.7543 20.7398 21.8689 20.7953 21.9975L20.8011 22.0108C20.8687 22.1651 20.9334 22.3209 20.9989 22.4761C21.0675 22.6385 21.1304 22.8034 21.1941 22.9678C21.2238 23.0443 21.2521 23.1211 21.2798 23.1983C21.2966 23.2476 21.3141 23.2967 21.332 23.3456L21.3362 23.3494C21.3599 23.3696 21.3799 23.3908 21.3972 23.4128C21.4699 23.4493 21.5276 23.5157 21.5547 23.6133C21.6136 23.8258 21.4916 23.999 21.3828 24.1677C20.9408 24.8529 20.437 25.5058 19.877 26.0981C19.5988 26.3923 19.3062 26.6734 19.0015 26.9399L18.9483 26.9862C18.6746 27.2222 18.3775 27.4458 18.012 27.501C17.5843 27.5656 17.2362 27.3521 16.9088 27.1062L16.8761 27.0816C16.5657 26.8458 16.2616 26.6017 15.9669 26.3464C15.3661 25.8259 14.7945 25.267 14.2873 24.6539C13.7938 24.0575 13.3061 23.3906 13.002 22.673C12.9834 22.6292 13.0322 22.5835 13.0704 22.62C13.2189 22.7619 13.3619 22.9115 13.5031 23.0631C13.5071 22.84 13.466 22.615 13.4888 22.3906C13.5167 22.1177 13.5087 21.8163 13.5865 21.5536Z" fill="black"/>
<path fill-rule="evenodd" clip-rule="evenodd" d="M23.707 11.1395C23.3246 9.52173 22.4885 8.01625 21.15 6.79956C17.122 2.80348 9.72501 4.97248 9.75852 10.9943C9.61405 11.6976 9.5554 12.4208 9.60323 13.1381C9.62301 13.4441 9.75501 13.8712 9.57767 14.1467C9.17766 14.662 8.94518 15.0418 9.08132 15.7272C9.19507 16.3257 9.60095 16.7497 10.1487 16.9751C10.4772 17.0697 10.789 17.2758 10.9106 17.5899C11.6419 18.9333 12.1836 20.0507 13.3364 20.9663C13.6339 21.202 16.6848 22.6157 17.6901 22.6157C20.6331 22.6157 24.3424 21.5459 24.4039 18.2472C24.4146 17.5226 24.2879 16.7897 24.2084 16.0709C24.0149 14.4305 24.0832 12.7307 23.707 11.1395Z" fill="white"/>
<path fill-rule="evenodd" clip-rule="evenodd" d="M23.6408 10.3301C23.6418 10.31 23.6703 10.3055 23.6759 10.3253C23.7853 10.7148 23.8473 11.1115 23.9328 11.507C24.0152 11.888 24.093 12.27 24.1577 12.6544C24.2799 13.3797 24.3828 14.1069 24.4786 14.836L24.5024 15.0183C24.6687 16.3012 24.9436 17.6377 24.7033 18.9282C24.4982 20.0293 23.8107 20.9167 22.9247 21.5673C22.0857 22.1834 21.0686 22.5787 20.0586 22.8035C18.9747 23.0448 17.6898 23.1168 16.8079 22.3191C16.4548 21.9997 16.9361 21.366 17.3191 21.6543C18.2185 22.3309 19.3627 22.1314 20.3776 21.8622L20.4083 21.854C21.299 21.6159 22.1957 21.2551 22.9028 20.6463C23.6847 19.9732 24.0712 19.039 24.1159 18.0144C24.141 17.4388 24.0875 16.8638 24.0298 16.2916L24.0234 16.228C23.9572 15.5736 23.8877 14.9195 23.8236 14.2648C23.7651 13.6679 23.7146 13.0674 23.688 12.4678L23.6755 12.1653C23.6496 11.5556 23.6147 10.9369 23.6408 10.3301ZM13.0926 5.26354C14.5561 4.49893 16.2382 4.22527 17.867 4.48188C19.4328 4.72857 20.8698 5.53935 21.944 6.70193C22.4684 7.26955 22.9338 7.92612 23.2313 8.64341C23.3791 8.99974 23.4948 9.37147 23.5564 9.75324C23.588 9.94951 23.6192 10.1529 23.6251 10.3519C23.6306 10.5361 23.5767 10.7089 23.5831 10.8961C23.5841 10.9254 23.5393 10.9311 23.5325 10.903C23.4817 10.6942 23.3591 10.5363 23.2822 10.3379C23.2247 10.1898 23.1595 10.0452 23.0931 9.9011L23.0361 9.77758C22.8705 9.41858 22.6727 9.07433 22.4769 8.73131C22.0827 8.04043 21.5769 7.41256 20.9847 6.88277C19.9449 5.95259 18.6109 5.35215 17.2186 5.24403C15.7735 5.13176 14.3077 5.4774 13.0736 6.24307C11.8395 7.0087 10.9064 8.19888 10.4219 9.56922C10.1775 10.2607 10.0425 10.9812 10.0111 11.7138C9.99522 12.0847 10.01 12.4586 10.036 12.8287L10.0488 13.0052C10.0639 13.2169 10.0742 13.4277 10.0427 13.6342C10.2653 13.5646 10.4986 13.5357 10.7328 13.5702C11.0808 13.6214 11.2886 13.7645 11.4447 14.0765C11.4529 14.0928 11.4365 14.1091 11.4203 14.101C11.218 13.9997 10.8906 14.053 10.6763 14.1061C10.4533 14.1614 10.2524 14.2576 10.0629 14.3876C9.71233 14.6279 9.43751 15.0004 9.37008 15.4278C9.30488 15.8406 9.47377 16.2586 9.75746 16.5545C9.90349 16.7068 10.078 16.8386 10.2735 16.9207C10.5106 17.0204 10.7454 17.0173 10.9552 17.1818C11.0849 17.2835 11.0536 17.4576 10.9656 17.5705C11.4083 18.0576 11.8009 18.5905 12.2435 19.0795C12.4487 19.3062 12.6523 19.5331 12.8489 19.7671L12.9222 19.8552C13.1186 20.0929 13.4309 20.344 13.5206 20.6431C13.5764 20.8291 13.3779 21.0724 13.1772 20.9876C12.8694 20.8575 12.6497 20.5192 12.4417 20.2596L12.4282 20.2428C12.2101 19.9739 12.0164 19.69 11.8394 19.3925L11.7812 19.2944C11.461 18.7542 11.1436 18.1938 10.9395 17.6003C10.926 17.6142 10.9117 17.6269 10.8967 17.6376C10.6026 17.8474 10.1751 17.6861 9.88139 17.5498C9.60412 17.4212 9.34992 17.2277 9.1518 16.9944C8.72089 16.4873 8.52226 15.8304 8.66618 15.1721C8.78808 14.6145 9.17322 14.0721 9.67815 13.7901C9.44508 13.5208 9.34857 13.1579 9.28435 12.803C9.20237 12.3501 9.18602 11.8859 9.20829 11.4265C9.2527 10.5117 9.48733 9.60984 9.85004 8.77209C10.499 7.27311 11.6462 6.01924 13.0926 5.26354ZM10.0122 15.2663C10.3194 15.2085 10.6057 15.1946 10.902 15.325C11.2233 15.4666 11.4495 15.7003 11.6598 15.9741C11.899 16.2856 11.2859 16.6259 11.1313 16.2124L11.1268 16.1996C11.0853 16.0772 11.0112 15.9589 10.9173 15.8499C10.8891 15.8933 10.8514 15.9314 10.8071 15.9533C10.7535 15.9797 10.6716 15.9614 10.6587 15.8927C10.6444 15.8164 10.6602 15.724 10.7041 15.6594L10.7101 15.6506C10.497 15.4785 10.2406 15.3527 10.0122 15.3123C9.98942 15.3082 9.98967 15.2705 10.0122 15.2663Z" fill="black"/>
<path fill-rule="evenodd" clip-rule="evenodd" d="M19.6304 19.7342C19.3464 19.6179 19.093 19.424 18.9077 19.1762C18.8433 19.0901 18.8266 18.9991 18.8401 18.9159C18.8553 18.8224 18.9104 18.7376 18.9856 18.6807C19.0611 18.6237 19.1555 18.5956 19.2467 18.6099C19.326 18.6224 19.4049 18.6659 19.4673 18.7563L19.4804 18.7743C19.5906 18.9239 19.7341 19.0466 19.8977 19.1256C20.0553 19.2019 20.2316 19.2375 20.4141 19.2168C20.7615 19.1774 21.001 18.9888 21.2556 18.7327C21.2872 18.7004 21.3187 18.667 21.3505 18.6332C21.3705 18.6024 21.3983 18.5827 21.4292 18.5723C21.4635 18.5608 21.5022 18.5615 21.5378 18.5739C21.572 18.5859 21.6026 18.6087 21.6232 18.6389C21.6427 18.6677 21.6537 18.7032 21.6502 18.7441C21.6269 19.0094 21.4886 19.2463 21.2922 19.4323C21.074 19.6388 20.7849 19.7817 20.5127 19.8318C20.2128 19.887 19.9072 19.8475 19.6304 19.7342ZM20.6542 15.64C20.9732 15.8347 21.4594 16.2885 21.1161 16.771C20.7121 17.1964 20.1304 16.7086 19.8437 16.488C19.5779 16.317 19.2793 16.7568 19.5259 16.9564C21.5973 18.4953 22.4379 15.6909 20.8155 15.4112C20.6369 15.3804 20.5706 15.5798 20.6542 15.64ZM16.9421 13.8499C16.9774 13.4107 17.6438 13.311 17.7101 13.7455C17.7695 14.1348 17.6996 14.4923 17.5249 14.8428C17.358 15.1776 16.9384 15.0214 16.9066 14.7165C16.8641 14.3079 16.9202 14.123 16.9421 13.8499ZM22.0153 13.6555C22.1082 13.5333 22.2423 13.45 22.4031 13.4971C22.9052 13.6443 22.7572 14.3598 22.5809 14.708C22.485 14.8971 22.1753 14.9451 22.0353 14.7786C21.8071 14.507 21.6978 13.9648 21.9879 13.6973C21.9958 13.6835 22.0045 13.6695 22.0153 13.6555ZM17.5178 11.9284L17.5972 11.9145C17.8426 11.8719 18.1477 11.831 18.3213 12.029C18.4133 12.134 18.445 12.3291 18.3213 12.4296C18.1036 12.6064 17.8629 12.5379 17.602 12.5528C17.3871 12.5652 17.1804 12.6009 16.9733 12.6603C16.519 12.7906 16.1489 13.0285 15.7608 13.2897C15.7099 13.3239 15.658 13.2586 15.6822 13.2108C15.9062 12.7706 16.3403 12.4089 16.7751 12.1885C17.0072 12.0708 17.2611 11.9732 17.5178 11.9284ZM21.5575 11.7312L21.6182 11.7437C22.2789 11.8823 23.1374 12.1591 23.4502 12.8104C23.4622 12.9025 23.4496 12.9222 23.4393 12.9351L23.4359 12.9394C23.4275 12.9504 23.4207 12.9656 23.381 12.9781C23.3699 12.9755 23.3588 12.9727 23.3475 12.9697C23.2041 12.932 23.0906 12.88 22.9808 12.8261L22.8616 12.7672C22.7235 12.6993 22.584 12.6337 22.4363 12.5854C22.121 12.4822 21.7967 12.4095 21.4673 12.3706C21.396 12.3622 21.3272 12.3381 21.273 12.2966C21.2215 12.2573 21.1822 12.2029 21.1643 12.1305C21.141 12.0368 21.1477 11.9659 21.1978 11.8814C21.2355 11.8179 21.2893 11.774 21.3512 11.7487C21.4143 11.7229 21.4861 11.7169 21.5575 11.7312Z" fill="black"/>
<path fill-rule="evenodd" clip-rule="evenodd" d="M21.5491 20.386C21.1555 20.0342 20.7145 19.327 20.1491 19.8866C20.0093 20.0447 19.9527 20.3991 19.7389 20.4687C19.455 20.5611 19.1736 20.2596 19.0768 20.0281C18.6809 18.7418 20.3175 18.389 21.2499 18.5968C21.7054 18.7845 22.0409 19.5401 22.0612 19.9344C22.0743 20.1994 21.8507 20.5891 21.5491 20.386ZM24.5178 18.4034C24.5139 18.3863 24.5086 18.3708 24.5021 18.3568C24.3281 18.2908 24.1904 18.3581 24.1053 18.4839C24.1081 18.5151 24.1173 18.5468 24.1232 18.5778C24.0576 18.7166 23.9983 18.8884 23.9093 19.0083C23.8918 19.0097 23.8735 19.0078 23.8561 19.0027C22.3809 19.1573 23.1011 17.6085 21.6048 17.2238C20.4482 17.0323 18.3578 17.2516 17.8122 18.4597C17.3818 20.3892 15.1938 19.0447 14.4754 18.0412C13.7089 17.1279 13.2133 16.012 12.7354 14.9291C12.6344 14.6999 12.3192 14.8638 12.3535 15.0836C11.9118 15.9728 11.9265 17.0409 11.8171 18.015C11.631 19.9584 11.4497 22.6839 13.2492 23.8705C15.5937 26.5298 21.4482 27.4682 24.1524 25.0248C25.0885 23.0053 24.9731 20.5415 24.5178 18.4034Z" fill="black"/>
</g>
<defs>
<clipPath id="clip0_2101_16567">
<rect width="32" height="32" rx="16" fill="white"/>
</clipPath>
</defs>
</svg>
