<svg width="64" height="87" viewBox="0 0 64 87" fill="none" xmlns="http://www.w3.org/2000/svg">
<path fill-rule="evenodd" clip-rule="evenodd" d="M49.7215 49.1713C48.9395 45.4392 46.166 42.5432 42.436 41.1005C41.719 40.692 41.024 38.9392 40.0604 38.6182C39.906 38.5667 40.1498 38.9762 40.0604 39.0007C39.7418 39.0879 39.3847 39.097 39.0328 38.782C38.404 38.219 38.2067 36.5742 37.8244 35.8307C35.808 31.91 30.7735 33.4441 30.099 37.7784C29.6287 38.0871 28.9639 38.3591 28.452 38.608C27.9249 38.8642 27.4612 39.4848 26.9179 39.7067C26.4332 39.9046 25.6346 39.7644 25.1461 39.937C22.8997 40.7308 20.9971 41.7324 19.5054 43.7618C19.1911 44.1898 18.8368 44.716 18.5507 45.1484C17.0762 46.8584 16.0519 48.775 15.1086 50.8313C12.4694 56.8668 11.7515 63.5495 11.1075 70.0525C11.1221 71.1903 10.3726 74.3453 11.4812 74.8908C11.4149 74.96 11.4389 75.099 11.5618 75.0978C14.3727 75.0692 17.1771 75.3226 19.9443 75.8152C21.2795 76.053 22.6075 76.379 23.9675 76.4325C26.7906 76.4129 29.6036 75.9363 32.4231 76.3873C35.8125 76.3873 39.9317 76.2878 43.7024 76.1418C47.2265 76.0053 50.7694 76.3135 54.2498 75.7099C54.5253 75.6659 54.6599 75.3275 54.6021 75.0849C54.1938 73.5861 53.9933 72.0435 53.7642 70.5094C53.8098 69.5255 53.7282 68.4983 53.3669 67.5818C52.4227 61.3949 51.2121 55.2483 49.7215 49.1713Z" fill="white"/>
<path fill-rule="evenodd" clip-rule="evenodd" d="M48.5842 57.3035C48.5098 57.6673 48.4056 58.031 48.267 58.3756C48.1334 58.7081 47.9323 59.006 47.7938 59.3346C47.7752 59.3789 47.7448 59.4124 47.7081 59.4379L47.7195 59.5273V59.5273L47.7301 59.6167C47.7992 60.2199 47.8769 60.8214 47.9442 61.4245L47.9769 61.7262C48.1092 62.9854 48.3182 64.2385 48.4805 65.4944C48.6394 66.7242 48.8011 67.954 48.974 69.1821C49.1526 70.4483 49.3346 71.7127 49.547 72.9737C49.6366 73.5063 49.7302 74.0384 49.8277 74.5701L49.903 74.977C50.6782 75.1649 50.8901 76.2534 50.1008 76.6552C49.7425 76.8368 49.2822 76.7931 48.987 76.5077C48.6801 76.2102 48.6674 75.6738 48.5962 75.271L48.5276 74.8966C48.0143 72.0815 47.5688 69.234 47.3605 66.3792C47.307 65.642 47.2619 64.9043 47.2326 64.1659C47.2048 63.4714 47.2181 62.7769 47.2074 62.0824L47.2039 61.893C47.1876 61.1524 47.2011 60.4129 47.2202 59.6723C47.2225 59.5821 47.2264 59.4918 47.2309 59.401C47.2051 59.3704 47.1864 59.3341 47.1786 59.2989L47.1684 59.2523C47.143 59.1326 47.1718 58.9924 47.2631 58.9067C47.3025 58.4022 47.3543 57.8982 47.3684 57.3943C47.3695 57.3529 47.4287 57.3541 47.4321 57.3943C47.4653 57.8233 47.5318 58.2535 47.5982 58.6831C48.0258 58.3369 48.3419 57.766 48.5284 57.2882C48.5419 57.2535 48.5921 57.266 48.5842 57.3035ZM38.467 37.2463C38.5379 37.5732 38.6782 37.8667 38.8664 38.1397C38.956 38.2702 39.0579 38.3916 39.1802 38.4932C39.285 38.58 39.4045 38.6368 39.516 38.7123C39.6782 38.6867 39.8478 38.7486 39.9616 38.8689L39.9436 38.693C39.9379 38.6362 40.0315 38.6249 40.0422 38.6799C40.5351 41.1839 40.9846 43.6894 41.3737 46.2115L41.5443 47.3253L41.7048 48.3709C41.9712 50.1133 42.229 51.855 42.4231 53.6101C42.6817 55.9523 42.8991 58.3006 43.0579 60.6524C43.2174 63.0206 43.3155 65.3905 43.3853 67.7634C43.4027 68.3615 43.4214 68.9591 43.4394 69.5572L43.5597 68.8421C43.6798 68.1269 43.7976 67.4109 43.8985 66.6925C44.2608 64.1211 44.5504 61.5314 44.6917 58.938C44.8214 56.5646 44.778 54.1442 44.1786 51.832C44.0275 51.2503 43.8427 50.6777 43.6197 50.1199C43.4033 49.5774 43.1081 49.0745 42.8754 48.5399C42.605 47.918 42.5239 47.3311 42.6631 46.6615C42.7848 46.0781 42.9983 45.5293 43.0365 44.9289C43.1081 43.8143 42.7481 42.7348 42.2394 41.7593C42.1053 41.5022 41.9639 41.2485 41.8163 40.9971C41.3695 40.2372 40.8658 39.5051 40.3431 38.8031C40.3149 38.7656 40.3746 38.7242 40.405 38.7549C40.8816 39.2293 41.4027 39.6958 41.8315 40.2139C42.0399 40.4659 42.2433 40.7229 42.436 40.9869C44.5498 41.3427 46.3662 42.669 47.6078 44.4204C49.0168 46.4078 49.7295 48.7999 50.2569 51.1556C50.8434 53.7736 51.338 56.4153 51.8648 59.0463C52.4101 61.7687 52.9526 64.4911 53.5013 67.2129C53.774 68.5641 54.0467 69.9154 54.3188 71.2672C54.4568 71.9516 54.6017 72.6344 54.7532 73.3165C54.831 73.6661 54.9143 74.0151 54.9864 74.3658C55.0675 74.7614 54.992 75.0144 54.7262 75.3051C54.6281 75.4129 54.4732 75.4112 54.3515 75.3539L54.3134 75.3358L54.2767 75.318C54.1261 75.2434 54.008 75.1662 53.9143 75.0003C53.8112 74.8181 53.7948 74.6161 53.7594 74.4135C53.694 74.0406 53.6293 73.6678 53.5639 73.2944C53.4663 72.7359 53.3601 72.1791 53.252 71.6224L52.7098 68.8403C52.5653 68.0985 52.4205 67.3567 52.2748 66.6153C51.7548 63.9639 51.2343 61.313 50.7138 58.6621C50.214 56.1168 49.7717 53.5539 49.2028 51.0233L49.1704 50.8808L49.1375 50.7384C48.6288 48.5569 47.9179 46.4466 46.6281 44.598C45.6354 43.1764 44.2569 41.9068 42.6332 41.2644C42.7476 41.4301 42.8574 41.5992 42.9622 41.7718C43.6203 42.8546 44.1008 44.14 43.9881 45.4294C43.9329 46.0593 43.6952 46.6785 43.7177 47.3135C43.7385 47.8777 44.085 48.3731 44.3245 48.8639C44.8681 49.9763 45.2614 51.1585 45.5149 52.3712C46.0236 54.8064 46.0219 57.312 45.8467 59.7841C45.6563 62.4713 45.2946 65.1579 44.8828 67.8189C44.6715 69.1838 44.3904 70.5374 44.1751 71.9C44.0687 72.5719 43.9239 73.2422 43.7971 73.9107L43.7367 74.2301C43.7029 74.4073 43.6678 74.584 43.6272 74.7588L43.6022 74.8635V74.8822C43.6011 75.0111 43.5661 75.1178 43.5098 75.2029C43.4326 75.452 43.3369 75.695 43.2096 75.9282C43.1442 76.0474 43.0495 76.1143 42.9464 76.1388C42.8427 76.3777 42.6078 76.5615 42.3273 76.5604L38.6377 76.5462C36.4946 76.5377 34.3515 76.5235 32.2084 76.5116C31.6676 76.5088 31.1273 76.4986 30.587 76.4844C30.0805 76.4702 29.5949 76.4089 29.0941 76.3453C28.5284 76.2738 28.2219 75.8703 28.3065 75.3011C28.325 75.1756 28.3453 75.0508 28.3645 74.926C28.2518 74.9634 28.1177 74.9458 28.027 74.8567L27.942 74.7729C27.8241 74.6554 27.7187 74.5401 27.6439 74.3834C27.5667 74.2223 27.5041 74.052 27.436 73.8874C27.2889 73.5333 27.1459 73.178 27.0067 72.8211C26.7279 72.1071 26.449 71.3904 26.1898 70.669C25.6766 69.2406 25.2225 67.7906 24.8276 66.3242C24.1234 63.7079 23.614 61.0412 23.2929 58.3506L23.2161 57.7093L23.1938 57.5199C23.072 56.477 22.9695 55.418 23.0179 54.3774C23.0479 53.7258 23.1481 53.0693 23.3898 52.4608C23.6129 51.8996 23.9571 51.4195 24.2844 50.9178L24.3219 50.8599L24.3595 50.8006C24.6458 50.3449 24.8736 49.8685 24.885 49.3152C24.8966 48.7536 24.7341 48.2071 24.5526 47.6814L24.5073 47.5517L24.4769 47.4659C24.0906 46.3793 23.651 45.3081 23.796 44.1258C24.0101 42.3847 25.0579 40.9812 26.3763 39.899C25.2039 40.1328 24.0434 40.5947 23.0191 41.1804C21.8095 41.8728 20.7205 42.7865 19.7813 43.8177C18.0067 45.7664 16.7396 48.1047 15.7025 50.5189C14.6168 53.0454 13.8118 55.6929 13.205 58.375C12.5949 61.0724 12.1865 63.8129 11.9075 66.5642C11.7684 67.9336 11.6591 69.3064 11.5684 70.6798C11.5222 71.3835 11.4873 72.0884 11.4332 72.791C11.3791 73.493 11.3549 74.2057 11.1847 74.8891C11.1053 75.2075 10.5695 75.2398 10.5121 74.8891C10.3847 74.1058 10.4203 73.2958 10.4558 72.5027L10.4591 72.4306C10.4941 71.6406 10.5397 70.8512 10.5937 70.0618C10.7042 68.4484 10.8518 66.8372 11.0444 65.2311C11.7199 59.5934 12.9656 53.9852 15.409 48.839C16.5594 46.4152 18.036 44.06 20.0901 42.3098C21.0681 41.4772 22.1706 40.8126 23.3588 40.3314C24.4214 39.9007 25.5008 39.6969 26.6298 39.6975C27.196 39.2605 27.8039 38.8797 28.4112 38.5545C28.4478 38.5347 28.4861 38.5823 28.4557 38.613C28.44 38.6283 28.4247 38.6441 28.409 38.6589C28.4777 38.6635 28.5487 38.6958 28.6123 38.7634C28.8355 38.9988 29.0236 39.2934 29.192 39.5993C29.4484 39.9217 29.6929 40.2547 29.9487 40.5737C30.3582 41.0844 30.7774 41.5878 31.2017 42.0872C31.9142 42.9266 32.6499 43.75 33.4172 44.5403L33.5453 44.6717C33.943 45.0775 34.3459 45.5633 34.8163 45.8845L34.8414 45.9013C35.0398 46.0316 35.1805 46.0552 35.3498 45.8607C35.5036 45.6836 35.6317 45.4782 35.7633 45.283L35.7938 45.2381C36.4659 44.2546 37.089 43.2348 37.6529 42.1849C37.91 41.7071 38.1545 41.2224 38.3865 40.7323L38.4557 40.5851C38.5819 40.315 38.7188 40.0499 38.823 39.7718C38.8472 39.7066 38.8709 39.6413 38.894 39.5766C38.5391 39.3422 38.2642 38.8349 38.1645 38.4376C38.0608 38.025 38.1132 37.6016 38.2979 37.2243C38.3329 37.1533 38.4501 37.1709 38.467 37.2463ZM20.9578 54.0124C20.9087 55.5811 20.8789 57.1514 20.8056 58.7189L20.7803 59.254C20.8946 59.3823 20.9616 59.5304 20.9081 59.7336C20.8873 59.8114 20.8258 59.8817 20.7492 59.9078L20.7253 60.4054C20.6166 62.6439 20.4892 64.8778 20.2563 67.1107C19.965 69.9052 19.6281 72.695 19.2918 75.4844C19.2439 75.8794 18.9712 76.1926 18.547 76.1348C18.1177 76.0763 17.9436 75.7 18 75.3079C18.2214 73.7694 18.4343 72.2297 18.6208 70.6861L18.8332 68.9274C19.0995 66.729 19.3721 64.531 19.6862 62.3396C19.8174 61.4237 19.9538 60.5083 20.0906 59.5928L20.0428 59.5304C19.8473 59.2745 19.645 59.0242 19.445 58.7722C19.0608 58.2865 18.6817 57.8046 18.3296 57.2961C18.312 57.2705 18.3476 57.2331 18.3729 57.2524C18.8664 57.6196 19.3335 58.0123 19.8034 58.4113L20.2146 58.762C20.4512 57.1803 20.6856 55.5981 20.8946 54.0124C20.8997 53.9728 20.9589 53.9699 20.9578 54.0124ZM28.0569 39.0006C27.7599 39.2826 27.4563 39.5585 27.1571 39.8388L27.0475 39.942L26.9384 40.0456C26.4126 40.548 25.9088 41.0709 25.489 41.6713C24.7183 42.774 24.2591 44.1184 24.5796 45.4646C24.8456 46.5797 25.4558 47.5905 25.6197 48.7335C25.7019 49.3061 25.6619 49.8816 25.4478 50.4223C25.2292 50.974 24.8799 51.4468 24.5661 51.9445C23.8844 53.0262 23.7915 54.2134 23.8591 55.4665C23.9301 56.7752 24.0794 58.0844 24.2636 59.3812C24.6365 62.0088 25.1988 64.6091 25.943 67.1556C26.3155 68.4308 26.7554 69.6787 27.1932 70.9318C27.4112 71.5555 27.6653 72.1644 27.9272 72.7705C28.0653 73.0895 28.2067 73.4067 28.3504 73.7234C28.2974 73.2762 28.2974 72.8171 28.2715 72.3727C28.2343 71.736 28.187 71.1004 28.1436 70.4642C28.0552 69.1731 27.9763 67.8808 27.9059 66.5886C27.6563 61.9804 27.4727 57.3682 27.4861 52.7526C27.4929 50.4445 27.5397 48.1364 27.6383 45.8306C27.6845 44.7447 27.774 43.6599 27.8549 42.5756L27.8721 42.3433C27.9436 41.37 28.0293 40.3944 28.1763 39.4296C28.1327 39.3307 28.095 39.2305 28.0669 39.1278L28.0569 39.0891L28.0642 39.0903C28.0574 39.0601 28.0552 39.0301 28.0569 39.0006ZM30.6248 35.0348C30.6309 35.0081 30.6687 35.0104 30.6754 35.0348C30.8427 35.6023 30.7836 36.2266 30.6394 36.7975C30.5617 37.1068 30.4513 37.407 30.3177 37.6964L30.271 37.7977C30.1566 38.0442 30.0278 38.2982 29.805 38.4518C29.7121 38.5159 29.5458 38.5199 29.4529 38.4518L29.4055 38.4156C29.3977 38.4094 29.39 38.4032 29.3825 38.3967C29.2958 38.3235 29.2529 38.1618 29.2929 38.0551C29.396 37.7799 29.6298 37.5778 29.7915 37.3327C29.9346 37.1147 30.0614 36.8849 30.1667 36.646C30.3937 36.129 30.4957 35.5802 30.6248 35.0348Z" fill="black"/>
<path fill-rule="evenodd" clip-rule="evenodd" d="M35.6215 16.184C44.1011 16.4544 44.6126 20.5117 44.6126 27.3159C44.6126 34.1201 40.2137 38.4077 38.594 39.1564C36.9743 39.9051 32.7093 43.1209 28.8604 41.639C25.0115 40.157 26.1261 33.896 26.1261 31.2059C26.1261 28.5157 27.1419 15.9135 35.6215 16.184Z" fill="white"/>
<path fill-rule="evenodd" clip-rule="evenodd" d="M39.0616 36.9217C37.5044 37.7973 35.7214 37.8314 34.0464 37.2803C33.0419 36.9507 32.1208 36.441 31.2588 35.8315C30.5089 35.3008 29.8396 34.7123 29.1765 34.0874C28.6306 32.8747 28.1444 31.6642 27.9168 30.3447C27.7128 29.1603 27.6858 27.9305 27.9224 26.7484C29.6723 25.2984 31.4115 23.8365 33.1483 22.3701C34.0328 21.6232 34.9196 20.8803 35.8171 20.1493C36.2728 19.7782 36.7242 19.4013 37.1782 19.0285C37.2531 18.9672 37.3275 18.9059 37.4025 18.8446C38.3399 19.5358 39.345 20.1284 40.2757 20.8309C40.763 21.1992 41.2368 21.5914 41.6881 22.0039C41.9247 22.2202 42.1557 22.4432 42.3811 22.6719C42.5872 22.8808 42.7861 23.1804 43.0785 23.2594C43.1185 23.2701 43.1562 23.2724 43.1917 23.2673C43.5827 26.7155 43.8604 30.4389 42.1855 33.5705C41.4548 34.9365 40.4188 36.1578 39.0616 36.9217ZM28.9315 38.189C28.7171 37.9911 29.0366 37.6708 29.2501 37.8679C30.5913 39.1054 32.3447 39.7614 34.1157 40.065C34.4015 40.1141 34.2796 40.5515 33.9959 40.5028C32.1468 40.1858 30.3295 39.4789 28.9315 38.189ZM27.3221 40.0877C27.0661 39.9493 27.294 39.5576 27.5496 39.6957C28.5945 40.2602 29.7406 40.5535 30.903 40.7515C31.189 40.8002 31.067 41.2376 30.7833 41.1893C29.5813 40.9846 28.4019 40.671 27.3221 40.0877ZM31.5748 20.9609C32.4419 20.1771 33.3737 19.4314 34.358 18.802C35.354 18.1653 36.4419 17.7845 37.6176 17.7754C37.5354 17.8418 37.4571 17.9156 37.3776 17.9842C37.1557 18.1755 36.9343 18.3679 36.7128 18.5597C36.27 18.9439 35.8261 19.3275 35.3889 19.718C34.5281 20.4876 33.6644 21.2531 32.8052 22.0244C31.154 23.5067 29.5383 25.0214 27.9574 26.5798C27.9659 26.5418 27.9749 26.5038 27.9838 26.4658C28.5072 24.2638 29.9309 22.4472 31.5748 20.9609ZM38.3714 17.8713C38.3771 17.8543 38.3811 17.8378 38.3833 17.822C40.6397 18.1182 42.5242 19.7906 43.1472 21.9926C43.0931 22.0687 43.0633 22.1589 43.0745 22.2548C43.0802 22.303 43.0858 22.3519 43.0914 22.4001C43.0143 22.323 42.9348 22.2508 42.8673 22.1822C42.6424 21.9529 42.4121 21.7298 42.1754 21.5124C41.6914 21.0681 41.189 20.6527 40.6593 20.2651C39.7383 19.5909 38.741 18.9712 37.643 18.6477C37.7151 18.5881 37.7873 18.5285 37.8599 18.4695C38.0768 18.2918 38.278 18.1454 38.3714 17.8713ZM42.4166 15.5167C41.0312 13.9918 39.1128 12.8749 37.0926 12.4867C35.1635 12.1156 33.1664 12.3602 31.3439 13.0815C27.5303 14.5911 24.5213 17.9105 23.1123 21.7571C22.2909 23.9982 22.0216 26.455 22.2684 28.8272C22.514 31.1886 23.2199 33.6272 24.5044 35.6362C24.6221 35.8202 24.7512 35.9966 24.8864 36.1674C24.8261 36.8609 24.5962 37.5408 24.2345 38.1322C24.2151 38.1638 24.1946 38.1949 24.1743 38.2261C23.8039 38.5055 23.4198 38.7677 23.0447 39.0383C22.7197 39.2728 22.398 39.5134 22.0924 39.7731C21.8039 40.0184 21.4688 40.2914 21.2735 40.6224C21.1135 40.8935 21.0481 41.2621 21.2666 41.5207C21.5299 41.8321 21.9759 41.7223 22.3326 41.7223C22.3631 41.7223 22.3936 41.723 22.4241 41.7233C22.5312 41.7912 22.6415 41.8524 22.7483 41.9095C23.8283 42.4861 24.9123 43.0565 25.9974 43.624C28.1585 44.7551 30.3106 45.9316 32.5162 46.9729C33.5383 47.4559 34.6323 47.878 35.7771 47.8764C36.8509 47.8747 37.8216 47.4451 38.6599 46.7919C39.6154 46.0478 40.4143 45.1029 41.1895 44.1768C41.4993 43.8061 41.803 43.431 42.101 43.0508C42.6734 42.8584 43.2413 42.8022 43.7517 43.1734C44.1613 43.4713 44.701 43.0661 44.7106 42.6189C44.714 42.4601 44.7073 42.3034 44.6903 42.149C44.5878 41.1956 44.1247 40.333 43.603 39.5328C43.318 39.0952 43.0177 38.6656 42.7157 38.2399C42.6447 38.1395 42.5748 38.0391 42.5072 37.9369C43.7202 36.1379 44.6824 34.1431 45.274 32.0586C45.8954 29.8652 46.1067 27.5906 45.9681 25.3177C45.7551 21.8343 44.8064 18.1477 42.4166 15.5167Z" fill="black"/>
<path fill-rule="evenodd" clip-rule="evenodd" d="M38.174 34.444C37.7952 34.2884 37.4573 34.0288 37.2103 33.6971C37.1244 33.5819 37.1021 33.4601 37.1201 33.3488C37.1404 33.2236 37.2139 33.1101 37.3142 33.034C37.4148 32.9576 37.5406 32.92 37.6623 32.9392C37.768 32.9558 37.8732 33.0141 37.9565 33.1351L37.9739 33.1592C38.1208 33.3594 38.3122 33.5236 38.5302 33.6295C38.7404 33.7315 38.9755 33.7791 39.2188 33.7514C39.6821 33.6987 40.0014 33.4463 40.3409 33.1036C40.3829 33.0603 40.425 33.0156 40.4673 32.9703C40.494 32.9292 40.5311 32.9028 40.5723 32.8889C40.618 32.8735 40.6697 32.8744 40.717 32.891C40.7627 32.9071 40.8035 32.9375 40.8309 32.978C40.8569 33.0165 40.8717 33.064 40.8669 33.1187C40.8358 33.4739 40.6515 33.791 40.3896 34.0399C40.0988 34.3163 39.7132 34.5076 39.3503 34.5747C38.9504 34.6486 38.5429 34.5956 38.174 34.444V34.444ZM39.5389 28.9641C39.9643 29.2246 40.6126 29.832 40.1549 30.4778C39.6162 31.0472 38.8406 30.3944 38.4583 30.0991C38.1039 29.8703 37.7057 30.4588 38.0346 30.726C40.7965 32.7858 41.9173 29.0322 39.7541 28.6578C39.5159 28.6166 39.4275 28.8835 39.5389 28.9641ZM34.5896 26.568C34.6366 25.9803 35.5252 25.8468 35.6136 26.4284C35.6927 26.9494 35.5995 27.428 35.3666 27.897C35.144 28.3451 34.5845 28.1361 34.5422 27.728C34.4855 27.1811 34.5603 26.9336 34.5896 26.568ZM41.3537 26.3078C41.4776 26.1444 41.6565 26.0328 41.8708 26.0959C42.5404 26.293 42.343 27.2505 42.1079 27.7166C41.9801 27.9697 41.5671 28.0339 41.3804 27.8111C41.0762 27.4476 40.9305 26.7218 41.3173 26.3638C41.3277 26.3453 41.3394 26.3267 41.3537 26.3078ZM35.3571 23.9963L35.4629 23.9776C35.7901 23.9206 36.1969 23.8659 36.4284 24.1308C36.5512 24.2714 36.5934 24.5325 36.4284 24.667C36.1382 24.9037 35.8173 24.812 35.4694 24.832C35.1828 24.8486 34.9073 24.8964 34.6312 24.9759C34.0254 25.1503 33.5318 25.4687 33.0145 25.8182C32.9466 25.8641 32.8773 25.7766 32.9097 25.7127C33.2084 25.1234 33.7871 24.6394 34.3668 24.3443C34.6762 24.1869 35.0148 24.0562 35.3571 23.9963ZM40.7433 23.7323L40.8243 23.749C41.7053 23.9345 42.8499 24.3051 43.267 25.1767C43.2829 25.3 43.2661 25.3264 43.2525 25.3437L43.2479 25.3494C43.2367 25.3642 43.2277 25.3845 43.1747 25.4012C43.1599 25.3977 43.1451 25.394 43.1301 25.39C42.9388 25.3395 42.7875 25.27 42.6411 25.1978L42.4822 25.119C42.298 25.028 42.1121 24.9403 41.9151 24.8756C41.4947 24.7374 41.0623 24.6401 40.6232 24.5882C40.528 24.5769 40.4363 24.5446 40.364 24.4891C40.2954 24.4365 40.243 24.3636 40.2191 24.2667C40.1881 24.1413 40.197 24.0464 40.2638 23.9333C40.314 23.8484 40.3858 23.7895 40.4683 23.7557C40.5524 23.7213 40.6482 23.7131 40.7433 23.7323Z" fill="black"/>
</svg>
